<svg width="400" height="225" viewBox="0 0 400 225" fill="none" xmlns="http://www.w3.org/2000/svg">
<g clip-path="url(#clip0_1475_23)">
<path d="M161.542 224.521L133.397 174.271L189.688 174.271L161.542 224.521Z" fill="#995C00"/>
<rect x="0.0424805" y="0.520508" width="396" height="182" rx="50" fill="#995C00"/>
<path d="M28.4043 54.3625H56.0583V57.9265H28.4043V54.3625ZM39.9873 47.8285H44.3763V55.2205H39.9873V47.8285ZM31.3083 32.8465H35.6643V37.5325H48.6993V32.8465H53.0553V48.7525H31.3083V32.8465ZM35.6643 40.9645V45.2545H48.6993V40.9645H35.6643ZM64.9657 50.2045H69.4537V61.4575H64.9657V50.2045ZM75.5257 50.2045H80.0137V61.4575H75.5257V50.2045ZM58.7287 47.8945H86.4157V51.4255H58.7287V47.8945ZM72.4897 31.9225C79.0237 31.9225 83.5447 34.5955 83.5447 38.7865C83.5447 42.9115 79.0237 45.5845 72.4897 45.5845C65.9887 45.5845 61.4677 42.9115 61.4677 38.7865C61.4677 34.5955 65.9887 31.9225 72.4897 31.9225ZM72.4897 35.4205C68.4967 35.4205 65.9557 36.6085 65.9557 38.7865C65.9557 40.9315 68.4967 42.1195 72.4897 42.1195C76.5157 42.1195 79.0237 40.9315 79.0237 38.7865C79.0237 36.6085 76.5157 35.4205 72.4897 35.4205ZM118.339 30.8995H122.761V61.4575H118.339V30.8995ZM100.519 33.3085H103.687V38.4565C103.687 44.8255 102.928 51.3925 98.8688 54.6925L96.0638 51.6565C99.9578 48.6205 100.519 43.3075 100.519 38.4565V33.3085ZM101.542 33.3085H104.644V38.4565C104.644 43.1095 105.172 48.6865 109.132 51.8875L106.756 55.1215C102.268 51.7225 101.542 44.5615 101.542 38.4565V33.3085ZM108.901 33.3085H112.003V38.4565C112.003 44.6275 111.244 51.7555 106.756 55.1215L104.38 51.8875C108.373 48.7195 108.901 43.1755 108.901 38.4565V33.3085ZM109.891 33.3085H113.059V38.4565C113.059 43.3405 113.653 48.6535 117.514 51.6565L114.874 54.8575C110.65 51.5575 109.891 44.8585 109.891 38.4565V33.3085ZM146.749 30.8995H151.138V51.0295H146.749V30.8995ZM149.917 38.5225H155.197V42.0865H149.917V38.5225ZM139.225 49.6435H142.987V50.4025C142.987 55.8475 138.862 60.1705 131.371 61.3255L129.688 57.9265C136.222 57.0355 139.225 53.7025 139.225 50.4025V49.6435ZM139.852 49.6435H143.581V50.4025C143.581 53.7025 146.617 57.0355 153.118 57.9265L151.468 61.3255C143.977 60.1705 139.852 55.8475 139.852 50.4025V49.6435ZM135.595 32.8465C140.314 32.8465 143.911 35.9485 143.911 40.3375C143.911 44.6935 140.314 47.7955 135.595 47.7955C130.876 47.7955 127.279 44.6935 127.279 40.3375C127.279 35.9485 130.876 32.8465 135.595 32.8465ZM135.595 36.5425C133.285 36.5425 131.569 37.9285 131.569 40.3375C131.569 42.7135 133.285 44.1325 135.595 44.1325C137.905 44.1325 139.621 42.7135 139.621 40.3375C139.621 37.9285 137.905 36.5425 135.595 36.5425ZM176.593 31.7905H180.454V33.2095C180.454 39.0835 175.834 44.0665 167.815 45.2545L166.099 41.7235C173.128 40.7995 176.593 36.8065 176.593 33.2095V31.7905ZM177.418 31.7905H181.246V33.2095C181.246 36.7735 184.744 40.7995 191.74 41.7235L190.057 45.2545C182.038 44.0665 177.418 39.0835 177.418 33.2095V31.7905ZM176.626 50.2705H180.982V61.4575H176.626V50.2705ZM165.109 47.4985H192.73V51.0625H165.109V47.4985ZM215.102 30.9325H219.491V53.4385H215.102V30.9325ZM218.237 39.6775H223.55V43.3075H218.237V39.6775ZM199.889 57.4315H220.613V60.9295H199.889V57.4315ZM199.889 51.6235H204.311V58.5865H199.889V51.6235ZM196.523 45.5515H199.097C205.103 45.5515 208.799 45.3865 213.023 44.5945L213.419 48.1255C209.129 48.9175 205.268 49.0495 199.097 49.0495H196.523V45.5515ZM196.49 32.7475H210.449V42.3835H200.879V46.8055H196.523V39.1495H206.126V36.2455H196.49V32.7475ZM230.752 51.3252V50.9268C230.76 49.5596 230.881 48.4697 231.116 47.6572C231.358 46.8447 231.709 46.1885 232.17 45.6885C232.631 45.1885 233.186 44.7354 233.834 44.3291C234.319 44.0166 234.752 43.6924 235.135 43.3564C235.518 43.0205 235.823 42.6494 236.049 42.2432C236.276 41.8291 236.389 41.3682 236.389 40.8604C236.389 40.3213 236.26 39.8486 236.002 39.4424C235.745 39.0361 235.397 38.7236 234.959 38.5049C234.53 38.2861 234.053 38.1768 233.53 38.1768C233.022 38.1768 232.542 38.29 232.088 38.5166C231.635 38.7354 231.264 39.0635 230.975 39.501C230.686 39.9307 230.53 40.4658 230.506 41.1064H225.725C225.764 39.5439 226.139 38.2549 226.85 37.2393C227.561 36.2158 228.502 35.4541 229.674 34.9541C230.846 34.4463 232.139 34.1924 233.553 34.1924C235.108 34.1924 236.483 34.4502 237.678 34.9658C238.874 35.4736 239.811 36.2119 240.491 37.1807C241.17 38.1494 241.51 39.3174 241.51 40.6846C241.51 41.5986 241.358 42.4111 241.053 43.1221C240.756 43.8252 240.338 44.4502 239.799 44.9971C239.26 45.5361 238.624 46.0244 237.889 46.4619C237.272 46.8291 236.764 47.2119 236.366 47.6104C235.975 48.0088 235.682 48.4697 235.487 48.9932C235.299 49.5166 235.202 50.1611 235.194 50.9268V51.3252H230.752ZM233.073 58.8252C232.292 58.8252 231.624 58.5518 231.069 58.0049C230.522 57.4502 230.252 56.7861 230.26 56.0127C230.252 55.2471 230.522 54.5908 231.069 54.0439C231.624 53.4971 232.292 53.2236 233.073 53.2236C233.815 53.2236 234.467 53.4971 235.03 54.0439C235.592 54.5908 235.877 55.2471 235.885 56.0127C235.877 56.5283 235.741 57.001 235.475 57.4307C235.217 57.8525 234.877 58.1924 234.456 58.4502C234.034 58.7002 233.573 58.8252 233.073 58.8252Z" fill="white"/>
<path d="M41.4025 86.0005H43.0825V104.081H41.4025V86.0005ZM30.6025 87.6005H31.8425V91.6605C31.8425 94.5405 31.1425 98.2005 28.8625 99.9405L27.7825 98.7605C29.9825 97.1405 30.6025 93.9805 30.6025 91.6605V87.6005ZM30.9625 87.6005H32.1825V91.6605C32.1825 93.8405 32.6425 97.1605 34.8625 98.8805L33.9425 100.141C31.5025 98.3205 30.9625 94.3805 30.9625 91.6605V87.6005ZM35.7225 87.6005H36.9425V91.6605C36.9425 94.5005 36.3825 98.3605 33.9425 100.141L33.0225 98.8805C35.2425 97.2205 35.7225 93.9605 35.7225 91.6605V87.6005ZM36.0625 87.6005H37.3025V91.6605C37.3025 94.0605 37.9225 97.1805 40.1225 98.7605L39.1025 99.9805C36.7425 98.2605 36.0625 94.6405 36.0625 91.6605V87.6005ZM58.8009 86.0005H60.4609V98.0005H58.8009V86.0005ZM60.0009 90.9405H63.1409V92.3005H60.0009V90.9405ZM54.1809 97.1405H55.6009V97.6805C55.6009 101.081 52.4409 103.321 48.8009 104.001L48.1409 102.701C51.3809 102.161 54.1809 100.241 54.1809 97.6805V97.1405ZM54.4009 97.1405H55.8209V97.6805C55.8209 100.241 58.6409 102.161 61.8409 102.701L61.2009 104.001C57.5609 103.321 54.4009 101.081 54.4009 97.6805V97.1405ZM51.4809 87.2605C54.2009 87.2605 56.2009 89.0005 56.2009 91.5405C56.2009 94.0805 54.2009 95.8405 51.4809 95.8405C48.7609 95.8405 46.7609 94.0805 46.7609 91.5405C46.7609 89.0005 48.7609 87.2605 51.4809 87.2605ZM51.4809 88.6605C49.6809 88.6605 48.3809 89.8405 48.3809 91.5405C48.3809 93.2605 49.6809 94.4405 51.4809 94.4405C53.2809 94.4405 54.5809 93.2605 54.5809 91.5405C54.5809 89.8405 53.2809 88.6605 51.4809 88.6605ZM76.0837 87.9751V102.521H74.3223V89.8216H74.2371L70.6859 92.1796V90.3898L74.3223 87.9751H76.0837ZM93.4812 86.0005H95.0812V104.081H93.4812V86.0005ZM90.5612 93.2605H94.0212V94.6205H90.5612V93.2605ZM85.8812 88.3205H87.4812C87.4812 92.9805 85.8812 97.3005 80.7212 100.201L79.7412 99.0205C84.2812 96.4805 85.8812 92.8205 85.8812 88.6405V88.3205ZM80.4412 88.3205H86.4412V89.7005H80.4412V88.3205ZM89.4612 86.4805H91.0412V103.201H89.4612V86.4805ZM98.1597 100.481H114.54V101.861H98.1597V100.481ZM105.48 96.6005H107.14V101.061H105.48V96.6005ZM100.14 87.3405H112.52V92.8205H101.84V96.4405H100.2V91.4805H110.88V88.6805H100.14V87.3405ZM100.2 95.7405H112.94V97.1005H100.2V95.7405ZM125.943 89.3205H127.203V89.9005C127.203 92.8205 125.743 95.4405 123.123 96.5405L122.303 95.3005C124.603 94.3805 125.943 92.2005 125.943 89.9005V89.3205ZM126.263 89.3205H127.503V89.9005C127.503 92.0605 128.883 94.1005 131.163 94.9805L130.383 96.2205C127.723 95.1805 126.263 92.6805 126.263 89.9005V89.3205ZM122.663 88.3805H130.723V89.7205H122.663V88.3805ZM125.943 86.2005H127.503V88.9405H125.943V86.2005ZM135.823 86.0205H137.403V97.1005H135.823V86.0205ZM132.903 90.8205H136.323V92.1805H132.903V90.8205ZM131.983 86.3205H133.543V96.9805H131.983V86.3205ZM125.283 98.0605H137.403V104.081H135.763V99.4005H125.283V98.0605ZM151.826 87.9751V102.521H150.064V89.8216H149.979L146.428 92.1796V90.3898L150.064 87.9751H151.826ZM160.463 94.1205H162.103V98.5005H160.463V94.1205ZM168.703 86.0005H170.363V99.6605H168.703V86.0005ZM158.023 102.321H170.803V103.681H158.023V102.321ZM158.023 98.1805H159.683V102.741H158.023V98.1805ZM155.583 94.5205L155.363 93.1405C158.683 93.1405 163.223 93.0805 167.083 92.5405L167.203 93.7405C163.263 94.4205 158.863 94.5005 155.583 94.5205ZM164.783 95.8405H169.123V97.1605H164.783V95.8405ZM157.003 87.1005H164.803V88.4405H157.003V87.1005ZM163.783 87.1005H165.423V87.7805C165.423 88.8805 165.423 90.7805 164.943 93.4005L163.303 93.2805C163.783 90.6405 163.783 88.8405 163.783 87.7805V87.1005ZM182.062 86.3005C186.042 86.3005 188.422 87.4205 188.422 89.4405C188.422 91.4605 186.042 92.5805 182.062 92.5805C178.062 92.5805 175.702 91.4605 175.702 89.4405C175.702 87.4205 178.062 86.3005 182.062 86.3005ZM182.062 87.5605C179.102 87.5605 177.402 88.2405 177.402 89.4405C177.402 90.6405 179.102 91.3205 182.062 91.3205C185.002 91.3205 186.702 90.6405 186.702 89.4405C186.702 88.2405 185.002 87.5605 182.062 87.5605ZM173.882 93.7805H190.222V95.1205H173.882V93.7805ZM175.862 96.6605H188.142V100.741H177.542V102.941H175.902V99.5405H186.502V97.9405H175.862V96.6605ZM175.902 102.581H188.682V103.881H175.902V102.581ZM198.665 87.6205H206.965V96.0005H198.665V87.6205ZM205.345 88.9605H200.285V94.6605H205.345V88.9605ZM210.285 85.9805H211.945V99.2405H210.285V85.9805ZM211.425 91.5005H214.625V92.8805H211.425V91.5005ZM200.685 102.321H212.765V103.681H200.685V102.321ZM200.685 97.9805H202.345V102.901H200.685V97.9805ZM216.324 93.5405H232.664V94.9005H216.324V93.5405ZM218.484 90.7405H230.724V92.0805H218.484V90.7405ZM218.484 86.5805H230.524V87.9405H220.124V91.8205H218.484V86.5805ZM218.284 96.4605H230.564V100.721H219.964V103.001H218.324V99.4805H228.924V97.7605H218.284V96.4605ZM218.324 102.561H231.104V103.881H218.324V102.561ZM247.647 86.6405H249.107V87.6405C249.107 91.1005 245.587 93.5805 241.827 94.2205L241.167 92.8805C244.467 92.3805 247.647 90.2205 247.647 87.6405V86.6405ZM247.947 86.6405H249.387V87.6405C249.387 90.1605 252.607 92.3805 255.867 92.8805L255.207 94.2205C251.487 93.5805 247.947 91.0605 247.947 87.6405V86.6405ZM247.647 97.2005H249.287V104.081H247.647V97.2005ZM240.347 96.1805H256.687V97.5605H240.347V96.1805ZM268.871 97.1205H270.151V98.1005C270.151 100.461 268.671 102.841 266.071 103.841L265.231 102.601C267.511 101.781 268.871 99.8405 268.871 98.1005V97.1205ZM269.231 97.1205H270.471V98.1005C270.471 99.9205 271.551 101.861 273.711 102.741L273.011 104.001C270.411 102.981 269.231 100.501 269.231 98.1005V97.1205ZM275.551 97.1205H276.791V98.1005C276.791 100.221 275.591 102.901 273.011 104.001L272.311 102.741C274.451 101.761 275.551 99.6605 275.551 98.1005V97.1205ZM275.891 97.1205H277.171V98.1005C277.171 99.9605 278.511 101.821 280.811 102.601L279.971 103.841C277.331 102.881 275.891 100.601 275.891 98.1005V97.1205ZM277.511 86.0205H279.191V96.3405H277.511V86.0205ZM269.491 87.0605C272.231 87.0605 274.191 88.7805 274.191 91.2805C274.191 93.7805 272.231 95.4805 269.491 95.4805C266.751 95.4805 264.771 93.7805 264.771 91.2805C264.771 88.7805 266.751 87.0605 269.491 87.0605ZM269.491 88.4405C267.691 88.4405 266.391 89.6005 266.391 91.2805C266.391 92.9605 267.691 94.1005 269.491 94.1005C271.291 94.1005 272.591 92.9605 272.591 91.2805C272.591 89.6005 271.291 88.4405 269.491 88.4405ZM287.589 87.3805C290.209 87.3805 292.089 89.8405 292.089 93.6805C292.089 97.5405 290.209 100.001 287.589 100.001C284.949 100.001 283.089 97.5405 283.089 93.6805C283.089 89.8405 284.949 87.3805 287.589 87.3805ZM287.589 88.8805C285.849 88.8805 284.669 90.7605 284.669 93.6805C284.669 96.6205 285.849 98.5405 287.589 98.5405C289.329 98.5405 290.509 96.6205 290.509 93.6805C290.509 90.7605 289.329 88.8805 287.589 88.8805ZM296.009 85.9805H297.649V104.101H296.009V85.9805ZM291.549 92.8805H296.729V94.2405H291.549V92.8805ZM305.167 95.3005H306.807V100.721H305.167V95.3005ZM311.847 95.3005H313.507V100.721H311.847V95.3005ZM301.167 100.401H317.547V101.781H301.167V100.401ZM309.327 87.1405C313.147 87.1405 315.887 88.9605 315.887 91.8005C315.887 94.6205 313.147 96.4405 309.327 96.4405C305.487 96.4405 302.747 94.6205 302.747 91.8005C302.747 88.9605 305.487 87.1405 309.327 87.1405ZM309.327 88.4605C306.427 88.4605 304.347 89.7805 304.347 91.8005C304.347 93.8005 306.427 95.1205 309.327 95.1205C312.227 95.1205 314.287 93.8005 314.287 91.8005C314.287 89.7805 312.227 88.4605 309.327 88.4605ZM322.316 87.9751L322.174 98.4296H320.526L320.384 87.9751H322.316ZM321.35 102.634C321 102.634 320.699 102.509 320.448 102.258C320.197 102.007 320.072 101.706 320.072 101.356C320.072 101.005 320.197 100.705 320.448 100.454C320.699 100.203 321 100.077 321.35 100.077C321.7 100.077 322.001 100.203 322.252 100.454C322.503 100.705 322.628 101.005 322.628 101.356C322.628 101.588 322.569 101.801 322.451 101.995C322.337 102.189 322.183 102.345 321.989 102.464C321.8 102.577 321.587 102.634 321.35 102.634ZM28.0225 144.701H44.4225V146.061H28.0225V144.701ZM35.3425 145.341H36.9825V152.081H35.3425V145.341ZM30.0825 134.721H31.7425V137.201H40.6825V134.721H42.3225V142.541H30.0825V134.721ZM31.7425 138.541V141.201H40.6825V138.541H31.7425ZM53.5209 135.441H55.0009V135.981C55.0009 138.901 51.6809 140.901 47.9409 141.361L47.3409 140.061C50.5809 139.681 53.5209 138.041 53.5209 135.981V135.441ZM54.2209 135.441H55.6809V135.981C55.6809 138.041 58.6209 139.701 61.8609 140.061L61.2609 141.361C57.5209 140.901 54.2209 138.901 54.2209 135.981V135.441ZM47.9209 134.741H61.3009V136.081H47.9209V134.741ZM46.4209 143.061H62.8209V144.421H46.4209V143.061ZM53.7609 140.361H55.4009V143.721H53.7609V140.361ZM48.2409 146.221H60.7409V152.081H59.0809V147.561H48.2409V146.221ZM77.1994 134.021H78.8594V147.581H77.1994V134.021ZM78.3394 139.941H81.5394V141.341H78.3394V139.941ZM64.8794 136.201H75.5594V137.541H64.8794V136.201ZM70.2194 138.541C72.7794 138.541 74.5394 139.881 74.5394 141.921C74.5394 143.941 72.7794 145.281 70.2194 145.281C67.6394 145.281 65.8794 143.941 65.8794 141.921C65.8794 139.881 67.6394 138.541 70.2194 138.541ZM70.2194 139.841C68.5794 139.841 67.4594 140.661 67.4594 141.921C67.4594 143.161 68.5794 143.981 70.2194 143.981C71.8394 143.981 72.9594 143.161 72.9594 141.921C72.9594 140.661 71.8394 139.841 70.2194 139.841ZM69.3794 134.001H71.0394V136.901H69.3794V134.001ZM67.5994 150.321H79.6794V151.681H67.5994V150.321ZM67.5994 146.501H69.2594V150.901H67.5994V146.501ZM102.223 134.001H103.903V152.081H102.223V134.001ZM91.4228 135.601H92.6628V139.661C92.6628 142.541 91.9628 146.201 89.6828 147.941L88.6028 146.761C90.8028 145.141 91.4228 141.981 91.4228 139.661V135.601ZM91.7828 135.601H93.0028V139.661C93.0028 141.841 93.4628 145.161 95.6828 146.881L94.7628 148.141C92.3228 146.321 91.7828 142.381 91.7828 139.661V135.601ZM96.5428 135.601H97.7628V139.661C97.7628 142.501 97.2028 146.361 94.7628 148.141L93.8428 146.881C96.0628 145.221 96.5428 141.961 96.5428 139.661V135.601ZM96.8828 135.601H98.1228V139.661C98.1228 142.061 98.7428 145.181 100.943 146.761L99.9228 147.981C97.5628 146.261 96.8828 142.641 96.8828 139.661V135.601ZM119.621 134.001H121.281V146.001H119.621V134.001ZM120.821 138.941H123.961V140.301H120.821V138.941ZM115.001 145.141H116.421V145.681C116.421 149.081 113.261 151.321 109.621 152.001L108.961 150.701C112.201 150.161 115.001 148.241 115.001 145.681V145.141ZM115.221 145.141H116.641V145.681C116.641 148.241 119.461 150.161 122.661 150.701L122.021 152.001C118.381 151.321 115.221 149.081 115.221 145.681V145.141ZM112.301 135.261C115.021 135.261 117.021 137.001 117.021 139.541C117.021 142.081 115.021 143.841 112.301 143.841C109.581 143.841 107.581 142.081 107.581 139.541C107.581 137.001 109.581 135.261 112.301 135.261ZM112.301 136.661C110.501 136.661 109.201 137.841 109.201 139.541C109.201 141.261 110.501 142.441 112.301 142.441C114.101 142.441 115.401 141.261 115.401 139.541C115.401 137.841 114.101 136.661 112.301 136.661ZM125.64 143.501H141.98V144.861H125.64V143.501ZM127.76 150.321H140.18V151.681H127.76V150.321ZM127.76 146.441H129.42V150.741H127.76V146.441ZM133.82 134.601C137.68 134.601 140.18 135.961 140.18 138.221C140.18 140.461 137.68 141.821 133.82 141.821C129.94 141.821 127.46 140.461 127.46 138.221C127.46 135.961 129.94 134.601 133.82 134.601ZM133.82 135.961C130.98 135.961 129.16 136.801 129.16 138.221C129.16 139.641 130.98 140.481 133.82 140.481C136.66 140.481 138.48 139.641 138.48 138.221C138.48 136.801 136.66 135.961 133.82 135.961ZM154.063 134.941H155.443V136.781C155.443 140.261 153.483 143.141 150.463 144.321L149.583 142.981C152.303 141.981 154.063 139.541 154.063 136.781V134.941ZM154.363 134.941H155.723V136.901C155.723 139.341 157.523 141.601 160.123 142.501L159.243 143.801C156.343 142.721 154.363 140.041 154.363 136.901V134.941ZM162.043 134.001H163.703V144.961H162.043V134.001ZM163.243 138.661H166.383V140.061H163.243V138.661ZM157.943 145.461C161.643 145.461 163.883 146.681 163.883 148.761C163.883 150.841 161.643 152.041 157.943 152.041C154.243 152.041 152.003 150.841 152.003 148.761C152.003 146.681 154.243 145.461 157.943 145.461ZM157.943 146.781C155.263 146.781 153.623 147.501 153.623 148.761C153.623 150.021 155.263 150.741 157.943 150.741C160.623 150.741 162.263 150.021 162.263 148.761C162.263 147.501 160.623 146.781 157.943 146.781ZM177.722 138.521H181.742V139.901H177.722V138.521ZM181.282 134.001H182.942V144.581H181.282V134.001ZM171.222 145.461H182.942V151.841H171.222V145.461ZM181.322 146.781H172.842V150.501H181.322V146.781ZM172.682 135.721H174.042V137.181C174.042 140.481 172.002 143.301 168.982 144.421L168.122 143.101C170.822 142.141 172.682 139.741 172.682 137.181V135.721ZM173.002 135.721H174.342V137.161C174.342 139.501 176.102 141.761 178.722 142.681L177.882 144.001C174.942 142.941 173.002 140.201 173.002 137.161V135.721ZM168.642 135.161H178.302V136.501H168.642V135.161ZM193.8 141.021H197.22V142.401H193.8V141.021ZM200.24 134.001H201.84V152.081H200.24V134.001ZM196.66 134.381H198.24V151.181H196.66V134.381ZM190.54 135.501C192.88 135.501 194.4 137.921 194.4 141.801C194.4 145.681 192.88 148.101 190.54 148.101C188.2 148.101 186.7 145.681 186.7 141.801C186.7 137.921 188.2 135.501 190.54 135.501ZM190.54 137.041C189.12 137.041 188.22 138.881 188.22 141.801C188.22 144.721 189.12 146.561 190.54 146.561C191.98 146.561 192.88 144.721 192.88 141.801C192.88 138.881 191.98 137.041 190.54 137.041ZM213.898 140.121H218.938V141.481H213.898V140.121ZM209.538 135.561H210.898V138.781C210.898 142.841 208.758 146.721 205.898 148.261L204.838 146.941C207.498 145.621 209.538 142.141 209.538 138.781V135.561ZM209.858 135.561H211.198V138.781C211.198 142.081 213.238 145.361 215.858 146.601L214.878 147.941C211.958 146.461 209.858 142.741 209.858 138.781V135.561ZM218.118 133.981H219.758V152.101H218.118V133.981ZM236.242 143.801H237.862V146.521H236.242V143.801ZM228.882 142.921H245.222V144.261H228.882V142.921ZM236.242 133.941H237.882V136.381H236.242V133.941ZM236.162 136.581H237.622V136.881C237.622 139.841 234.302 141.561 230.342 141.961L229.842 140.681C233.342 140.381 236.162 138.941 236.162 136.881V136.581ZM236.502 136.581H237.962V136.881C237.962 138.941 240.782 140.381 244.282 140.681L243.782 141.961C239.822 141.561 236.502 139.841 236.502 136.881V136.581ZM230.562 135.761H243.562V137.081H230.562V135.761ZM237.042 146.061C240.942 146.061 243.242 147.121 243.242 149.061C243.242 151.001 240.942 152.041 237.042 152.041C233.142 152.041 230.842 151.001 230.842 149.061C230.842 147.121 233.142 146.061 237.042 146.061ZM237.042 147.321C234.182 147.321 232.522 147.921 232.522 149.061C232.522 150.161 234.182 150.781 237.042 150.781C239.902 150.781 241.562 150.161 241.562 149.061C241.562 147.921 239.902 147.321 237.042 147.321ZM256.88 138.981H261.44V140.341H256.88V138.981ZM260.5 134.021H262.16V147.261H260.5V134.021ZM250.62 150.321H262.66V151.681H250.62V150.321ZM250.62 146.101H252.28V151.021H250.62V146.101ZM251.9 136.261H253.26V137.721C253.26 141.001 251.22 143.841 248.2 144.961L247.34 143.641C250.04 142.681 251.9 140.281 251.9 137.721V136.261ZM252.22 136.261H253.56V137.701C253.56 140.041 255.32 142.321 257.94 143.241L257.1 144.541C254.16 143.481 252.22 140.761 252.22 137.701V136.261ZM247.86 135.481H257.52V136.821H247.86V135.481ZM278.059 133.941H279.719V143.921H278.059V133.941ZM279.019 138.281H282.399V139.681H279.019V138.281ZM268.239 144.841H279.719V148.881H269.919V151.081H268.279V147.681H278.099V146.101H268.239V144.841ZM268.279 150.601H280.379V151.881H268.279V150.601ZM265.739 135.621H276.419V136.921H265.739V135.621ZM271.079 137.721C273.679 137.721 275.399 138.861 275.399 140.701C275.399 142.521 273.679 143.641 271.079 143.641C268.439 143.641 266.739 142.521 266.739 140.701C266.739 138.861 268.439 137.721 271.079 137.721ZM271.079 138.941C269.399 138.941 268.319 139.621 268.319 140.701C268.319 141.761 269.399 142.441 271.079 142.441C272.739 142.441 273.819 141.761 273.819 140.701C273.819 139.621 272.739 138.941 271.079 138.941ZM270.239 133.801H271.899V136.521H270.239V133.801ZM297.022 134.641H298.482V135.641C298.482 139.101 294.962 141.581 291.202 142.221L290.542 140.881C293.842 140.381 297.022 138.221 297.022 135.641V134.641ZM297.322 134.641H298.762V135.641C298.762 138.161 301.982 140.381 305.242 140.881L304.582 142.221C300.862 141.581 297.322 139.061 297.322 135.641V134.641ZM297.022 145.201H298.662V152.081H297.022V145.201ZM289.722 144.181H306.062V145.561H289.722V144.181ZM318.246 145.121H319.526V146.101C319.526 148.461 318.046 150.841 315.446 151.841L314.606 150.601C316.886 149.781 318.246 147.841 318.246 146.101V145.121ZM318.606 145.121H319.846V146.101C319.846 147.921 320.926 149.861 323.086 150.741L322.386 152.001C319.786 150.981 318.606 148.501 318.606 146.101V145.121ZM324.926 145.121H326.166V146.101C326.166 148.221 324.966 150.901 322.386 152.001L321.686 150.741C323.826 149.761 324.926 147.661 324.926 146.101V145.121ZM325.266 145.121H326.546V146.101C326.546 147.961 327.886 149.821 330.186 150.601L329.346 151.841C326.706 150.881 325.266 148.601 325.266 146.101V145.121ZM326.886 134.021H328.566V144.341H326.886V134.021ZM318.866 135.061C321.606 135.061 323.566 136.781 323.566 139.281C323.566 141.781 321.606 143.481 318.866 143.481C316.126 143.481 314.146 141.781 314.146 139.281C314.146 136.781 316.126 135.061 318.866 135.061ZM318.866 136.441C317.066 136.441 315.766 137.601 315.766 139.281C315.766 140.961 317.066 142.101 318.866 142.101C320.666 142.101 321.966 140.961 321.966 139.281C321.966 137.601 320.666 136.441 318.866 136.441ZM336.964 135.381C339.584 135.381 341.464 137.841 341.464 141.681C341.464 145.541 339.584 148.001 336.964 148.001C334.324 148.001 332.464 145.541 332.464 141.681C332.464 137.841 334.324 135.381 336.964 135.381ZM336.964 136.881C335.224 136.881 334.044 138.761 334.044 141.681C334.044 144.621 335.224 146.541 336.964 146.541C338.704 146.541 339.884 144.621 339.884 141.681C339.884 138.761 338.704 136.881 336.964 136.881ZM345.384 133.981H347.024V152.101H345.384V133.981ZM340.924 140.881H346.104V142.241H340.924V140.881ZM354.542 143.301H356.182V148.721H354.542V143.301ZM361.222 143.301H362.882V148.721H361.222V143.301ZM350.542 148.401H366.922V149.781H350.542V148.401ZM358.702 135.141C362.522 135.141 365.262 136.961 365.262 139.801C365.262 142.621 362.522 144.441 358.702 144.441C354.862 144.441 352.122 142.621 352.122 139.801C352.122 136.961 354.862 135.141 358.702 135.141ZM358.702 136.461C355.802 136.461 353.722 137.781 353.722 139.801C353.722 141.801 355.802 143.121 358.702 143.121C361.602 143.121 363.662 141.801 363.662 139.801C363.662 137.781 361.602 136.461 358.702 136.461ZM370.697 150.634C370.346 150.634 370.046 150.509 369.795 150.258C369.544 150.007 369.418 149.706 369.418 149.356C369.418 149.005 369.544 148.705 369.795 148.454C370.046 148.203 370.346 148.077 370.697 148.077C371.047 148.077 371.348 148.203 371.599 148.454C371.85 148.705 371.975 149.005 371.975 149.356C371.975 149.588 371.916 149.801 371.797 149.995C371.684 150.189 371.53 150.345 371.336 150.464C371.146 150.577 370.933 150.634 370.697 150.634Z" fill="white"/>
</g>
<defs>
<clipPath id="clip0_1475_23">
<rect width="399" height="224" fill="white" transform="translate(0.0424805 0.520508)"/>
</clipPath>
</defs>
</svg>
