<svg width="163" height="73" viewBox="0 0 163 73" fill="none" xmlns="http://www.w3.org/2000/svg">
<path fill-rule="evenodd" clip-rule="evenodd" d="M22.9248 9.25586H28.7823V46.541H22.9248V9.25586ZM34.6398 9.25586H46.3548V46.541H34.6398V9.25586ZM58.0698 9.25586H63.9274V46.541H58.0698V9.25586ZM69.7849 9.25586H87.3574V46.541H69.7849V9.25586ZM93.2149 9.25586H99.0724V46.541H93.2149V9.25586ZM110.787 9.25586H116.645V46.541H110.787V9.25586ZM122.502 9.25586H128.36V46.541H122.502V9.25586ZM134.217 9.25586H140.075V46.541H134.217V9.25586Z" fill="black"/>
<path d="M37.0862 64.151H37.5212C37.8112 64.151 38.0262 64.111 38.1662 64.031C38.3162 63.941 38.3912 63.801 38.3912 63.611V54.986C38.3912 54.796 38.3162 54.661 38.1662 54.581C38.0262 54.491 37.8112 54.446 37.5212 54.446H37.0862V54.041H40.0112L45.6812 62.651V54.986C45.6812 54.796 45.6062 54.661 45.4562 54.581C45.3162 54.491 45.1012 54.446 44.8112 54.446H44.3762V54.041H47.7512V54.446H47.3012C46.7212 54.446 46.4312 54.626 46.4312 54.986V64.541H45.5612L39.1412 54.911V63.611C39.1412 63.971 39.4312 64.151 40.0112 64.151H40.4612V64.541H37.0862V64.151ZM52.3095 64.691C51.0995 64.691 50.1595 64.371 49.4895 63.731C48.8295 63.091 48.4995 62.186 48.4995 61.016C48.4995 59.846 48.8345 58.941 49.5045 58.301C50.1745 57.661 51.1095 57.341 52.3095 57.341C53.5095 57.341 54.4395 57.661 55.0995 58.301C55.7695 58.941 56.1045 59.846 56.1045 61.016C56.1045 62.186 55.7695 63.091 55.0995 63.731C54.4395 64.371 53.5095 64.691 52.3095 64.691ZM52.3095 64.121C53.0495 64.121 53.6345 63.851 54.0645 63.311C54.4945 62.771 54.7095 62.006 54.7095 61.016C54.7095 60.036 54.4945 59.281 54.0645 58.751C53.6345 58.211 53.0495 57.941 52.3095 57.941C51.5595 57.941 50.9695 58.211 50.5395 58.751C50.1095 59.281 49.8945 60.036 49.8945 61.016C49.8945 62.006 50.1095 62.771 50.5395 63.311C50.9695 63.851 51.5595 64.121 52.3095 64.121ZM57.0266 64.166H57.2966C57.5466 64.166 57.7416 64.126 57.8816 64.046C58.0316 63.966 58.1066 63.846 58.1066 63.686V55.001C58.1066 54.791 58.0016 54.686 57.7916 54.686C57.7016 54.686 57.5566 54.726 57.3566 54.806L57.2516 54.461L59.1416 53.786H59.5166V63.686C59.5166 63.846 59.5866 63.966 59.7266 64.046C59.8766 64.126 60.0716 64.166 60.3116 64.166H60.5666V64.541H57.0266V64.166ZM65.1802 64.151H65.6302C66.2102 64.151 66.5002 63.971 66.5002 63.611V54.986C66.5002 54.626 66.2102 54.446 65.6302 54.446H65.1802V54.041H69.9202C71.4902 54.041 72.6702 54.491 73.4602 55.391C74.2502 56.281 74.6452 57.581 74.6452 59.291C74.6452 61.021 74.2502 62.331 73.4602 63.221C72.6702 64.101 71.4852 64.541 69.9052 64.541H65.1802V64.151ZM69.8752 63.956C70.9552 63.956 71.7702 63.551 72.3202 62.741C72.8802 61.931 73.1602 60.781 73.1602 59.291C73.1602 57.811 72.8852 56.666 72.3352 55.856C71.7952 55.046 70.9852 54.641 69.9052 54.641H67.9702V63.956H69.8752ZM79.497 64.691C78.287 64.691 77.347 64.371 76.677 63.731C76.017 63.091 75.687 62.186 75.687 61.016C75.687 59.846 76.022 58.941 76.692 58.301C77.362 57.661 78.297 57.341 79.497 57.341C80.697 57.341 81.627 57.661 82.287 58.301C82.957 58.941 83.292 59.846 83.292 61.016C83.292 62.186 82.957 63.091 82.287 63.731C81.627 64.371 80.697 64.691 79.497 64.691ZM79.497 64.121C80.237 64.121 80.822 63.851 81.252 63.311C81.682 62.771 81.897 62.006 81.897 61.016C81.897 60.036 81.682 59.281 81.252 58.751C80.822 58.211 80.237 57.941 79.497 57.941C78.747 57.941 78.157 58.211 77.727 58.751C77.297 59.281 77.082 60.036 77.082 61.016C77.082 62.006 77.297 62.771 77.727 63.311C78.157 63.851 78.747 64.121 79.497 64.121ZM92.7191 64.166V64.541H89.2241V64.166H89.4641C89.6941 64.166 89.8791 64.126 90.0191 64.046C90.1591 63.966 90.2291 63.846 90.2291 63.686V59.561C90.2291 59.031 90.0941 58.631 89.8241 58.361C89.5541 58.091 89.1691 57.956 88.6691 57.956C88.3191 57.956 87.9791 58.046 87.6491 58.226C87.3291 58.396 87.0641 58.656 86.8541 59.006C86.6441 59.356 86.5391 59.776 86.5391 60.266V63.686C86.5391 63.846 86.6091 63.966 86.7491 64.046C86.8991 64.126 87.0891 64.166 87.3191 64.166H87.5441V64.541H84.0491V64.166H84.3341C84.5741 64.166 84.7641 64.126 84.9041 64.046C85.0541 63.966 85.1291 63.846 85.1291 63.686V58.646C85.1291 58.436 85.0241 58.331 84.8141 58.331C84.7241 58.331 84.5791 58.371 84.3791 58.451L84.2741 58.121L86.1641 57.446H86.5391V58.616C86.7591 58.256 87.0941 57.956 87.5441 57.716C88.0041 57.466 88.5141 57.341 89.0741 57.341C89.9041 57.341 90.5391 57.526 90.9791 57.896C91.4191 58.266 91.6391 58.761 91.6391 59.381V63.686C91.6391 63.846 91.7141 63.966 91.8641 64.046C92.0141 64.126 92.2091 64.166 92.4491 64.166H92.7191ZM100.04 57.341C100.32 57.341 100.545 57.401 100.715 57.521C100.895 57.641 100.985 57.786 100.985 57.956C100.985 58.116 100.94 58.241 100.85 58.331C100.77 58.421 100.65 58.466 100.49 58.466C100.38 58.466 100.295 58.446 100.235 58.406C100.185 58.366 100.135 58.306 100.085 58.226C100.025 58.136 99.9598 58.071 99.8898 58.031C99.8298 57.981 99.7348 57.956 99.6048 57.956C99.4548 57.956 99.2598 58.021 99.0198 58.151C99.4298 58.541 99.6348 59.061 99.6348 59.711C99.6348 60.461 99.3648 61.041 98.8248 61.451C98.2848 61.861 97.5348 62.066 96.5748 62.066C95.9548 62.066 95.4198 61.976 94.9698 61.796C94.6698 62.016 94.5198 62.246 94.5198 62.486C94.5198 62.676 94.6098 62.831 94.7898 62.951C94.9698 63.071 95.2248 63.131 95.5548 63.131H97.9698C98.5798 63.131 99.0848 63.266 99.4848 63.536C99.8948 63.796 100.1 64.191 100.1 64.721C100.1 65.421 99.7798 65.956 99.1398 66.326C98.4998 66.696 97.6248 66.881 96.5148 66.881C95.5748 66.881 94.8298 66.726 94.2798 66.416C93.7398 66.116 93.4698 65.681 93.4698 65.111C93.4698 64.521 93.8448 64.086 94.5948 63.806C94.2648 63.716 94.0198 63.576 93.8598 63.386C93.7098 63.196 93.6348 62.986 93.6348 62.756C93.6348 62.326 93.9198 61.926 94.4898 61.556C94.1898 61.346 93.9548 61.086 93.7848 60.776C93.6248 60.466 93.5448 60.111 93.5448 59.711C93.5448 58.971 93.8148 58.391 94.3548 57.971C94.8948 57.551 95.6348 57.341 96.5748 57.341C97.4448 57.341 98.1398 57.516 98.6598 57.866C99.0698 57.516 99.5298 57.341 100.04 57.341ZM96.5748 61.511C97.1248 61.511 97.5398 61.346 97.8198 61.016C98.0998 60.676 98.2398 60.241 98.2398 59.711C98.2398 59.181 98.0998 58.751 97.8198 58.421C97.5398 58.081 97.1248 57.911 96.5748 57.911C96.0348 57.911 95.6248 58.081 95.3448 58.421C95.0748 58.751 94.9398 59.181 94.9398 59.711C94.9398 60.241 95.0748 60.676 95.3448 61.016C95.6248 61.346 96.0348 61.511 96.5748 61.511ZM95.2998 64.031C95.0098 64.141 94.7998 64.306 94.6698 64.526C94.5498 64.736 94.4898 64.936 94.4898 65.126C94.4898 65.526 94.6798 65.826 95.0598 66.026C95.4398 66.236 95.9448 66.341 96.5748 66.341C97.2848 66.341 97.8448 66.221 98.2548 65.981C98.6648 65.741 98.8698 65.401 98.8698 64.961C98.8698 64.641 98.7598 64.406 98.5398 64.256C98.3298 64.106 97.9748 64.031 97.4748 64.031H95.2998ZM113.52 64.166V64.541H110.025V64.166H110.265C110.495 64.166 110.68 64.126 110.82 64.046C110.96 63.966 111.03 63.846 111.03 63.686V59.561C111.03 59.031 110.895 58.631 110.625 58.361C110.355 58.091 109.97 57.956 109.47 57.956C109.12 57.956 108.78 58.046 108.45 58.226C108.13 58.396 107.865 58.656 107.655 59.006C107.445 59.356 107.34 59.776 107.34 60.266V63.686C107.34 63.846 107.41 63.966 107.55 64.046C107.7 64.126 107.89 64.166 108.12 64.166H108.345V64.541H104.85V64.166H105.135C105.375 64.166 105.565 64.126 105.705 64.046C105.855 63.966 105.93 63.846 105.93 63.686V58.646C105.93 58.436 105.825 58.331 105.615 58.331C105.525 58.331 105.38 58.371 105.18 58.451L105.075 58.121L106.965 57.446H107.34V58.616C107.56 58.256 107.895 57.956 108.345 57.716C108.805 57.466 109.315 57.341 109.875 57.341C110.705 57.341 111.34 57.526 111.78 57.896C112.22 58.266 112.44 58.761 112.44 59.381V63.686C112.44 63.846 112.515 63.966 112.665 64.046C112.815 64.126 113.01 64.166 113.25 64.166H113.52ZM115.696 64.691C115.426 64.691 115.206 64.611 115.036 64.451C114.876 64.281 114.796 64.066 114.796 63.806C114.796 63.546 114.876 63.336 115.036 63.176C115.206 63.016 115.426 62.936 115.696 62.936C115.966 62.936 116.181 63.016 116.341 63.176C116.501 63.336 116.581 63.546 116.581 63.806C116.581 64.066 116.501 64.281 116.341 64.451C116.181 64.611 115.966 64.691 115.696 64.691ZM119.748 64.151H120.363C120.943 64.151 121.233 63.971 121.233 63.611V54.926L119.283 55.781V55.061L122.703 53.681V63.611C122.703 63.801 122.773 63.941 122.913 64.031C123.063 64.111 123.283 64.151 123.573 64.151H124.173V64.541H119.748V64.151Z" fill="black"/>
</svg>
