<svg width="82" height="160" viewBox="0 0 82 160" fill="none" xmlns="http://www.w3.org/2000/svg">
<g clip-path="url(#clip0_1905_5)">
<g filter="url(#filter0_d_1905_5)">
<path d="M0 0H52C68.5685 0 82 13.4315 82 30V130C82 146.569 68.5685 160 52 160H0V0Z" fill="#DC91C4"/>
</g>
<path d="M29.2526 47.89H33.2726V75.67H29.2526V47.89ZM32.3726 58.24H37.2926V61.54H32.3726V58.24ZM12.3326 50.08H16.2926V56.83H21.8726V50.08H25.8326V69.25H12.3326V50.08ZM16.2926 59.92V66.04H21.8726V59.92H16.2926ZM39.1203 69.37H64.2603V72.61H39.1203V69.37ZM49.6503 64.12H53.6403V70.69H49.6503V64.12ZM41.9403 49.69H61.4403V58.93H45.9603V63.61H42.0003V55.81H57.4803V52.84H41.9403V49.69ZM42.0003 62.02H62.0703V65.23H42.0003V62.02ZM30.5726 83.89H34.5926V98.23H30.5726V83.89ZM14.7026 108.43H16.5326C20.8826 108.43 23.1326 108.37 25.8026 107.83L26.1926 110.77C23.4026 111.31 21.0626 111.37 16.5326 111.37H14.7026V108.43ZM14.6726 99.4H24.2426V106.63H18.5426V110.11H14.7026V103.9H20.3726V102.34H14.6726V99.4ZM25.2626 99.4H34.5926V111.61H30.6326V102.58H25.2626V99.4ZM19.3226 85C23.5526 85 26.7326 87.67 26.7326 91.39C26.7326 95.14 23.5526 97.78 19.3226 97.78C15.0926 97.78 11.9126 95.14 11.9126 91.39C11.9126 87.67 15.0926 85 19.3226 85ZM19.3226 88.24C17.2826 88.24 15.7526 89.41 15.7526 91.39C15.7526 93.37 17.2826 94.57 19.3226 94.57C21.3626 94.57 22.8626 93.37 22.8626 91.39C22.8626 89.41 21.3626 88.24 19.3226 88.24ZM58.2303 83.89H62.2503V111.67H58.2303V83.89ZM50.0403 86.77H54.0003C54.0003 95.26 51.1203 102.22 41.2503 106.99L39.1803 103.81C47.1603 99.97 50.0403 94.93 50.0403 87.49V86.77ZM40.6503 86.77H51.9303V89.92H40.6503V86.77Z" fill="white"/>
</g>
<defs>
<filter id="filter0_d_1905_5" x="-4" y="0" width="90" height="168" filterUnits="userSpaceOnUse" color-interpolation-filters="sRGB">
<feFlood flood-opacity="0" result="BackgroundImageFix"/>
<feColorMatrix in="SourceAlpha" type="matrix" values="0 0 0 0 0 0 0 0 0 0 0 0 0 0 0 0 0 0 127 0" result="hardAlpha"/>
<feOffset dy="4"/>
<feGaussianBlur stdDeviation="2"/>
<feComposite in2="hardAlpha" operator="out"/>
<feColorMatrix type="matrix" values="0 0 0 0 0 0 0 0 0 0 0 0 0 0 0 0 0 0 0.25 0"/>
<feBlend mode="normal" in2="BackgroundImageFix" result="effect1_dropShadow_1905_5"/>
<feBlend mode="normal" in="SourceGraphic" in2="effect1_dropShadow_1905_5" result="shape"/>
</filter>
<clipPath id="clip0_1905_5">
<rect width="82" height="160" fill="white"/>
</clipPath>
</defs>
</svg>
