<svg width="121" height="121" viewBox="0 0 121 121" fill="none" xmlns="http://www.w3.org/2000/svg">
<circle cx="60.8135" cy="60.8477" r="60" fill="#565656"/>
<path d="M42.2412 36.2849H45.5912V59.5099H42.2412V36.2849ZM33.1162 37.9099C36.6162 37.9099 39.1912 41.1099 39.1912 46.1599C39.1912 51.2599 36.6162 54.4599 33.1162 54.4599C29.6162 54.4599 27.0412 51.2599 27.0412 46.1599C27.0412 41.1099 29.6162 37.9099 33.1162 37.9099ZM33.1162 40.9349C31.3912 40.9349 30.2162 42.7599 30.2162 46.1599C30.2162 49.6099 31.3912 51.4599 33.1162 51.4599C34.8412 51.4599 35.9912 49.6099 35.9912 46.1599C35.9912 42.7599 34.8412 40.9349 33.1162 40.9349ZM55.7143 37.9099C59.1643 37.9099 61.6893 41.1099 61.6893 46.1599C61.6893 51.2599 59.1643 54.4599 55.7143 54.4599C52.2393 54.4599 49.7393 51.2599 49.7393 46.1599C49.7393 41.1099 52.2393 37.9099 55.7143 37.9099ZM55.7143 40.9349C54.0393 40.9349 52.9143 42.7599 52.9143 46.1599C52.9143 49.6099 54.0393 51.4599 55.7143 51.4599C57.4143 51.4599 58.5143 49.6099 58.5143 46.1599C58.5143 42.7599 57.4143 40.9349 55.7143 40.9349ZM65.4893 36.2849H68.7893V59.5099H65.4893V36.2849ZM60.7143 44.6349H66.8893V47.3099H60.7143V44.6349ZM84.0373 43.5349H90.1373V46.2099H84.0373V43.5349ZM77.7373 38.0849H80.4373V41.4349C80.4373 47.2599 78.4623 52.6349 74.1123 54.8099L72.0373 52.1349C75.9873 50.3099 77.7373 45.8349 77.7373 41.4349V38.0849ZM78.4373 38.0849H81.0873V41.4349C81.0873 45.8349 82.7623 50.0599 86.5873 51.7599L84.6123 54.4099C80.2623 52.3099 78.4373 47.2099 78.4373 41.4349V38.0849ZM88.4873 36.2849H91.7873V59.5099H88.4873V36.2849ZM56.8658 66.3099H60.2158V78.2599H56.8658V66.3099ZM43.6408 86.7599H45.1658C48.7908 86.7599 50.6658 86.7099 52.8908 86.2599L53.2158 88.7099C50.8908 89.1599 48.9408 89.2099 45.1658 89.2099H43.6408V86.7599ZM43.6158 79.2349H51.5908V85.2599H46.8408V88.1599H43.6408V82.9849H48.3658V81.6849H43.6158V79.2349ZM52.4408 79.2349H60.2158V89.4099H56.9158V81.8849H52.4408V79.2349ZM47.4908 67.2349C51.0158 67.2349 53.6658 69.4599 53.6658 72.5599C53.6658 75.6849 51.0158 77.8849 47.4908 77.8849C43.9658 77.8849 41.3158 75.6849 41.3158 72.5599C41.3158 69.4599 43.9658 67.2349 47.4908 67.2349ZM47.4908 69.9349C45.7908 69.9349 44.5158 70.9099 44.5158 72.5599C44.5158 74.2099 45.7908 75.2099 47.4908 75.2099C49.1908 75.2099 50.4408 74.2099 50.4408 72.5599C50.4408 70.9099 49.1908 69.9349 47.4908 69.9349ZM79.9139 66.3099H83.2639V89.4599H79.9139V66.3099ZM73.0889 68.7099H76.3889C76.3889 75.7849 73.9889 81.5849 65.7639 85.5599L64.0389 82.9099C70.6889 79.7099 73.0889 75.5099 73.0889 69.3099V68.7099ZM65.2639 68.7099H74.6639V71.3349H65.2639V68.7099Z" fill="white"/>
</svg>
