<svg width="550" height="116" viewBox="0 0 550 116" fill="none" xmlns="http://www.w3.org/2000/svg">
<path d="M141.427 5.824H147.811V50.416H141.427V5.824ZM129.475 19.552H143.251V24.688H129.475V19.552ZM112.771 10.576H119.107V38.176H112.771V10.576ZM112.771 34.672H116.515C122.851 34.672 129.427 34.24 136.339 32.848L137.011 38.128C129.859 39.568 123.043 39.952 116.515 39.952H112.771V34.672ZM183.039 5.776H189.471V50.224H183.039V5.776ZM187.791 22.768H195.615V28H187.791V22.768ZM171.375 10.384H177.615C177.615 23.728 172.527 35.152 157.743 42.592L154.191 37.744C165.855 31.696 171.375 23.536 171.375 11.488V10.384ZM156.639 10.384H174.639V15.52H156.639V10.384ZM211.982 9.472H233.15V30.928H211.982V9.472ZM226.862 14.512H218.27V25.888H226.862V14.512ZM239.294 5.824H245.678V38.224H239.294V5.824ZM243.854 18.64H251.582V23.872H243.854V18.64ZM217.022 44.416H247.262V49.504H217.022V44.416ZM217.022 35.056H223.406V46.96H217.022V35.056ZM254.89 27.76H295.114V32.848H254.89V27.76ZM259.738 19.072H290.698V24.208H259.738V19.072ZM259.738 7.456H290.314V12.496H266.122V20.944H259.738V7.456ZM259.642 44.368H290.986V49.504H259.642V44.368ZM259.642 36.208H265.978V45.664H259.642V36.208ZM318.872 14.56H323.624V15.952C323.624 23.056 320.744 29.44 313.784 32.032L310.856 27.328C316.472 25.264 318.872 20.704 318.872 15.952V14.56ZM320.168 14.56H324.872V15.952C324.872 20.416 327.32 24.688 332.888 26.608L330.056 31.312C323.048 28.912 320.168 22.768 320.168 15.952V14.56ZM312.104 10.816H331.592V15.808H312.104V10.816ZM318.872 6.256H324.872V13.12H318.872V6.256ZM342.728 5.872H348.776V33.088H342.728V5.872ZM337.4 16.96H344.456V22.048H337.4V16.96ZM333.464 6.544H339.416V32.896H333.464V6.544ZM318.248 34.96H348.776V50.272H342.44V40.048H318.248V34.96ZM355.109 23.056H395.333V28.096H355.109V23.056ZM360.053 15.664H390.581V20.656H360.053V15.664ZM360.053 6.64H390.197V11.728H366.389V19.984H360.053V6.64ZM359.669 30.592H390.389V42.352H366.005V46.192H359.717V37.84H384.101V35.392H359.669V30.592ZM359.717 45.04H391.541V49.936H359.717V45.04ZM419.329 6.448C429.457 6.448 435.409 9.136 435.409 14.032C435.409 18.928 429.457 21.616 419.329 21.616C409.153 21.616 403.249 18.928 403.249 14.032C403.249 9.136 409.153 6.448 419.329 6.448ZM419.329 11.104C412.897 11.104 409.873 12.064 409.873 14.032C409.873 16.096 412.897 16.96 419.329 16.96C425.761 16.96 428.785 16.096 428.785 14.032C428.785 12.064 425.761 11.104 419.329 11.104ZM399.217 23.68H439.393V28.72H399.217V23.68ZM403.825 31.216H434.545V42.64H410.161V46.576H403.873V38.224H428.257V35.968H403.825V31.216ZM403.873 45.184H435.697V49.984H403.873V45.184ZM107.973 66.416H135.861V71.456H107.973V66.416ZM103.413 85.328H143.589V90.464H103.413V85.328ZM120.069 88.928H126.501V108.32H120.069V88.928ZM132.597 66.416H138.885V70.352C138.885 75.152 138.885 80.528 137.157 88.4L130.869 87.68C132.597 80.24 132.597 74.96 132.597 70.352V66.416ZM168.93 70.832H179.346V75.92H168.93V70.832ZM168.594 80.048H179.01V85.136H168.594V80.048ZM178.338 63.824H184.722V89.408H178.338V63.824ZM163.842 66.848H170.658C170.658 78.944 163.842 86.72 150.354 90.416L147.858 85.376C159.138 82.448 163.842 76.88 163.842 69.92V66.848ZM150.306 66.848H168.306V71.936H150.306V66.848ZM169.986 89.984C179.01 89.984 185.01 93.44 185.01 99.008C185.01 104.576 179.01 108.08 169.986 108.08C160.962 108.08 154.962 104.576 154.962 99.008C154.962 93.44 160.962 89.984 169.986 89.984ZM169.986 94.88C164.562 94.88 161.298 96.272 161.298 99.008C161.298 101.744 164.562 103.088 169.986 103.088C175.458 103.088 178.722 101.744 178.722 99.008C178.722 96.272 175.458 94.88 169.986 94.88ZM220.19 63.824H226.526V108.272H220.19V63.824ZM225.086 81.152H232.958V86.48H225.086V81.152ZM191.486 70.4H217.358V75.488H191.486V70.4ZM204.494 77.984C210.974 77.984 215.774 82.4 215.774 88.592C215.774 94.784 210.974 99.2 204.494 99.2C198.014 99.2 193.214 94.784 193.214 88.592C193.214 82.4 198.014 77.984 204.494 77.984ZM204.494 83.168C201.47 83.168 199.31 85.184 199.31 88.592C199.31 92 201.47 94.016 204.494 94.016C207.518 94.016 209.678 92 209.678 88.592C209.678 85.184 207.518 83.168 204.494 83.168ZM201.278 64.544H207.662V72.32H201.278V64.544ZM266.65 63.776H273.034V108.368H266.65V63.776ZM259.69 79.808H267.946V84.944H259.69V79.808ZM237.37 92.816H241.018C248.218 92.816 253.93 92.672 260.362 91.568L260.938 96.752C254.362 97.856 248.41 98.096 241.018 98.096H237.37V92.816ZM237.274 67.568H257.29V84.272H243.706V94.4H237.37V79.232H251.002V72.656H237.274V67.568ZM320.313 63.776H326.745V108.224H320.313V63.776ZM325.065 80.768H332.889V86H325.065V80.768ZM308.649 68.384H314.889C314.889 81.728 309.801 93.152 295.017 100.592L291.465 95.744C303.129 89.696 308.649 81.536 308.649 69.488V68.384ZM293.913 68.384H311.913V73.52H293.913V68.384ZM341.189 64.496H347.477V67.424H364.805V64.496H371.141V79.376H341.189V64.496ZM347.477 72.08V74.672H364.805V72.08H347.477ZM336.053 82.208H376.229V87.2H336.053V82.208ZM352.901 77.312H359.237V83.504H352.901V77.312ZM340.661 89.504H371.381V100.784H346.997V104.816H340.709V96.416H365.093V94.16H340.661V89.504ZM340.709 103.232H372.533V107.984H340.709V103.232ZM381.409 93.2H384.529C389.809 93.2 394.465 93.104 399.937 92.24L400.417 97.376C394.753 98.336 389.953 98.48 384.529 98.48H381.409V93.2ZM381.361 68.144H398.209V85.328H387.601V95.12H381.409V80.288H392.017V73.232H381.361V68.144ZM412.321 63.824H418.369V108.272H412.321V63.824ZM406.369 80.624H413.761V85.712H406.369V80.624ZM402.385 64.592H408.289V106.16H402.385V64.592ZM431.513 93.7386V93.2955C431.525 91.2386 431.718 89.6023 432.093 88.3864C432.479 87.1705 433.025 86.1932 433.729 85.4545C434.434 84.7045 435.292 84.017 436.303 83.392C436.996 82.9602 437.616 82.4886 438.161 81.9773C438.718 81.4545 439.156 80.875 439.474 80.2386C439.792 79.5909 439.951 78.8693 439.951 78.0739C439.951 77.1761 439.741 76.3977 439.32 75.7386C438.9 75.0795 438.332 74.5682 437.616 74.2045C436.911 73.8409 436.121 73.6591 435.246 73.6591C434.44 73.6591 433.673 73.8352 432.945 74.1875C432.229 74.5284 431.633 75.0511 431.156 75.7557C430.69 76.4489 430.428 77.3295 430.371 78.3977H424.303C424.36 76.2386 424.883 74.4318 425.871 72.9773C426.871 71.5227 428.19 70.4318 429.826 69.7045C431.474 68.9773 433.292 68.6136 435.281 68.6136C437.451 68.6136 439.36 68.9943 441.008 69.7557C442.667 70.517 443.957 71.6023 444.877 73.0114C445.809 74.4091 446.275 76.0682 446.275 77.9886C446.275 79.2841 446.065 80.4432 445.644 81.4659C445.235 82.4886 444.65 83.3977 443.888 84.1932C443.127 84.9886 442.224 85.6989 441.178 86.3239C440.258 86.892 439.502 87.483 438.911 88.0966C438.332 88.7102 437.9 89.4318 437.616 90.2614C437.343 91.0795 437.201 92.0909 437.19 93.2955V93.7386H431.513ZM434.479 104.375C433.457 104.375 432.576 104.011 431.837 103.284C431.099 102.557 430.729 101.67 430.729 100.625C430.729 99.6023 431.099 98.7273 431.837 98C432.576 97.2727 433.457 96.9091 434.479 96.9091C435.491 96.9091 436.366 97.2727 437.104 98C437.854 98.7273 438.229 99.6023 438.229 100.625C438.229 101.318 438.053 101.949 437.701 102.517C437.36 103.085 436.906 103.54 436.337 103.881C435.781 104.21 435.161 104.375 434.479 104.375Z" fill="#42655B"/>
</svg>
