<svg width="121" height="121" viewBox="0 0 121 121" fill="none" xmlns="http://www.w3.org/2000/svg">
<circle cx="60.3828" cy="60.8779" r="60" fill="#565656"/>
<path d="M31.5785 39.9279H34.9035V63.1529H31.5785V39.9279ZM27.5035 48.8279H32.3285V51.5029H27.5035V48.8279ZM20.8285 45.9529H23.4285V47.1529C23.4285 52.0279 21.3285 56.9529 17.1285 58.8279L15.3535 56.2779C19.1035 54.5529 20.8285 50.6279 20.8285 47.1529V45.9529ZM21.5535 45.9529H24.1285V47.1529C24.1285 50.4779 25.9035 54.2279 29.6535 55.9029L27.9035 58.4279C23.6535 56.6279 21.5535 51.8779 21.5535 47.1529V45.9529ZM16.1285 43.7279H28.7535V46.3529H16.1285V43.7279ZM20.8285 40.4779H24.1535V45.0779H20.8285V40.4779ZM48.9516 40.3779C54.0516 40.3779 57.3266 42.1029 57.3266 44.9029C57.3266 47.7029 54.0516 49.4029 48.9516 49.4029C43.8516 49.4029 40.5766 47.7029 40.5766 44.9029C40.5766 42.1029 43.8516 40.3779 48.9516 40.3779ZM48.9516 42.9529C45.7766 42.9529 44.0016 43.5779 44.0016 44.9029C44.0016 46.2029 45.7766 46.8529 48.9516 46.8529C52.1016 46.8529 53.9016 46.2029 53.9016 44.9029C53.9016 43.5779 52.1016 42.9529 48.9516 42.9529ZM40.9016 54.9529H56.9016V62.8529H40.9016V54.9529ZM53.6516 57.5779H44.1766V60.2279H53.6516V57.5779ZM38.4766 50.7279H59.4016V53.3529H38.4766V50.7279ZM61.4746 53.2779H82.4496V55.9029H61.4746V53.2779ZM70.2246 54.6029H73.5246V63.1029H70.2246V54.6029ZM63.8746 40.8279H67.1746V43.4529H76.6746V40.8279H79.9746V51.0779H63.8746V40.8279ZM67.1746 46.0529V48.4279H76.6746V46.0529H67.1746ZM100.598 39.9279H103.898V63.1529H100.598V39.9279ZM96.6227 48.0779H100.973V50.7779H96.6227V48.0779ZM85.5227 55.2279H87.3727C91.1977 55.2279 94.0477 55.1779 97.3227 54.6529L97.6227 57.3029C94.2727 57.8279 91.2727 57.9279 87.3727 57.9279H85.5227V55.2279ZM85.5227 41.8779H96.2477V44.5779H88.8227V56.0779H85.5227V41.8779ZM88.0727 48.3279H95.4477V50.9279H88.0727V48.3279ZM57.4771 69.9529H60.8271V81.9029H57.4771V69.9529ZM44.2521 90.4029H45.7771C49.4021 90.4029 51.2771 90.3529 53.5021 89.9029L53.8271 92.3529C51.5021 92.8029 49.5521 92.8529 45.7771 92.8529H44.2521V90.4029ZM44.2271 82.8779H52.2021V88.9029H47.4521V91.8029H44.2521V86.6279H48.9771V85.3279H44.2271V82.8779ZM53.0521 82.8779H60.8271V93.0529H57.5271V85.5279H53.0521V82.8779ZM48.1021 70.8779C51.6271 70.8779 54.2771 73.1029 54.2771 76.2029C54.2771 79.3279 51.6271 81.5279 48.1021 81.5279C44.5771 81.5279 41.9271 79.3279 41.9271 76.2029C41.9271 73.1029 44.5771 70.8779 48.1021 70.8779ZM48.1021 73.5779C46.4021 73.5779 45.1271 74.5529 45.1271 76.2029C45.1271 77.8529 46.4021 78.8529 48.1021 78.8529C49.8021 78.8529 51.0521 77.8529 51.0521 76.2029C51.0521 74.5529 49.8021 73.5779 48.1021 73.5779ZM80.5252 69.9529H83.8752V93.1029H80.5252V69.9529ZM73.7002 72.3529H77.0002C77.0002 79.4279 74.6002 85.2279 66.3752 89.2029L64.6502 86.5529C71.3002 83.3529 73.7002 79.1529 73.7002 72.9529V72.3529ZM65.8752 72.3529H75.2752V74.9779H65.8752V72.3529Z" fill="white"/>
</svg>
