<svg width="310" height="53" viewBox="0 0 310 53" fill="none" xmlns="http://www.w3.org/2000/svg">
<path d="M95.7283 22.624H103.552V27.856H95.7283V22.624ZM90.9763 5.776H97.4083V50.224H90.9763V5.776ZM63.9043 10.048H70.2883V37.648H63.9043V10.048ZM63.9043 34.096H67.7443C74.0803 34.096 80.9443 33.664 88.0963 32.224L88.7683 37.456C81.4243 38.992 74.2723 39.376 67.7443 39.376H63.9043V34.096ZM121.021 8.752C128.029 8.752 133.261 13.312 133.261 19.696C133.261 26.128 128.029 30.688 121.021 30.688C114.061 30.688 108.733 26.128 108.733 19.696C108.733 13.312 114.061 8.752 121.021 8.752ZM121.021 14.224C117.613 14.224 115.021 16.24 115.021 19.696C115.021 23.2 117.613 25.216 121.021 25.216C124.429 25.216 127.021 23.2 127.021 19.696C127.021 16.24 124.429 14.224 121.021 14.224ZM137.437 5.776H143.821V50.368H137.437V5.776ZM107.677 41.344L106.909 36.208C114.733 36.208 125.629 36.112 134.989 34.72L135.469 39.328C125.821 41.248 115.357 41.344 107.677 41.344ZM170.747 14.56H175.499V15.952C175.499 23.056 172.619 29.44 165.659 32.032L162.731 27.328C168.347 25.264 170.747 20.704 170.747 15.952V14.56ZM172.043 14.56H176.747V15.952C176.747 20.416 179.195 24.688 184.763 26.608L181.931 31.312C174.923 28.912 172.043 22.768 172.043 15.952V14.56ZM163.979 10.816H183.467V15.808H163.979V10.816ZM170.747 6.256H176.747V13.12H170.747V6.256ZM194.603 5.872H200.651V33.088H194.603V5.872ZM189.275 16.96H196.331V22.048H189.275V16.96ZM185.339 6.544H191.291V32.896H185.339V6.544ZM170.123 34.96H200.651V50.272H194.315V40.048H170.123V34.96ZM216.823 10.768H222.055V13.552C222.055 22.048 218.071 29.68 209.479 32.512L206.311 27.472C213.703 25.024 216.823 19.216 216.823 13.552V10.768ZM218.119 10.768H223.303V13.552C223.303 18.736 226.279 23.824 233.431 25.984L230.407 30.976C221.959 28.432 218.119 21.472 218.119 13.552V10.768ZM207.991 8.8H231.991V13.888H207.991V8.8ZM235.543 5.824H241.927V32.176H235.543V5.824ZM240.151 16.048H247.831V21.28H240.151V16.048ZM227.431 32.992C236.647 32.992 242.455 36.208 242.455 41.632C242.455 47.056 236.647 50.272 227.431 50.272C218.167 50.272 212.359 47.056 212.359 41.632C212.359 36.208 218.167 32.992 227.431 32.992ZM227.431 37.984C221.767 37.984 218.695 39.136 218.695 41.632C218.695 44.128 221.767 45.376 227.431 45.376C233.095 45.376 236.119 44.128 236.119 41.632C236.119 39.136 233.095 37.984 227.431 37.984Z" fill="#42655B"/>
</svg>
