<svg width="650" height="650" viewBox="0 0 650 650" fill="none" xmlns="http://www.w3.org/2000/svg">
<mask id="path-1-outside-1_1225_33" maskUnits="userSpaceOnUse" x="109" y="220" width="426" height="227" fill="black">
<rect fill="white" x="109" y="220" width="426" height="227"/>
<path d="M134.262 316.35V296.7L190.662 228.9H220.212L162.912 296.85H220.812V272.25H244.062V296.85H269.262V316.35H244.062V336H220.812V316.35H134.262ZM331.868 269.92H338.268V342.24H331.868V269.92ZM320.188 298.96H334.028V304.4H320.188V298.96ZM301.468 279.2H307.868C307.868 297.84 301.468 315.12 280.828 326.72L276.908 322C295.068 311.84 301.468 297.2 301.468 280.48V279.2ZM279.708 279.2H303.708V284.72H279.708V279.2ZM315.788 271.84H322.108V338.72H315.788V271.84ZM407.831 306.08H414.471V318.72H407.831V306.08ZM378.471 303.76H443.831V309.12H378.471V303.76ZM411.111 316.72C426.631 316.72 435.911 321.28 435.911 329.44C435.911 337.52 426.631 342.08 411.111 342.08C395.591 342.08 386.311 337.52 386.311 329.44C386.311 321.28 395.591 316.72 411.111 316.72ZM411.111 321.84C399.831 321.84 393.031 324.56 393.031 329.44C393.031 334.24 399.831 336.96 411.111 336.96C422.471 336.96 429.191 334.24 429.191 329.44C429.191 324.56 422.471 321.84 411.111 321.84ZM406.871 275.84H412.791V278C412.791 289.68 399.511 297.52 384.551 299.36L382.151 294.08C395.111 292.72 406.871 286.24 406.871 278V275.84ZM409.671 275.84H415.511V278C415.511 286.24 427.271 292.72 440.231 294.08L437.831 299.36C422.871 297.52 409.671 289.68 409.671 278V275.84ZM384.471 273.2H437.991V278.56H384.471V273.2ZM481.425 298H495.105V303.52H481.425V298ZM507.185 269.92H513.585V342.24H507.185V269.92ZM492.865 271.44H499.185V338.64H492.865V271.44ZM468.385 275.92C477.745 275.92 483.825 285.6 483.825 301.12C483.825 316.64 477.745 326.32 468.385 326.32C459.025 326.32 453.025 316.64 453.025 301.12C453.025 285.6 459.025 275.92 468.385 275.92ZM468.385 282.08C462.705 282.08 459.105 289.44 459.105 301.12C459.105 312.8 462.705 320.16 468.385 320.16C474.145 320.16 477.745 312.8 477.745 301.12C477.745 289.44 474.145 282.08 468.385 282.08ZM166.487 366H173.127V420.24H166.487V366ZM171.047 389.68H183.847V395.28H171.047V389.68ZM117.207 374.72H159.927V380.08H117.207V374.72ZM138.567 384.08C148.807 384.08 155.847 389.44 155.847 397.6C155.847 405.68 148.807 411.04 138.567 411.04C128.247 411.04 121.207 405.68 121.207 397.6C121.207 389.44 128.247 384.08 138.567 384.08ZM138.567 389.28C132.007 389.28 127.527 392.56 127.527 397.6C127.527 402.56 132.007 405.84 138.567 405.84C145.047 405.84 149.527 402.56 149.527 397.6C149.527 392.56 145.047 389.28 138.567 389.28ZM135.207 365.92H141.847V377.52H135.207V365.92ZM128.087 431.2H176.407V436.64H128.087V431.2ZM128.087 415.92H134.727V433.52H128.087V415.92ZM273.489 365.92H279.889V438.24H273.489V365.92ZM261.809 394.96H275.649V400.4H261.809V394.96ZM243.089 375.2H249.489C249.489 393.84 243.089 411.12 222.449 422.72L218.529 418C236.689 407.84 243.089 393.2 243.089 376.48V375.2ZM221.329 375.2H245.329V380.72H221.329V375.2ZM257.409 367.84H263.729V434.72H257.409V367.84ZM327.052 373.12H373.612V378.64H327.052V373.12ZM320.172 422.64H385.532V428.16H320.172V422.64ZM345.532 396.8H352.172V425.36H345.532V396.8ZM371.132 373.12H377.692V380.32C377.692 389.28 377.692 399.2 375.052 413.84L368.412 412.96C371.132 399.12 371.132 388.96 371.132 380.32V373.12ZM393.766 423.6H459.286V429.2H393.766V423.6ZM401.686 371.44H451.206V393.36H408.486V407.84H401.926V388.08H444.646V376.88H401.686V371.44ZM401.926 405.04H452.886V410.48H401.926V405.04ZM519.999 365.92H526.639V438.24H519.999V365.92ZM498.799 373.68H505.359C505.359 394.64 495.919 412.96 471.759 424.8L468.239 419.44C489.119 409.36 498.799 394 498.799 374.8V373.68ZM471.519 373.68H501.679V379.12H471.519V373.68Z"/>
</mask>
<path d="M134.262 316.35V296.7L190.662 228.9H220.212L162.912 296.85H220.812V272.25H244.062V296.85H269.262V316.35H244.062V336H220.812V316.35H134.262ZM331.868 269.92H338.268V342.24H331.868V269.92ZM320.188 298.96H334.028V304.4H320.188V298.96ZM301.468 279.2H307.868C307.868 297.84 301.468 315.12 280.828 326.72L276.908 322C295.068 311.84 301.468 297.2 301.468 280.48V279.2ZM279.708 279.2H303.708V284.72H279.708V279.2ZM315.788 271.84H322.108V338.72H315.788V271.84ZM407.831 306.08H414.471V318.72H407.831V306.08ZM378.471 303.76H443.831V309.12H378.471V303.76ZM411.111 316.72C426.631 316.72 435.911 321.28 435.911 329.44C435.911 337.52 426.631 342.08 411.111 342.08C395.591 342.08 386.311 337.52 386.311 329.44C386.311 321.28 395.591 316.72 411.111 316.72ZM411.111 321.84C399.831 321.84 393.031 324.56 393.031 329.44C393.031 334.24 399.831 336.96 411.111 336.96C422.471 336.96 429.191 334.24 429.191 329.44C429.191 324.56 422.471 321.84 411.111 321.84ZM406.871 275.84H412.791V278C412.791 289.68 399.511 297.52 384.551 299.36L382.151 294.08C395.111 292.72 406.871 286.24 406.871 278V275.84ZM409.671 275.84H415.511V278C415.511 286.24 427.271 292.72 440.231 294.08L437.831 299.36C422.871 297.52 409.671 289.68 409.671 278V275.84ZM384.471 273.2H437.991V278.56H384.471V273.2ZM481.425 298H495.105V303.52H481.425V298ZM507.185 269.92H513.585V342.24H507.185V269.92ZM492.865 271.44H499.185V338.64H492.865V271.44ZM468.385 275.92C477.745 275.92 483.825 285.6 483.825 301.12C483.825 316.64 477.745 326.32 468.385 326.32C459.025 326.32 453.025 316.64 453.025 301.12C453.025 285.6 459.025 275.92 468.385 275.92ZM468.385 282.08C462.705 282.08 459.105 289.44 459.105 301.12C459.105 312.8 462.705 320.16 468.385 320.16C474.145 320.16 477.745 312.8 477.745 301.12C477.745 289.44 474.145 282.08 468.385 282.08ZM166.487 366H173.127V420.24H166.487V366ZM171.047 389.68H183.847V395.28H171.047V389.68ZM117.207 374.72H159.927V380.08H117.207V374.72ZM138.567 384.08C148.807 384.08 155.847 389.44 155.847 397.6C155.847 405.68 148.807 411.04 138.567 411.04C128.247 411.04 121.207 405.68 121.207 397.6C121.207 389.44 128.247 384.08 138.567 384.08ZM138.567 389.28C132.007 389.28 127.527 392.56 127.527 397.6C127.527 402.56 132.007 405.84 138.567 405.84C145.047 405.84 149.527 402.56 149.527 397.6C149.527 392.56 145.047 389.28 138.567 389.28ZM135.207 365.92H141.847V377.52H135.207V365.92ZM128.087 431.2H176.407V436.64H128.087V431.2ZM128.087 415.92H134.727V433.52H128.087V415.92ZM273.489 365.92H279.889V438.24H273.489V365.92ZM261.809 394.96H275.649V400.4H261.809V394.96ZM243.089 375.2H249.489C249.489 393.84 243.089 411.12 222.449 422.72L218.529 418C236.689 407.84 243.089 393.2 243.089 376.48V375.2ZM221.329 375.2H245.329V380.72H221.329V375.2ZM257.409 367.84H263.729V434.72H257.409V367.84ZM327.052 373.12H373.612V378.64H327.052V373.12ZM320.172 422.64H385.532V428.16H320.172V422.64ZM345.532 396.8H352.172V425.36H345.532V396.8ZM371.132 373.12H377.692V380.32C377.692 389.28 377.692 399.2 375.052 413.84L368.412 412.96C371.132 399.12 371.132 388.96 371.132 380.32V373.12ZM393.766 423.6H459.286V429.2H393.766V423.6ZM401.686 371.44H451.206V393.36H408.486V407.84H401.926V388.08H444.646V376.88H401.686V371.44ZM401.926 405.04H452.886V410.48H401.926V405.04ZM519.999 365.92H526.639V438.24H519.999V365.92ZM498.799 373.68H505.359C505.359 394.64 495.919 412.96 471.759 424.8L468.239 419.44C489.119 409.36 498.799 394 498.799 374.8V373.68ZM471.519 373.68H501.679V379.12H471.519V373.68Z" fill="black"/>
<path d="M134.262 316.35H126.262V324.35H134.262V316.35ZM134.262 296.7L128.111 291.584L126.262 293.808V296.7H134.262ZM190.662 228.9V220.9H186.91L184.511 223.784L190.662 228.9ZM220.212 228.9L226.328 234.057L237.423 220.9H220.212V228.9ZM162.912 296.85L156.796 291.693L145.701 304.85H162.912V296.85ZM220.812 296.85V304.85H228.812V296.85H220.812ZM220.812 272.25V264.25H212.812V272.25H220.812ZM244.062 272.25H252.062V264.25H244.062V272.25ZM244.062 296.85H236.062V304.85H244.062V296.85ZM269.262 296.85H277.262V288.85H269.262V296.85ZM269.262 316.35V324.35H277.262V316.35H269.262ZM244.062 316.35V308.35H236.062V316.35H244.062ZM244.062 336V344H252.062V336H244.062ZM220.812 336H212.812V344H220.812V336ZM220.812 316.35H228.812V308.35H220.812V316.35ZM142.262 316.35V296.7H126.262V316.35H142.262ZM140.412 301.816L196.812 234.016L184.511 223.784L128.111 291.584L140.412 301.816ZM190.662 236.9H220.212V220.9H190.662V236.9ZM214.096 223.743L156.796 291.693L169.028 302.007L226.328 234.057L214.096 223.743ZM162.912 304.85H220.812V288.85H162.912V304.85ZM228.812 296.85V272.25H212.812V296.85H228.812ZM220.812 280.25H244.062V264.25H220.812V280.25ZM236.062 272.25V296.85H252.062V272.25H236.062ZM244.062 304.85H269.262V288.85H244.062V304.85ZM261.262 296.85V316.35H277.262V296.85H261.262ZM269.262 308.35H244.062V324.35H269.262V308.35ZM236.062 316.35V336H252.062V316.35H236.062ZM244.062 328H220.812V344H244.062V328ZM228.812 336V316.35H212.812V336H228.812ZM220.812 308.35H134.262V324.35H220.812V308.35ZM331.868 269.92V261.92H323.868V269.92H331.868ZM338.268 269.92H346.268V261.92H338.268V269.92ZM338.268 342.24V350.24H346.268V342.24H338.268ZM331.868 342.24H323.868V350.24H331.868V342.24ZM320.188 298.96V290.96H312.188V298.96H320.188ZM334.028 298.96H342.028V290.96H334.028V298.96ZM334.028 304.4V312.4H342.028V304.4H334.028ZM320.188 304.4H312.188V312.4H320.188V304.4ZM301.468 279.2V271.2H293.468V279.2H301.468ZM307.868 279.2H315.868V271.2H307.868V279.2ZM280.828 326.72L274.674 331.831L278.934 336.961L284.748 333.694L280.828 326.72ZM276.908 322L273.002 315.018L264.61 319.714L270.754 327.111L276.908 322ZM279.708 279.2V271.2H271.708V279.2H279.708ZM303.708 279.2H311.708V271.2H303.708V279.2ZM303.708 284.72V292.72H311.708V284.72H303.708ZM279.708 284.72H271.708V292.72H279.708V284.72ZM315.788 271.84V263.84H307.788V271.84H315.788ZM322.108 271.84H330.108V263.84H322.108V271.84ZM322.108 338.72V346.72H330.108V338.72H322.108ZM315.788 338.72H307.788V346.72H315.788V338.72ZM331.868 277.92H338.268V261.92H331.868V277.92ZM330.268 269.92V342.24H346.268V269.92H330.268ZM338.268 334.24H331.868V350.24H338.268V334.24ZM339.868 342.24V269.92H323.868V342.24H339.868ZM320.188 306.96H334.028V290.96H320.188V306.96ZM326.028 298.96V304.4H342.028V298.96H326.028ZM334.028 296.4H320.188V312.4H334.028V296.4ZM328.188 304.4V298.96H312.188V304.4H328.188ZM301.468 287.2H307.868V271.2H301.468V287.2ZM299.868 279.2C299.868 287.625 298.421 295.262 294.979 301.931C291.577 308.524 285.985 314.645 276.909 319.746L284.748 333.694C296.311 327.195 304.24 318.876 309.197 309.269C314.116 299.738 315.868 289.415 315.868 279.2H299.868ZM286.983 321.609L283.063 316.889L270.754 327.111L274.674 331.831L286.983 321.609ZM280.814 328.982C291.021 323.271 298.32 316.059 303.004 307.562C307.668 299.103 309.468 289.864 309.468 280.48H293.468C293.468 287.816 292.069 294.257 288.992 299.838C285.936 305.381 280.956 310.569 273.002 315.018L280.814 328.982ZM309.468 280.48V279.2H293.468V280.48H309.468ZM279.708 287.2H303.708V271.2H279.708V287.2ZM295.708 279.2V284.72H311.708V279.2H295.708ZM303.708 276.72H279.708V292.72H303.708V276.72ZM287.708 284.72V279.2H271.708V284.72H287.708ZM315.788 279.84H322.108V263.84H315.788V279.84ZM314.108 271.84V338.72H330.108V271.84H314.108ZM322.108 330.72H315.788V346.72H322.108V330.72ZM323.788 338.72V271.84H307.788V338.72H323.788ZM407.831 306.08V298.08H399.831V306.08H407.831ZM414.471 306.08H422.471V298.08H414.471V306.08ZM414.471 318.72V326.72H422.471V318.72H414.471ZM407.831 318.72H399.831V326.72H407.831V318.72ZM378.471 303.76V295.76H370.471V303.76H378.471ZM443.831 303.76H451.831V295.76H443.831V303.76ZM443.831 309.12V317.12H451.831V309.12H443.831ZM378.471 309.12H370.471V317.12H378.471V309.12ZM406.871 275.84V267.84H398.871V275.84H406.871ZM412.791 275.84H420.791V267.84H412.791V275.84ZM384.551 299.36L377.268 302.67L379.698 308.017L385.527 307.3L384.551 299.36ZM382.151 294.08L381.316 286.124L370.273 287.282L374.868 297.39L382.151 294.08ZM409.671 275.84V267.84H401.671V275.84H409.671ZM415.511 275.84H423.511V267.84H415.511V275.84ZM440.231 294.08L447.514 297.39L452.108 287.282L441.066 286.124L440.231 294.08ZM437.831 299.36L436.854 307.3L442.683 308.017L445.114 302.67L437.831 299.36ZM384.471 273.2V265.2H376.471V273.2H384.471ZM437.991 273.2H445.991V265.2H437.991V273.2ZM437.991 278.56V286.56H445.991V278.56H437.991ZM384.471 278.56H376.471V286.56H384.471V278.56ZM407.831 314.08H414.471V298.08H407.831V314.08ZM406.471 306.08V318.72H422.471V306.08H406.471ZM414.471 310.72H407.831V326.72H414.471V310.72ZM415.831 318.72V306.08H399.831V318.72H415.831ZM378.471 311.76H443.831V295.76H378.471V311.76ZM435.831 303.76V309.12H451.831V303.76H435.831ZM443.831 301.12H378.471V317.12H443.831V301.12ZM386.471 309.12V303.76H370.471V309.12H386.471ZM411.111 324.72C418.283 324.72 423.048 325.804 425.713 327.155C428.039 328.334 427.911 329.135 427.911 329.44H443.911C443.911 321.585 439.143 316.026 432.949 312.885C427.093 309.916 419.459 308.72 411.111 308.72V324.72ZM427.911 329.44C427.911 329.672 428.076 330.462 425.726 331.648C423.054 332.997 418.281 334.08 411.111 334.08V350.08C419.461 350.08 427.087 348.883 432.935 345.932C439.106 342.818 443.911 337.288 443.911 329.44H427.911ZM411.111 334.08C403.941 334.08 399.167 332.997 396.495 331.648C394.146 330.462 394.311 329.672 394.311 329.44H378.311C378.311 337.288 383.116 342.818 389.286 345.932C395.134 348.883 402.761 350.08 411.111 350.08V334.08ZM394.311 329.44C394.311 329.135 394.183 328.334 396.509 327.155C399.173 325.804 403.939 324.72 411.111 324.72V308.72C402.763 308.72 395.128 309.916 389.273 312.885C383.079 316.026 378.311 321.585 378.311 329.44H394.311ZM411.111 313.84C405.013 313.84 399.287 314.549 394.776 316.42C390.281 318.285 385.031 322.326 385.031 329.44H401.031C401.031 330.257 400.686 331.004 400.321 331.426C400.072 331.714 400.088 331.539 400.906 331.2C402.615 330.491 405.928 329.84 411.111 329.84V313.84ZM385.031 329.44C385.031 336.571 390.357 340.571 394.796 342.398C399.295 344.25 405.01 344.96 411.111 344.96V328.96C405.932 328.96 402.607 328.31 400.886 327.602C400.058 327.262 400.038 327.084 400.29 327.372C400.66 327.795 401.031 328.566 401.031 329.44H385.031ZM411.111 344.96C417.244 344.96 422.966 344.252 427.464 342.394C431.935 340.548 437.191 336.533 437.191 329.44H421.191C421.191 328.592 421.548 327.827 421.923 327.395C422.181 327.098 422.173 327.269 421.358 327.606C419.655 328.308 416.338 328.96 411.111 328.96V344.96ZM437.191 329.44C437.191 322.364 432.011 318.308 427.484 316.424C422.975 314.547 417.24 313.84 411.111 313.84V329.84C416.341 329.84 419.647 330.493 421.337 331.196C422.143 331.531 422.147 331.7 421.892 331.403C421.522 330.972 421.191 330.231 421.191 329.44H437.191ZM406.871 283.84H412.791V267.84H406.871V283.84ZM404.791 275.84V278H420.791V275.84H404.791ZM404.791 278C404.791 280.43 403.496 283.142 399.679 285.826C395.817 288.542 390.095 290.618 383.574 291.42L385.527 307.3C393.967 306.262 402.365 303.498 408.883 298.914C415.446 294.298 420.791 287.25 420.791 278H404.791ZM391.834 296.05L389.434 290.77L374.868 297.39L377.268 302.67L391.834 296.05ZM382.986 302.036C390.41 301.257 397.799 298.998 403.579 295.424C409.092 292.015 414.871 286.217 414.871 278H398.871C398.871 278.023 398.77 279.585 395.163 281.816C391.822 283.882 386.852 285.543 381.316 286.124L382.986 302.036ZM414.871 278V275.84H398.871V278H414.871ZM409.671 283.84H415.511V267.84H409.671V283.84ZM407.511 275.84V278H423.511V275.84H407.511ZM407.511 278C407.511 286.217 413.29 292.015 418.803 295.424C424.582 298.998 431.972 301.257 439.396 302.036L441.066 286.124C435.53 285.543 430.559 283.882 427.219 281.816C423.612 279.585 423.511 278.023 423.511 278H407.511ZM432.948 290.77L430.548 296.05L445.114 302.67L447.514 297.39L432.948 290.77ZM438.807 291.42C432.289 290.618 426.593 288.544 422.755 285.835C418.967 283.16 417.671 280.45 417.671 278H401.671C401.671 287.23 406.975 294.28 413.527 298.905C420.029 303.496 428.412 306.262 436.854 307.3L438.807 291.42ZM417.671 278V275.84H401.671V278H417.671ZM384.471 281.2H437.991V265.2H384.471V281.2ZM429.991 273.2V278.56H445.991V273.2H429.991ZM437.991 270.56H384.471V286.56H437.991V270.56ZM392.471 278.56V273.2H376.471V278.56H392.471ZM481.425 298V290H473.425V298H481.425ZM495.105 298H503.105V290H495.105V298ZM495.105 303.52V311.52H503.105V303.52H495.105ZM481.425 303.52H473.425V311.52H481.425V303.52ZM507.185 269.92V261.92H499.185V269.92H507.185ZM513.585 269.92H521.585V261.92H513.585V269.92ZM513.585 342.24V350.24H521.585V342.24H513.585ZM507.185 342.24H499.185V350.24H507.185V342.24ZM492.865 271.44V263.44H484.865V271.44H492.865ZM499.185 271.44H507.185V263.44H499.185V271.44ZM499.185 338.64V346.64H507.185V338.64H499.185ZM492.865 338.64H484.865V346.64H492.865V338.64ZM481.425 306H495.105V290H481.425V306ZM487.105 298V303.52H503.105V298H487.105ZM495.105 295.52H481.425V311.52H495.105V295.52ZM489.425 303.52V298H473.425V303.52H489.425ZM507.185 277.92H513.585V261.92H507.185V277.92ZM505.585 269.92V342.24H521.585V269.92H505.585ZM513.585 334.24H507.185V350.24H513.585V334.24ZM515.185 342.24V269.92H499.185V342.24H515.185ZM492.865 279.44H499.185V263.44H492.865V279.44ZM491.185 271.44V338.64H507.185V271.44H491.185ZM499.185 330.64H492.865V346.64H499.185V330.64ZM500.865 338.64V271.44H484.865V338.64H500.865ZM468.385 283.92C469.836 283.92 471.318 284.488 472.806 286.901C474.458 289.579 475.825 294.258 475.825 301.12H491.825C491.825 292.462 490.151 284.541 486.423 278.499C482.531 272.192 476.293 267.92 468.385 267.92V283.92ZM475.825 301.12C475.825 307.982 474.458 312.661 472.806 315.339C471.318 317.752 469.836 318.32 468.385 318.32V334.32C476.293 334.32 482.531 330.048 486.423 323.741C490.151 317.699 491.825 309.778 491.825 301.12H475.825ZM468.385 318.32C466.945 318.32 465.488 317.764 464.017 315.362C462.377 312.684 461.025 307.999 461.025 301.12H445.025C445.025 309.761 446.672 317.676 450.372 323.718C454.241 330.036 460.464 334.32 468.385 334.32V318.32ZM461.025 301.12C461.025 294.241 462.377 289.556 464.017 286.878C465.488 284.476 466.945 283.92 468.385 283.92V267.92C460.464 267.92 454.241 272.204 450.372 278.522C446.672 284.564 445.025 292.479 445.025 301.12H461.025ZM468.385 274.08C461.369 274.08 456.804 278.836 454.425 283.712C452.082 288.514 451.105 294.621 451.105 301.12H467.105C467.105 295.939 467.927 292.526 468.804 290.728C469.645 289.004 469.72 290.08 468.385 290.08V274.08ZM451.105 301.12C451.105 307.619 452.082 313.726 454.425 318.528C456.804 323.404 461.369 328.16 468.385 328.16V312.16C469.72 312.16 469.645 313.236 468.804 311.512C467.927 309.714 467.105 306.301 467.105 301.12H451.105ZM468.385 328.16C475.394 328.16 479.993 323.46 482.406 318.545C484.768 313.734 485.745 307.617 485.745 301.12H469.745C469.745 306.303 468.921 309.706 468.043 311.495C467.216 313.18 467.135 312.16 468.385 312.16V328.16ZM485.745 301.12C485.745 294.623 484.768 288.506 482.406 283.695C479.993 278.78 475.394 274.08 468.385 274.08V290.08C467.135 290.08 467.216 289.06 468.043 290.745C468.921 292.534 469.745 295.937 469.745 301.12H485.745ZM166.487 366V358H158.487V366H166.487ZM173.127 366H181.127V358H173.127V366ZM173.127 420.24V428.24H181.127V420.24H173.127ZM166.487 420.24H158.487V428.24H166.487V420.24ZM171.047 389.68V381.68H163.047V389.68H171.047ZM183.847 389.68H191.847V381.68H183.847V389.68ZM183.847 395.28V403.28H191.847V395.28H183.847ZM171.047 395.28H163.047V403.28H171.047V395.28ZM117.207 374.72V366.72H109.207V374.72H117.207ZM159.927 374.72H167.927V366.72H159.927V374.72ZM159.927 380.08V388.08H167.927V380.08H159.927ZM117.207 380.08H109.207V388.08H117.207V380.08ZM135.207 365.92V357.92H127.207V365.92H135.207ZM141.847 365.92H149.847V357.92H141.847V365.92ZM141.847 377.52V385.52H149.847V377.52H141.847ZM135.207 377.52H127.207V385.52H135.207V377.52ZM128.087 431.2V423.2H120.087V431.2H128.087ZM176.407 431.2H184.407V423.2H176.407V431.2ZM176.407 436.64V444.64H184.407V436.64H176.407ZM128.087 436.64H120.087V444.64H128.087V436.64ZM128.087 415.92V407.92H120.087V415.92H128.087ZM134.727 415.92H142.727V407.92H134.727V415.92ZM134.727 433.52V441.52H142.727V433.52H134.727ZM128.087 433.52H120.087V441.52H128.087V433.52ZM166.487 374H173.127V358H166.487V374ZM165.127 366V420.24H181.127V366H165.127ZM173.127 412.24H166.487V428.24H173.127V412.24ZM174.487 420.24V366H158.487V420.24H174.487ZM171.047 397.68H183.847V381.68H171.047V397.68ZM175.847 389.68V395.28H191.847V389.68H175.847ZM183.847 387.28H171.047V403.28H183.847V387.28ZM179.047 395.28V389.68H163.047V395.28H179.047ZM117.207 382.72H159.927V366.72H117.207V382.72ZM151.927 374.72V380.08H167.927V374.72H151.927ZM159.927 372.08H117.207V388.08H159.927V372.08ZM125.207 380.08V374.72H109.207V380.08H125.207ZM138.567 392.08C142.37 392.08 144.829 393.081 146.141 394.099C147.285 394.987 147.847 396.061 147.847 397.6H163.847C163.847 390.979 160.889 385.293 155.953 381.461C151.185 377.759 145.004 376.08 138.567 376.08V392.08ZM147.847 397.6C147.847 399.073 147.306 400.13 146.154 401.021C144.836 402.039 142.37 403.04 138.567 403.04V419.04C145.004 419.04 151.178 417.361 155.94 413.679C160.867 409.87 163.847 404.207 163.847 397.6H147.847ZM138.567 403.04C134.711 403.04 132.224 402.033 130.9 401.013C129.745 400.123 129.207 399.071 129.207 397.6H113.207C113.207 404.209 116.189 409.877 121.134 413.687C125.91 417.367 132.102 419.04 138.567 419.04V403.04ZM129.207 397.6C129.207 396.063 129.767 394.994 130.913 394.107C132.231 393.087 134.711 392.08 138.567 392.08V376.08C132.103 376.08 125.903 377.753 121.121 381.453C116.167 385.286 113.207 390.977 113.207 397.6H129.207ZM138.567 381.28C134.047 381.28 129.465 382.401 125.797 385.142C121.937 388.027 119.527 392.434 119.527 397.6H135.527C135.527 397.555 135.529 397.666 135.444 397.832C135.364 397.988 135.295 398.019 135.376 397.958C135.589 397.799 136.527 397.28 138.567 397.28V381.28ZM119.527 397.6C119.527 402.769 121.975 407.151 125.819 410.004C129.477 412.719 134.046 413.84 138.567 413.84V397.84C136.528 397.84 135.577 397.321 135.355 397.156C135.269 397.092 135.341 397.124 135.427 397.29C135.52 397.467 135.527 397.604 135.527 397.6H119.527ZM138.567 413.84C143.067 413.84 147.619 412.71 151.261 409.992C155.083 407.14 157.527 402.765 157.527 397.6H141.527C141.527 397.604 141.534 397.47 141.624 397.297C141.708 397.135 141.778 397.105 141.693 397.168C141.475 397.33 140.546 397.84 138.567 397.84V413.84ZM157.527 397.6C157.527 392.438 155.12 388.038 151.282 385.154C147.63 382.41 143.066 381.28 138.567 381.28V397.28C140.547 397.28 141.464 397.79 141.672 397.946C141.752 398.006 141.685 397.977 141.607 397.825C141.525 397.663 141.527 397.555 141.527 397.6H157.527ZM135.207 373.92H141.847V357.92H135.207V373.92ZM133.847 365.92V377.52H149.847V365.92H133.847ZM141.847 369.52H135.207V385.52H141.847V369.52ZM143.207 377.52V365.92H127.207V377.52H143.207ZM128.087 439.2H176.407V423.2H128.087V439.2ZM168.407 431.2V436.64H184.407V431.2H168.407ZM176.407 428.64H128.087V444.64H176.407V428.64ZM136.087 436.64V431.2H120.087V436.64H136.087ZM128.087 423.92H134.727V407.92H128.087V423.92ZM126.727 415.92V433.52H142.727V415.92H126.727ZM134.727 425.52H128.087V441.52H134.727V425.52ZM136.087 433.52V415.92H120.087V433.52H136.087ZM273.489 365.92V357.92H265.489V365.92H273.489ZM279.889 365.92H287.889V357.92H279.889V365.92ZM279.889 438.24V446.24H287.889V438.24H279.889ZM273.489 438.24H265.489V446.24H273.489V438.24ZM261.809 394.96V386.96H253.809V394.96H261.809ZM275.649 394.96H283.649V386.96H275.649V394.96ZM275.649 400.4V408.4H283.649V400.4H275.649ZM261.809 400.4H253.809V408.4H261.809V400.4ZM243.089 375.2V367.2H235.089V375.2H243.089ZM249.489 375.2H257.489V367.2H249.489V375.2ZM222.449 422.72L216.295 427.831L220.556 432.961L226.369 429.694L222.449 422.72ZM218.529 418L214.623 411.018L206.231 415.714L212.375 423.111L218.529 418ZM221.329 375.2V367.2H213.329V375.2H221.329ZM245.329 375.2H253.329V367.2H245.329V375.2ZM245.329 380.72V388.72H253.329V380.72H245.329ZM221.329 380.72H213.329V388.72H221.329V380.72ZM257.409 367.84V359.84H249.409V367.84H257.409ZM263.729 367.84H271.729V359.84H263.729V367.84ZM263.729 434.72V442.72H271.729V434.72H263.729ZM257.409 434.72H249.409V442.72H257.409V434.72ZM273.489 373.92H279.889V357.92H273.489V373.92ZM271.889 365.92V438.24H287.889V365.92H271.889ZM279.889 430.24H273.489V446.24H279.889V430.24ZM281.489 438.24V365.92H265.489V438.24H281.489ZM261.809 402.96H275.649V386.96H261.809V402.96ZM267.649 394.96V400.4H283.649V394.96H267.649ZM275.649 392.4H261.809V408.4H275.649V392.4ZM269.809 400.4V394.96H253.809V400.4H269.809ZM243.089 383.2H249.489V367.2H243.089V383.2ZM241.489 375.2C241.489 383.625 240.042 391.262 236.6 397.931C233.198 404.524 227.607 410.645 218.53 415.746L226.369 429.694C237.932 423.195 245.861 414.876 250.819 405.269C255.737 395.738 257.489 385.415 257.489 375.2H241.489ZM228.604 417.609L224.684 412.889L212.375 423.111L216.295 427.831L228.604 417.609ZM222.435 424.982C232.642 419.271 239.941 412.059 244.625 403.562C249.289 395.103 251.089 385.864 251.089 376.48H235.089C235.089 383.816 233.69 390.257 230.613 395.838C227.557 401.381 222.577 406.569 214.623 411.018L222.435 424.982ZM251.089 376.48V375.2H235.089V376.48H251.089ZM221.329 383.2H245.329V367.2H221.329V383.2ZM237.329 375.2V380.72H253.329V375.2H237.329ZM245.329 372.72H221.329V388.72H245.329V372.72ZM229.329 380.72V375.2H213.329V380.72H229.329ZM257.409 375.84H263.729V359.84H257.409V375.84ZM255.729 367.84V434.72H271.729V367.84H255.729ZM263.729 426.72H257.409V442.72H263.729V426.72ZM265.409 434.72V367.84H249.409V434.72H265.409ZM327.052 373.12V365.12H319.052V373.12H327.052ZM373.612 373.12H381.612V365.12H373.612V373.12ZM373.612 378.64V386.64H381.612V378.64H373.612ZM327.052 378.64H319.052V386.64H327.052V378.64ZM320.172 422.64V414.64H312.172V422.64H320.172ZM385.532 422.64H393.532V414.64H385.532V422.64ZM385.532 428.16V436.16H393.532V428.16H385.532ZM320.172 428.16H312.172V436.16H320.172V428.16ZM345.532 396.8V388.8H337.532V396.8H345.532ZM352.172 396.8H360.172V388.8H352.172V396.8ZM352.172 425.36V433.36H360.172V425.36H352.172ZM345.532 425.36H337.532V433.36H345.532V425.36ZM371.132 373.12V365.12H363.132V373.12H371.132ZM377.692 373.12H385.692V365.12H377.692V373.12ZM375.052 413.84L374.001 421.771L381.57 422.774L382.925 415.26L375.052 413.84ZM368.412 412.96L360.562 411.417L358.92 419.772L367.361 420.891L368.412 412.96ZM327.052 381.12H373.612V365.12H327.052V381.12ZM365.612 373.12V378.64H381.612V373.12H365.612ZM373.612 370.64H327.052V386.64H373.612V370.64ZM335.052 378.64V373.12H319.052V378.64H335.052ZM320.172 430.64H385.532V414.64H320.172V430.64ZM377.532 422.64V428.16H393.532V422.64H377.532ZM385.532 420.16H320.172V436.16H385.532V420.16ZM328.172 428.16V422.64H312.172V428.16H328.172ZM345.532 404.8H352.172V388.8H345.532V404.8ZM344.172 396.8V425.36H360.172V396.8H344.172ZM352.172 417.36H345.532V433.36H352.172V417.36ZM353.532 425.36V396.8H337.532V425.36H353.532ZM371.132 381.12H377.692V365.12H371.132V381.12ZM369.692 373.12V380.32H385.692V373.12H369.692ZM369.692 380.32C369.692 389.158 369.689 398.501 367.179 412.42L382.925 415.26C385.695 399.899 385.692 389.402 385.692 380.32H369.692ZM376.103 405.909L369.463 405.029L367.361 420.891L374.001 421.771L376.103 405.909ZM376.262 414.503C379.139 399.863 379.132 389.056 379.132 380.32H363.132C363.132 388.864 363.125 398.377 360.562 411.417L376.262 414.503ZM379.132 380.32V373.12H363.132V380.32H379.132ZM393.766 423.6V415.6H385.766V423.6H393.766ZM459.286 423.6H467.286V415.6H459.286V423.6ZM459.286 429.2V437.2H467.286V429.2H459.286ZM393.766 429.2H385.766V437.2H393.766V429.2ZM401.686 371.44V363.44H393.686V371.44H401.686ZM451.206 371.44H459.206V363.44H451.206V371.44ZM451.206 393.36V401.36H459.206V393.36H451.206ZM408.486 393.36V385.36H400.486V393.36H408.486ZM408.486 407.84V415.84H416.486V407.84H408.486ZM401.926 407.84H393.926V415.84H401.926V407.84ZM401.926 388.08V380.08H393.926V388.08H401.926ZM444.646 388.08V396.08H452.646V388.08H444.646ZM444.646 376.88H452.646V368.88H444.646V376.88ZM401.686 376.88H393.686V384.88H401.686V376.88ZM401.926 405.04V397.04H393.926V405.04H401.926ZM452.886 405.04H460.886V397.04H452.886V405.04ZM452.886 410.48V418.48H460.886V410.48H452.886ZM401.926 410.48H393.926V418.48H401.926V410.48ZM393.766 431.6H459.286V415.6H393.766V431.6ZM451.286 423.6V429.2H467.286V423.6H451.286ZM459.286 421.2H393.766V437.2H459.286V421.2ZM401.766 429.2V423.6H385.766V429.2H401.766ZM401.686 379.44H451.206V363.44H401.686V379.44ZM443.206 371.44V393.36H459.206V371.44H443.206ZM451.206 385.36H408.486V401.36H451.206V385.36ZM400.486 393.36V407.84H416.486V393.36H400.486ZM408.486 399.84H401.926V415.84H408.486V399.84ZM409.926 407.84V388.08H393.926V407.84H409.926ZM401.926 396.08H444.646V380.08H401.926V396.08ZM452.646 388.08V376.88H436.646V388.08H452.646ZM444.646 368.88H401.686V384.88H444.646V368.88ZM409.686 376.88V371.44H393.686V376.88H409.686ZM401.926 413.04H452.886V397.04H401.926V413.04ZM444.886 405.04V410.48H460.886V405.04H444.886ZM452.886 402.48H401.926V418.48H452.886V402.48ZM409.926 410.48V405.04H393.926V410.48H409.926ZM519.999 365.92V357.92H511.999V365.92H519.999ZM526.639 365.92H534.639V357.92H526.639V365.92ZM526.639 438.24V446.24H534.639V438.24H526.639ZM519.999 438.24H511.999V446.24H519.999V438.24ZM498.799 373.68V365.68H490.799V373.68H498.799ZM505.359 373.68H513.359V365.68H505.359V373.68ZM471.759 424.8L465.072 429.191L468.945 435.088L475.28 431.984L471.759 424.8ZM468.239 419.44L464.761 412.236L456.543 416.203L461.552 423.831L468.239 419.44ZM471.519 373.68V365.68H463.519V373.68H471.519ZM501.679 373.68H509.679V365.68H501.679V373.68ZM501.679 379.12V387.12H509.679V379.12H501.679ZM471.519 379.12H463.519V387.12H471.519V379.12ZM519.999 373.92H526.639V357.92H519.999V373.92ZM518.639 365.92V438.24H534.639V365.92H518.639ZM526.639 430.24H519.999V446.24H526.639V430.24ZM527.999 438.24V365.92H511.999V438.24H527.999ZM498.799 381.68H505.359V365.68H498.799V381.68ZM497.359 373.68C497.359 382.933 495.287 391.237 490.82 398.445C486.355 405.648 479.195 412.247 468.239 417.616L475.28 431.984C488.484 425.513 498.124 417.032 504.419 406.875C510.711 396.723 513.359 385.387 513.359 373.68H497.359ZM478.446 420.409L474.926 415.049L461.552 423.831L465.072 429.191L478.446 420.409ZM471.717 426.644C483.154 421.123 492.012 413.914 497.993 404.996C504.003 396.035 506.799 385.806 506.799 374.8H490.799C490.799 382.994 488.756 390.045 484.705 396.084C480.627 402.166 474.205 407.677 464.761 412.236L471.717 426.644ZM506.799 374.8V373.68H490.799V374.8H506.799ZM471.519 381.68H501.679V365.68H471.519V381.68ZM493.679 373.68V379.12H509.679V373.68H493.679ZM501.679 371.12H471.519V387.12H501.679V371.12ZM479.519 379.12V373.68H463.519V379.12H479.519Z" fill="white" mask="url(#path-1-outside-1_1225_33)"/>
</svg>
