<svg width="600" height="600" viewBox="0 0 600 600" fill="none" xmlns="http://www.w3.org/2000/svg">
<mask id="path-1-outside-1_1225_19" maskUnits="userSpaceOnUse" x="84" y="184" width="426" height="227" fill="black">
<rect fill="white" x="84" y="184" width="426" height="227"/>
<path d="M115.745 300V280.5H198.245C202.045 280.5 204.895 279.45 206.795 277.35C208.695 275.15 209.645 272.15 209.645 268.35C209.645 264.45 208.695 261.4 206.795 259.2C204.895 257 202.045 255.9 198.245 255.9H129.845V236.55H198.095C205.795 236.55 209.645 232.5 209.645 224.4C209.645 216.4 205.795 212.4 198.095 212.4H115.745V192.9H202.595C212.995 192.9 221.045 195.5 226.745 200.7C232.545 205.8 235.445 212.95 235.445 222.15C235.445 227.15 234.495 231.9 232.595 236.4C230.695 240.8 227.545 244.05 223.145 246.15C227.545 248.35 230.695 251.6 232.595 255.9C234.495 260.1 235.445 264.75 235.445 269.85C235.445 278.95 232.545 286.25 226.745 291.75C221.045 297.25 212.995 300 202.595 300H115.745ZM298.885 233.92H305.285V306.24H298.885V233.92ZM287.205 262.96H301.045V268.4H287.205V262.96ZM268.485 243.2H274.885C274.885 261.84 268.485 279.12 247.845 290.72L243.925 286C262.085 275.84 268.485 261.2 268.485 244.48V243.2ZM246.725 243.2H270.725V248.72H246.725V243.2ZM282.805 235.84H289.125V302.72H282.805V235.84ZM374.847 270.08H381.487V282.72H374.847V270.08ZM345.487 267.76H410.847V273.12H345.487V267.76ZM378.127 280.72C393.647 280.72 402.927 285.28 402.927 293.44C402.927 301.52 393.647 306.08 378.127 306.08C362.607 306.08 353.327 301.52 353.327 293.44C353.327 285.28 362.607 280.72 378.127 280.72ZM378.127 285.84C366.847 285.84 360.047 288.56 360.047 293.44C360.047 298.24 366.847 300.96 378.127 300.96C389.487 300.96 396.207 298.24 396.207 293.44C396.207 288.56 389.487 285.84 378.127 285.84ZM373.887 239.84H379.807V242C379.807 253.68 366.527 261.52 351.567 263.36L349.167 258.08C362.127 256.72 373.887 250.24 373.887 242V239.84ZM376.687 239.84H382.527V242C382.527 250.24 394.287 256.72 407.247 258.08L404.847 263.36C389.887 261.52 376.687 253.68 376.687 242V239.84ZM351.487 237.2H405.007V242.56H351.487V237.2ZM448.441 262H462.121V267.52H448.441V262ZM474.201 233.92H480.601V306.24H474.201V233.92ZM459.881 235.44H466.201V302.64H459.881V235.44ZM435.401 239.92C444.761 239.92 450.841 249.6 450.841 265.12C450.841 280.64 444.761 290.32 435.401 290.32C426.041 290.32 420.041 280.64 420.041 265.12C420.041 249.6 426.041 239.92 435.401 239.92ZM435.401 246.08C429.721 246.08 426.121 253.44 426.121 265.12C426.121 276.8 429.721 284.16 435.401 284.16C441.161 284.16 444.761 276.8 444.761 265.12C444.761 253.44 441.161 246.08 435.401 246.08ZM141.487 330H148.127V384.24H141.487V330ZM146.047 353.68H158.847V359.28H146.047V353.68ZM92.2069 338.72H134.927V344.08H92.2069V338.72ZM113.567 348.08C123.807 348.08 130.847 353.44 130.847 361.6C130.847 369.68 123.807 375.04 113.567 375.04C103.247 375.04 96.2069 369.68 96.2069 361.6C96.2069 353.44 103.247 348.08 113.567 348.08ZM113.567 353.28C107.007 353.28 102.527 356.56 102.527 361.6C102.527 366.56 107.007 369.84 113.567 369.84C120.047 369.84 124.527 366.56 124.527 361.6C124.527 356.56 120.047 353.28 113.567 353.28ZM110.207 329.92H116.847V341.52H110.207V329.92ZM103.087 395.2H151.407V400.64H103.087V395.2ZM103.087 379.92H109.727V397.52H103.087V379.92ZM248.489 329.92H254.889V402.24H248.489V329.92ZM236.809 358.96H250.649V364.4H236.809V358.96ZM218.089 339.2H224.489C224.489 357.84 218.089 375.12 197.449 386.72L193.529 382C211.689 371.84 218.089 357.2 218.089 340.48V339.2ZM196.329 339.2H220.329V344.72H196.329V339.2ZM232.409 331.84H238.729V398.72H232.409V331.84ZM302.052 337.12H348.612V342.64H302.052V337.12ZM295.172 386.64H360.532V392.16H295.172V386.64ZM320.532 360.8H327.172V389.36H320.532V360.8ZM346.132 337.12H352.692V344.32C352.692 353.28 352.692 363.2 350.052 377.84L343.412 376.96C346.132 363.12 346.132 352.96 346.132 344.32V337.12ZM368.766 387.6H434.286V393.2H368.766V387.6ZM376.686 335.44H426.206V357.36H383.486V371.84H376.926V352.08H419.646V340.88H376.686V335.44ZM376.926 369.04H427.886V374.48H376.926V369.04ZM494.999 329.92H501.639V402.24H494.999V329.92ZM473.799 337.68H480.359C480.359 358.64 470.919 376.96 446.759 388.8L443.239 383.44C464.119 373.36 473.799 358 473.799 338.8V337.68ZM446.519 337.68H476.679V343.12H446.519V337.68Z"/>
</mask>
<path d="M115.745 300V280.5H198.245C202.045 280.5 204.895 279.45 206.795 277.35C208.695 275.15 209.645 272.15 209.645 268.35C209.645 264.45 208.695 261.4 206.795 259.2C204.895 257 202.045 255.9 198.245 255.9H129.845V236.55H198.095C205.795 236.55 209.645 232.5 209.645 224.4C209.645 216.4 205.795 212.4 198.095 212.4H115.745V192.9H202.595C212.995 192.9 221.045 195.5 226.745 200.7C232.545 205.8 235.445 212.95 235.445 222.15C235.445 227.15 234.495 231.9 232.595 236.4C230.695 240.8 227.545 244.05 223.145 246.15C227.545 248.35 230.695 251.6 232.595 255.9C234.495 260.1 235.445 264.75 235.445 269.85C235.445 278.95 232.545 286.25 226.745 291.75C221.045 297.25 212.995 300 202.595 300H115.745ZM298.885 233.92H305.285V306.24H298.885V233.92ZM287.205 262.96H301.045V268.4H287.205V262.96ZM268.485 243.2H274.885C274.885 261.84 268.485 279.12 247.845 290.72L243.925 286C262.085 275.84 268.485 261.2 268.485 244.48V243.2ZM246.725 243.2H270.725V248.72H246.725V243.2ZM282.805 235.84H289.125V302.72H282.805V235.84ZM374.847 270.08H381.487V282.72H374.847V270.08ZM345.487 267.76H410.847V273.12H345.487V267.76ZM378.127 280.72C393.647 280.72 402.927 285.28 402.927 293.44C402.927 301.52 393.647 306.08 378.127 306.08C362.607 306.08 353.327 301.52 353.327 293.44C353.327 285.28 362.607 280.72 378.127 280.72ZM378.127 285.84C366.847 285.84 360.047 288.56 360.047 293.44C360.047 298.24 366.847 300.96 378.127 300.96C389.487 300.96 396.207 298.24 396.207 293.44C396.207 288.56 389.487 285.84 378.127 285.84ZM373.887 239.84H379.807V242C379.807 253.68 366.527 261.52 351.567 263.36L349.167 258.08C362.127 256.72 373.887 250.24 373.887 242V239.84ZM376.687 239.84H382.527V242C382.527 250.24 394.287 256.72 407.247 258.08L404.847 263.36C389.887 261.52 376.687 253.68 376.687 242V239.84ZM351.487 237.2H405.007V242.56H351.487V237.2ZM448.441 262H462.121V267.52H448.441V262ZM474.201 233.92H480.601V306.24H474.201V233.92ZM459.881 235.44H466.201V302.64H459.881V235.44ZM435.401 239.92C444.761 239.92 450.841 249.6 450.841 265.12C450.841 280.64 444.761 290.32 435.401 290.32C426.041 290.32 420.041 280.64 420.041 265.12C420.041 249.6 426.041 239.92 435.401 239.92ZM435.401 246.08C429.721 246.08 426.121 253.44 426.121 265.12C426.121 276.8 429.721 284.16 435.401 284.16C441.161 284.16 444.761 276.8 444.761 265.12C444.761 253.44 441.161 246.08 435.401 246.08ZM141.487 330H148.127V384.24H141.487V330ZM146.047 353.68H158.847V359.28H146.047V353.68ZM92.2069 338.72H134.927V344.08H92.2069V338.72ZM113.567 348.08C123.807 348.08 130.847 353.44 130.847 361.6C130.847 369.68 123.807 375.04 113.567 375.04C103.247 375.04 96.2069 369.68 96.2069 361.6C96.2069 353.44 103.247 348.08 113.567 348.08ZM113.567 353.28C107.007 353.28 102.527 356.56 102.527 361.6C102.527 366.56 107.007 369.84 113.567 369.84C120.047 369.84 124.527 366.56 124.527 361.6C124.527 356.56 120.047 353.28 113.567 353.28ZM110.207 329.92H116.847V341.52H110.207V329.92ZM103.087 395.2H151.407V400.64H103.087V395.2ZM103.087 379.92H109.727V397.52H103.087V379.92ZM248.489 329.92H254.889V402.24H248.489V329.92ZM236.809 358.96H250.649V364.4H236.809V358.96ZM218.089 339.2H224.489C224.489 357.84 218.089 375.12 197.449 386.72L193.529 382C211.689 371.84 218.089 357.2 218.089 340.48V339.2ZM196.329 339.2H220.329V344.72H196.329V339.2ZM232.409 331.84H238.729V398.72H232.409V331.84ZM302.052 337.12H348.612V342.64H302.052V337.12ZM295.172 386.64H360.532V392.16H295.172V386.64ZM320.532 360.8H327.172V389.36H320.532V360.8ZM346.132 337.12H352.692V344.32C352.692 353.28 352.692 363.2 350.052 377.84L343.412 376.96C346.132 363.12 346.132 352.96 346.132 344.32V337.12ZM368.766 387.6H434.286V393.2H368.766V387.6ZM376.686 335.44H426.206V357.36H383.486V371.84H376.926V352.08H419.646V340.88H376.686V335.44ZM376.926 369.04H427.886V374.48H376.926V369.04ZM494.999 329.92H501.639V402.24H494.999V329.92ZM473.799 337.68H480.359C480.359 358.64 470.919 376.96 446.759 388.8L443.239 383.44C464.119 373.36 473.799 358 473.799 338.8V337.68ZM446.519 337.68H476.679V343.12H446.519V337.68Z" fill="black"/>
<path d="M115.745 300H107.745V308H115.745V300ZM115.745 280.5V272.5H107.745V280.5H115.745ZM206.795 277.35L212.727 282.717L212.789 282.649L212.85 282.579L206.795 277.35ZM206.795 259.2L212.85 253.971L212.85 253.971L206.795 259.2ZM129.845 255.9H121.845V263.9H129.845V255.9ZM129.845 236.55V228.55H121.845V236.55H129.845ZM115.745 212.4H107.745V220.4H115.745V212.4ZM115.745 192.9V184.9H107.745V192.9H115.745ZM226.745 200.7L221.353 206.61L221.407 206.659L221.462 206.708L226.745 200.7ZM232.595 236.4L239.94 239.571L239.952 239.542L239.965 239.512L232.595 236.4ZM223.145 246.15L219.699 238.93L204.922 245.983L219.567 253.305L223.145 246.15ZM232.595 255.9L225.278 259.133L225.292 259.165L225.306 259.197L232.595 255.9ZM226.745 291.75L221.24 285.945L221.215 285.969L221.19 285.993L226.745 291.75ZM123.745 300V280.5H107.745V300H123.745ZM115.745 288.5H198.245V272.5H115.745V288.5ZM198.245 288.5C203.496 288.5 208.842 287.012 212.727 282.717L200.863 271.983C200.842 272.005 200.769 272.094 200.467 272.206C200.119 272.334 199.429 272.5 198.245 272.5V288.5ZM212.85 282.579C216.348 278.528 217.645 273.469 217.645 268.35H201.645C201.645 270.831 201.042 271.772 200.741 272.121L212.85 282.579ZM217.645 268.35C217.645 263.192 216.378 258.057 212.85 253.971L200.741 264.429C201.012 264.743 201.645 265.708 201.645 268.35H217.645ZM212.85 253.971C208.995 249.507 203.609 247.9 198.245 247.9V263.9C199.392 263.9 200.04 264.068 200.352 264.188C200.616 264.29 200.693 264.374 200.741 264.429L212.85 253.971ZM198.245 247.9H129.845V263.9H198.245V247.9ZM137.845 255.9V236.55H121.845V255.9H137.845ZM129.845 244.55H198.095V228.55H129.845V244.55ZM198.095 244.55C203.285 244.55 208.62 243.165 212.556 239.024C216.42 234.959 217.645 229.585 217.645 224.4H201.645C201.645 225.816 201.474 226.74 201.297 227.299C201.131 227.824 200.975 227.984 200.959 228.001C200.952 228.009 200.864 228.114 200.501 228.241C200.095 228.384 199.341 228.55 198.095 228.55V244.55ZM217.645 224.4C217.645 219.242 216.408 213.89 212.522 209.852C208.58 205.757 203.258 204.4 198.095 204.4V220.4C199.35 220.4 200.115 220.566 200.53 220.709C200.904 220.839 200.992 220.946 200.994 220.948C201.002 220.956 201.147 221.099 201.306 221.594C201.476 222.124 201.645 223.017 201.645 224.4H217.645ZM198.095 204.4H115.745V220.4H198.095V204.4ZM123.745 212.4V192.9H107.745V212.4H123.745ZM115.745 200.9H202.595V184.9H115.745V200.9ZM202.595 200.9C211.705 200.9 217.576 203.164 221.353 206.61L232.137 194.79C224.514 187.836 214.286 184.9 202.595 184.9V200.9ZM221.462 206.708C225.204 209.997 227.445 214.768 227.445 222.15H243.445C243.445 211.132 239.887 201.603 232.028 194.692L221.462 206.708ZM227.445 222.15C227.445 226.107 226.699 229.797 225.225 233.288L239.965 239.512C242.291 234.003 243.445 228.193 243.445 222.15H227.445ZM225.251 233.229C224.132 235.819 222.386 237.648 219.699 238.93L226.591 253.37C232.704 250.452 237.258 245.781 239.94 239.571L225.251 233.229ZM219.567 253.305C222.386 254.715 224.167 256.62 225.278 259.133L239.913 252.667C237.223 246.58 232.704 241.985 226.723 238.995L219.567 253.305ZM225.306 259.197C226.69 262.256 227.445 265.765 227.445 269.85H243.445C243.445 263.735 242.3 257.944 239.884 252.603L225.306 259.197ZM227.445 269.85C227.445 277.088 225.221 282.171 221.24 285.945L232.25 297.555C239.87 290.329 243.445 280.812 243.445 269.85H227.445ZM221.19 285.993C217.403 289.648 211.593 292 202.595 292V308C214.397 308 224.688 304.852 232.3 297.507L221.19 285.993ZM202.595 292H115.745V308H202.595V292ZM298.885 233.92V225.92H290.885V233.92H298.885ZM305.285 233.92H313.285V225.92H305.285V233.92ZM305.285 306.24V314.24H313.285V306.24H305.285ZM298.885 306.24H290.885V314.24H298.885V306.24ZM287.205 262.96V254.96H279.205V262.96H287.205ZM301.045 262.96H309.045V254.96H301.045V262.96ZM301.045 268.4V276.4H309.045V268.4H301.045ZM287.205 268.4H279.205V276.4H287.205V268.4ZM268.485 243.2V235.2H260.485V243.2H268.485ZM274.885 243.2H282.885V235.2H274.885V243.2ZM247.845 290.72L241.691 295.831L245.951 300.961L251.764 297.694L247.845 290.72ZM243.925 286L240.019 279.018L231.627 283.714L237.771 291.111L243.925 286ZM246.725 243.2V235.2H238.725V243.2H246.725ZM270.725 243.2H278.725V235.2H270.725V243.2ZM270.725 248.72V256.72H278.725V248.72H270.725ZM246.725 248.72H238.725V256.72H246.725V248.72ZM282.805 235.84V227.84H274.805V235.84H282.805ZM289.125 235.84H297.125V227.84H289.125V235.84ZM289.125 302.72V310.72H297.125V302.72H289.125ZM282.805 302.72H274.805V310.72H282.805V302.72ZM298.885 241.92H305.285V225.92H298.885V241.92ZM297.285 233.92V306.24H313.285V233.92H297.285ZM305.285 298.24H298.885V314.24H305.285V298.24ZM306.885 306.24V233.92H290.885V306.24H306.885ZM287.205 270.96H301.045V254.96H287.205V270.96ZM293.045 262.96V268.4H309.045V262.96H293.045ZM301.045 260.4H287.205V276.4H301.045V260.4ZM295.205 268.4V262.96H279.205V268.4H295.205ZM268.485 251.2H274.885V235.2H268.485V251.2ZM266.885 243.2C266.885 251.625 265.437 259.262 261.996 265.931C258.594 272.524 253.002 278.645 243.925 283.746L251.764 297.694C263.328 291.195 271.256 282.876 276.214 273.269C281.132 263.738 282.885 253.415 282.885 243.2H266.885ZM253.999 285.609L250.079 280.889L237.771 291.111L241.691 295.831L253.999 285.609ZM247.831 292.982C258.038 287.271 265.337 280.059 270.021 271.562C274.684 263.103 276.485 253.864 276.485 244.48H260.485C260.485 251.816 259.086 258.257 256.009 263.838C252.953 269.381 247.972 274.569 240.019 279.018L247.831 292.982ZM276.485 244.48V243.2H260.485V244.48H276.485ZM246.725 251.2H270.725V235.2H246.725V251.2ZM262.725 243.2V248.72H278.725V243.2H262.725ZM270.725 240.72H246.725V256.72H270.725V240.72ZM254.725 248.72V243.2H238.725V248.72H254.725ZM282.805 243.84H289.125V227.84H282.805V243.84ZM281.125 235.84V302.72H297.125V235.84H281.125ZM289.125 294.72H282.805V310.72H289.125V294.72ZM290.805 302.72V235.84H274.805V302.72H290.805ZM374.847 270.08V262.08H366.847V270.08H374.847ZM381.487 270.08H389.487V262.08H381.487V270.08ZM381.487 282.72V290.72H389.487V282.72H381.487ZM374.847 282.72H366.847V290.72H374.847V282.72ZM345.487 267.76V259.76H337.487V267.76H345.487ZM410.847 267.76H418.847V259.76H410.847V267.76ZM410.847 273.12V281.12H418.847V273.12H410.847ZM345.487 273.12H337.487V281.12H345.487V273.12ZM373.887 239.84V231.84H365.887V239.84H373.887ZM379.807 239.84H387.807V231.84H379.807V239.84ZM351.567 263.36L344.284 266.67L346.715 272.017L352.544 271.3L351.567 263.36ZM349.167 258.08L348.332 250.124L337.29 251.282L341.884 261.39L349.167 258.08ZM376.687 239.84V231.84H368.687V239.84H376.687ZM382.527 239.84H390.527V231.84H382.527V239.84ZM407.247 258.08L414.53 261.39L419.125 251.282L408.082 250.124L407.247 258.08ZM404.847 263.36L403.871 271.3L409.7 272.017L412.13 266.67L404.847 263.36ZM351.487 237.2V229.2H343.487V237.2H351.487ZM405.007 237.2H413.007V229.2H405.007V237.2ZM405.007 242.56V250.56H413.007V242.56H405.007ZM351.487 242.56H343.487V250.56H351.487V242.56ZM374.847 278.08H381.487V262.08H374.847V278.08ZM373.487 270.08V282.72H389.487V270.08H373.487ZM381.487 274.72H374.847V290.72H381.487V274.72ZM382.847 282.72V270.08H366.847V282.72H382.847ZM345.487 275.76H410.847V259.76H345.487V275.76ZM402.847 267.76V273.12H418.847V267.76H402.847ZM410.847 265.12H345.487V281.12H410.847V265.12ZM353.487 273.12V267.76H337.487V273.12H353.487ZM378.127 288.72C385.3 288.72 390.065 289.804 392.73 291.155C395.055 292.334 394.927 293.135 394.927 293.44H410.927C410.927 285.585 406.16 280.026 399.965 276.885C394.11 273.916 386.475 272.72 378.127 272.72V288.72ZM394.927 293.44C394.927 293.672 395.092 294.462 392.743 295.648C390.071 296.997 385.297 298.08 378.127 298.08V314.08C386.477 314.08 394.104 312.883 399.952 309.932C406.122 306.818 410.927 301.288 410.927 293.44H394.927ZM378.127 298.08C370.957 298.08 366.184 296.997 363.512 295.648C361.162 294.462 361.327 293.672 361.327 293.44H345.327C345.327 301.288 350.132 306.818 356.303 309.932C362.151 312.883 369.777 314.08 378.127 314.08V298.08ZM361.327 293.44C361.327 293.135 361.2 292.334 363.525 291.155C366.19 289.804 370.955 288.72 378.127 288.72V272.72C369.78 272.72 362.145 273.916 356.29 276.885C350.095 280.026 345.327 285.585 345.327 293.44H361.327ZM378.127 277.84C372.03 277.84 366.303 278.549 361.792 280.42C357.297 282.285 352.047 286.326 352.047 293.44H368.047C368.047 294.257 367.703 295.004 367.338 295.426C367.089 295.714 367.105 295.539 367.922 295.2C369.631 294.491 372.945 293.84 378.127 293.84V277.84ZM352.047 293.44C352.047 300.571 357.374 304.571 361.813 306.398C366.312 308.25 372.027 308.96 378.127 308.96V292.96C372.948 292.96 369.623 292.31 367.902 291.602C367.075 291.262 367.055 291.084 367.307 291.372C367.677 291.795 368.047 292.566 368.047 293.44H352.047ZM378.127 308.96C384.26 308.96 389.983 308.252 394.481 306.394C398.951 304.548 404.207 300.533 404.207 293.44H388.207C388.207 292.592 388.564 291.827 388.939 291.395C389.197 291.098 389.189 291.269 388.374 291.606C386.672 292.308 383.354 292.96 378.127 292.96V308.96ZM404.207 293.44C404.207 286.364 399.028 282.308 394.501 280.424C389.991 278.547 384.257 277.84 378.127 277.84V293.84C383.358 293.84 386.663 294.493 388.354 295.196C389.159 295.531 389.163 295.7 388.908 295.403C388.538 294.972 388.207 294.231 388.207 293.44H404.207ZM373.887 247.84H379.807V231.84H373.887V247.84ZM371.807 239.84V242H387.807V239.84H371.807ZM371.807 242C371.807 244.43 370.513 247.142 366.695 249.826C362.833 252.542 357.111 254.618 350.591 255.42L352.544 271.3C360.984 270.262 369.382 267.498 375.899 262.914C382.462 258.298 387.807 251.25 387.807 242H371.807ZM358.85 260.05L356.45 254.77L341.884 261.39L344.284 266.67L358.85 260.05ZM350.002 266.036C357.426 265.257 364.816 262.998 370.595 259.424C376.108 256.015 381.887 250.217 381.887 242H365.887C365.887 242.023 365.787 243.585 362.18 245.816C358.839 247.882 353.868 249.543 348.332 250.124L350.002 266.036ZM381.887 242V239.84H365.887V242H381.887ZM376.687 247.84H382.527V231.84H376.687V247.84ZM374.527 239.84V242H390.527V239.84H374.527ZM374.527 242C374.527 250.217 380.307 256.015 385.82 259.424C391.599 262.998 398.988 265.257 406.412 266.036L408.082 250.124C402.546 249.543 397.576 247.882 394.235 245.816C390.628 243.585 390.527 242.023 390.527 242H374.527ZM399.964 254.77L397.564 260.05L412.13 266.67L414.53 261.39L399.964 254.77ZM405.824 255.42C399.306 254.618 393.609 252.544 389.771 249.835C385.984 247.16 384.687 244.45 384.687 242H368.687C368.687 251.23 373.991 258.28 380.543 262.905C387.045 267.496 395.429 270.262 403.871 271.3L405.824 255.42ZM384.687 242V239.84H368.687V242H384.687ZM351.487 245.2H405.007V229.2H351.487V245.2ZM397.007 237.2V242.56H413.007V237.2H397.007ZM405.007 234.56H351.487V250.56H405.007V234.56ZM359.487 242.56V237.2H343.487V242.56H359.487ZM448.441 262V254H440.441V262H448.441ZM462.121 262H470.121V254H462.121V262ZM462.121 267.52V275.52H470.121V267.52H462.121ZM448.441 267.52H440.441V275.52H448.441V267.52ZM474.201 233.92V225.92H466.201V233.92H474.201ZM480.601 233.92H488.601V225.92H480.601V233.92ZM480.601 306.24V314.24H488.601V306.24H480.601ZM474.201 306.24H466.201V314.24H474.201V306.24ZM459.881 235.44V227.44H451.881V235.44H459.881ZM466.201 235.44H474.201V227.44H466.201V235.44ZM466.201 302.64V310.64H474.201V302.64H466.201ZM459.881 302.64H451.881V310.64H459.881V302.64ZM448.441 270H462.121V254H448.441V270ZM454.121 262V267.52H470.121V262H454.121ZM462.121 259.52H448.441V275.52H462.121V259.52ZM456.441 267.52V262H440.441V267.52H456.441ZM474.201 241.92H480.601V225.92H474.201V241.92ZM472.601 233.92V306.24H488.601V233.92H472.601ZM480.601 298.24H474.201V314.24H480.601V298.24ZM482.201 306.24V233.92H466.201V306.24H482.201ZM459.881 243.44H466.201V227.44H459.881V243.44ZM458.201 235.44V302.64H474.201V235.44H458.201ZM466.201 294.64H459.881V310.64H466.201V294.64ZM467.881 302.64V235.44H451.881V302.64H467.881ZM435.401 247.92C436.852 247.92 438.334 248.488 439.823 250.901C441.475 253.579 442.841 258.258 442.841 265.12H458.841C458.841 256.462 457.167 248.541 453.44 242.499C449.548 236.192 443.31 231.92 435.401 231.92V247.92ZM442.841 265.12C442.841 271.982 441.475 276.661 439.823 279.339C438.334 281.752 436.852 282.32 435.401 282.32V298.32C443.31 298.32 449.548 294.048 453.44 287.741C457.167 281.699 458.841 273.778 458.841 265.12H442.841ZM435.401 282.32C433.961 282.32 432.504 281.764 431.034 279.362C429.394 276.684 428.041 271.999 428.041 265.12H412.041C412.041 273.761 413.689 281.676 417.389 287.718C421.258 294.036 427.481 298.32 435.401 298.32V282.32ZM428.041 265.12C428.041 258.241 429.394 253.556 431.034 250.878C432.504 248.476 433.961 247.92 435.401 247.92V231.92C427.481 231.92 421.258 236.204 417.389 242.522C413.689 248.564 412.041 256.479 412.041 265.12H428.041ZM435.401 238.08C428.386 238.08 423.82 242.836 421.441 247.712C419.099 252.514 418.121 258.621 418.121 265.12H434.121C434.121 259.939 434.944 256.526 435.821 254.728C436.662 253.004 436.737 254.08 435.401 254.08V238.08ZM418.121 265.12C418.121 271.619 419.099 277.726 421.441 282.528C423.82 287.404 428.386 292.16 435.401 292.16V276.16C436.737 276.16 436.662 277.236 435.821 275.512C434.944 273.714 434.121 270.301 434.121 265.12H418.121ZM435.401 292.16C442.411 292.16 447.01 287.46 449.422 282.545C451.784 277.734 452.761 271.617 452.761 265.12H436.761C436.761 270.303 435.938 273.706 435.06 275.495C434.232 277.18 434.151 276.16 435.401 276.16V292.16ZM452.761 265.12C452.761 258.623 451.784 252.506 449.422 247.695C447.01 242.78 442.411 238.08 435.401 238.08V254.08C434.151 254.08 434.232 253.06 435.06 254.745C435.938 256.534 436.761 259.937 436.761 265.12H452.761ZM141.487 330V322H133.487V330H141.487ZM148.127 330H156.127V322H148.127V330ZM148.127 384.24V392.24H156.127V384.24H148.127ZM141.487 384.24H133.487V392.24H141.487V384.24ZM146.047 353.68V345.68H138.047V353.68H146.047ZM158.847 353.68H166.847V345.68H158.847V353.68ZM158.847 359.28V367.28H166.847V359.28H158.847ZM146.047 359.28H138.047V367.28H146.047V359.28ZM92.2069 338.72V330.72H84.2069V338.72H92.2069ZM134.927 338.72H142.927V330.72H134.927V338.72ZM134.927 344.08V352.08H142.927V344.08H134.927ZM92.2069 344.08H84.2069V352.08H92.2069V344.08ZM110.207 329.92V321.92H102.207V329.92H110.207ZM116.847 329.92H124.847V321.92H116.847V329.92ZM116.847 341.52V349.52H124.847V341.52H116.847ZM110.207 341.52H102.207V349.52H110.207V341.52ZM103.087 395.2V387.2H95.0869V395.2H103.087ZM151.407 395.2H159.407V387.2H151.407V395.2ZM151.407 400.64V408.64H159.407V400.64H151.407ZM103.087 400.64H95.0869V408.64H103.087V400.64ZM103.087 379.92V371.92H95.0869V379.92H103.087ZM109.727 379.92H117.727V371.92H109.727V379.92ZM109.727 397.52V405.52H117.727V397.52H109.727ZM103.087 397.52H95.0869V405.52H103.087V397.52ZM141.487 338H148.127V322H141.487V338ZM140.127 330V384.24H156.127V330H140.127ZM148.127 376.24H141.487V392.24H148.127V376.24ZM149.487 384.24V330H133.487V384.24H149.487ZM146.047 361.68H158.847V345.68H146.047V361.68ZM150.847 353.68V359.28H166.847V353.68H150.847ZM158.847 351.28H146.047V367.28H158.847V351.28ZM154.047 359.28V353.68H138.047V359.28H154.047ZM92.2069 346.72H134.927V330.72H92.2069V346.72ZM126.927 338.72V344.08H142.927V338.72H126.927ZM134.927 336.08H92.2069V352.08H134.927V336.08ZM100.207 344.08V338.72H84.2069V344.08H100.207ZM113.567 356.08C117.37 356.08 119.829 357.081 121.141 358.099C122.285 358.987 122.847 360.061 122.847 361.6H138.847C138.847 354.979 135.889 349.293 130.953 345.461C126.185 341.759 120.004 340.08 113.567 340.08V356.08ZM122.847 361.6C122.847 363.073 122.306 364.13 121.154 365.021C119.836 366.039 117.37 367.04 113.567 367.04V383.04C120.004 383.04 126.178 381.361 130.94 377.679C135.867 373.87 138.847 368.207 138.847 361.6H122.847ZM113.567 367.04C109.711 367.04 107.224 366.033 105.9 365.013C104.745 364.123 104.207 363.071 104.207 361.6H88.2069C88.2069 368.209 91.1887 373.877 96.1342 377.687C100.91 381.367 107.102 383.04 113.567 383.04V367.04ZM104.207 361.6C104.207 360.063 104.767 358.994 105.913 358.107C107.231 357.087 109.711 356.08 113.567 356.08V340.08C107.103 340.08 100.903 341.753 96.1212 345.453C91.167 349.286 88.2069 354.977 88.2069 361.6H104.207ZM113.567 345.28C109.047 345.28 104.465 346.401 100.797 349.142C96.9375 352.027 94.5269 356.434 94.5269 361.6H110.527C110.527 361.555 110.529 361.666 110.444 361.832C110.364 361.988 110.295 362.019 110.376 361.958C110.589 361.799 111.527 361.28 113.567 361.28V345.28ZM94.5269 361.6C94.5269 366.769 96.9749 371.151 100.819 374.004C104.477 376.719 109.046 377.84 113.567 377.84V361.84C111.528 361.84 110.577 361.321 110.355 361.156C110.269 361.092 110.341 361.124 110.427 361.29C110.52 361.467 110.527 361.604 110.527 361.6H94.5269ZM113.567 377.84C118.067 377.84 122.619 376.71 126.261 373.992C130.083 371.14 132.527 366.765 132.527 361.6H116.527C116.527 361.604 116.534 361.47 116.624 361.297C116.708 361.135 116.778 361.105 116.693 361.168C116.475 361.33 115.546 361.84 113.567 361.84V377.84ZM132.527 361.6C132.527 356.438 130.12 352.038 126.282 349.154C122.63 346.41 118.066 345.28 113.567 345.28V361.28C115.547 361.28 116.464 361.79 116.672 361.946C116.752 362.006 116.685 361.977 116.607 361.825C116.525 361.663 116.527 361.555 116.527 361.6H132.527ZM110.207 337.92H116.847V321.92H110.207V337.92ZM108.847 329.92V341.52H124.847V329.92H108.847ZM116.847 333.52H110.207V349.52H116.847V333.52ZM118.207 341.52V329.92H102.207V341.52H118.207ZM103.087 403.2H151.407V387.2H103.087V403.2ZM143.407 395.2V400.64H159.407V395.2H143.407ZM151.407 392.64H103.087V408.64H151.407V392.64ZM111.087 400.64V395.2H95.0869V400.64H111.087ZM103.087 387.92H109.727V371.92H103.087V387.92ZM101.727 379.92V397.52H117.727V379.92H101.727ZM109.727 389.52H103.087V405.52H109.727V389.52ZM111.087 397.52V379.92H95.0869V397.52H111.087ZM248.489 329.92V321.92H240.489V329.92H248.489ZM254.889 329.92H262.889V321.92H254.889V329.92ZM254.889 402.24V410.24H262.889V402.24H254.889ZM248.489 402.24H240.489V410.24H248.489V402.24ZM236.809 358.96V350.96H228.809V358.96H236.809ZM250.649 358.96H258.649V350.96H250.649V358.96ZM250.649 364.4V372.4H258.649V364.4H250.649ZM236.809 364.4H228.809V372.4H236.809V364.4ZM218.089 339.2V331.2H210.089V339.2H218.089ZM224.489 339.2H232.489V331.2H224.489V339.2ZM197.449 386.72L191.295 391.831L195.556 396.961L201.369 393.694L197.449 386.72ZM193.529 382L189.623 375.018L181.231 379.714L187.375 387.111L193.529 382ZM196.329 339.2V331.2H188.329V339.2H196.329ZM220.329 339.2H228.329V331.2H220.329V339.2ZM220.329 344.72V352.72H228.329V344.72H220.329ZM196.329 344.72H188.329V352.72H196.329V344.72ZM232.409 331.84V323.84H224.409V331.84H232.409ZM238.729 331.84H246.729V323.84H238.729V331.84ZM238.729 398.72V406.72H246.729V398.72H238.729ZM232.409 398.72H224.409V406.72H232.409V398.72ZM248.489 337.92H254.889V321.92H248.489V337.92ZM246.889 329.92V402.24H262.889V329.92H246.889ZM254.889 394.24H248.489V410.24H254.889V394.24ZM256.489 402.24V329.92H240.489V402.24H256.489ZM236.809 366.96H250.649V350.96H236.809V366.96ZM242.649 358.96V364.4H258.649V358.96H242.649ZM250.649 356.4H236.809V372.4H250.649V356.4ZM244.809 364.4V358.96H228.809V364.4H244.809ZM218.089 347.2H224.489V331.2H218.089V347.2ZM216.489 339.2C216.489 347.625 215.042 355.262 211.6 361.931C208.198 368.524 202.607 374.645 193.53 379.746L201.369 393.694C212.932 387.195 220.861 378.876 225.819 369.269C230.737 359.738 232.489 349.415 232.489 339.2H216.489ZM203.604 381.609L199.684 376.889L187.375 387.111L191.295 391.831L203.604 381.609ZM197.435 388.982C207.642 383.271 214.941 376.059 219.625 367.562C224.289 359.103 226.089 349.864 226.089 340.48H210.089C210.089 347.816 208.69 354.257 205.613 359.838C202.557 365.381 197.577 370.569 189.623 375.018L197.435 388.982ZM226.089 340.48V339.2H210.089V340.48H226.089ZM196.329 347.2H220.329V331.2H196.329V347.2ZM212.329 339.2V344.72H228.329V339.2H212.329ZM220.329 336.72H196.329V352.72H220.329V336.72ZM204.329 344.72V339.2H188.329V344.72H204.329ZM232.409 339.84H238.729V323.84H232.409V339.84ZM230.729 331.84V398.72H246.729V331.84H230.729ZM238.729 390.72H232.409V406.72H238.729V390.72ZM240.409 398.72V331.84H224.409V398.72H240.409ZM302.052 337.12V329.12H294.052V337.12H302.052ZM348.612 337.12H356.612V329.12H348.612V337.12ZM348.612 342.64V350.64H356.612V342.64H348.612ZM302.052 342.64H294.052V350.64H302.052V342.64ZM295.172 386.64V378.64H287.172V386.64H295.172ZM360.532 386.64H368.532V378.64H360.532V386.64ZM360.532 392.16V400.16H368.532V392.16H360.532ZM295.172 392.16H287.172V400.16H295.172V392.16ZM320.532 360.8V352.8H312.532V360.8H320.532ZM327.172 360.8H335.172V352.8H327.172V360.8ZM327.172 389.36V397.36H335.172V389.36H327.172ZM320.532 389.36H312.532V397.36H320.532V389.36ZM346.132 337.12V329.12H338.132V337.12H346.132ZM352.692 337.12H360.692V329.12H352.692V337.12ZM350.052 377.84L349.001 385.771L356.57 386.774L357.925 379.26L350.052 377.84ZM343.412 376.96L335.562 375.417L333.92 383.772L342.361 384.891L343.412 376.96ZM302.052 345.12H348.612V329.12H302.052V345.12ZM340.612 337.12V342.64H356.612V337.12H340.612ZM348.612 334.64H302.052V350.64H348.612V334.64ZM310.052 342.64V337.12H294.052V342.64H310.052ZM295.172 394.64H360.532V378.64H295.172V394.64ZM352.532 386.64V392.16H368.532V386.64H352.532ZM360.532 384.16H295.172V400.16H360.532V384.16ZM303.172 392.16V386.64H287.172V392.16H303.172ZM320.532 368.8H327.172V352.8H320.532V368.8ZM319.172 360.8V389.36H335.172V360.8H319.172ZM327.172 381.36H320.532V397.36H327.172V381.36ZM328.532 389.36V360.8H312.532V389.36H328.532ZM346.132 345.12H352.692V329.12H346.132V345.12ZM344.692 337.12V344.32H360.692V337.12H344.692ZM344.692 344.32C344.692 353.158 344.689 362.501 342.179 376.42L357.925 379.26C360.695 363.899 360.692 353.402 360.692 344.32H344.692ZM351.103 369.909L344.463 369.029L342.361 384.891L349.001 385.771L351.103 369.909ZM351.262 378.503C354.139 363.863 354.132 353.056 354.132 344.32H338.132C338.132 352.864 338.125 362.377 335.562 375.417L351.262 378.503ZM354.132 344.32V337.12H338.132V344.32H354.132ZM368.766 387.6V379.6H360.766V387.6H368.766ZM434.286 387.6H442.286V379.6H434.286V387.6ZM434.286 393.2V401.2H442.286V393.2H434.286ZM368.766 393.2H360.766V401.2H368.766V393.2ZM376.686 335.44V327.44H368.686V335.44H376.686ZM426.206 335.44H434.206V327.44H426.206V335.44ZM426.206 357.36V365.36H434.206V357.36H426.206ZM383.486 357.36V349.36H375.486V357.36H383.486ZM383.486 371.84V379.84H391.486V371.84H383.486ZM376.926 371.84H368.926V379.84H376.926V371.84ZM376.926 352.08V344.08H368.926V352.08H376.926ZM419.646 352.08V360.08H427.646V352.08H419.646ZM419.646 340.88H427.646V332.88H419.646V340.88ZM376.686 340.88H368.686V348.88H376.686V340.88ZM376.926 369.04V361.04H368.926V369.04H376.926ZM427.886 369.04H435.886V361.04H427.886V369.04ZM427.886 374.48V382.48H435.886V374.48H427.886ZM376.926 374.48H368.926V382.48H376.926V374.48ZM368.766 395.6H434.286V379.6H368.766V395.6ZM426.286 387.6V393.2H442.286V387.6H426.286ZM434.286 385.2H368.766V401.2H434.286V385.2ZM376.766 393.2V387.6H360.766V393.2H376.766ZM376.686 343.44H426.206V327.44H376.686V343.44ZM418.206 335.44V357.36H434.206V335.44H418.206ZM426.206 349.36H383.486V365.36H426.206V349.36ZM375.486 357.36V371.84H391.486V357.36H375.486ZM383.486 363.84H376.926V379.84H383.486V363.84ZM384.926 371.84V352.08H368.926V371.84H384.926ZM376.926 360.08H419.646V344.08H376.926V360.08ZM427.646 352.08V340.88H411.646V352.08H427.646ZM419.646 332.88H376.686V348.88H419.646V332.88ZM384.686 340.88V335.44H368.686V340.88H384.686ZM376.926 377.04H427.886V361.04H376.926V377.04ZM419.886 369.04V374.48H435.886V369.04H419.886ZM427.886 366.48H376.926V382.48H427.886V366.48ZM384.926 374.48V369.04H368.926V374.48H384.926ZM494.999 329.92V321.92H486.999V329.92H494.999ZM501.639 329.92H509.639V321.92H501.639V329.92ZM501.639 402.24V410.24H509.639V402.24H501.639ZM494.999 402.24H486.999V410.24H494.999V402.24ZM473.799 337.68V329.68H465.799V337.68H473.799ZM480.359 337.68H488.359V329.68H480.359V337.68ZM446.759 388.8L440.072 393.191L443.945 399.088L450.28 395.984L446.759 388.8ZM443.239 383.44L439.761 376.236L431.543 380.203L436.552 387.831L443.239 383.44ZM446.519 337.68V329.68H438.519V337.68H446.519ZM476.679 337.68H484.679V329.68H476.679V337.68ZM476.679 343.12V351.12H484.679V343.12H476.679ZM446.519 343.12H438.519V351.12H446.519V343.12ZM494.999 337.92H501.639V321.92H494.999V337.92ZM493.639 329.92V402.24H509.639V329.92H493.639ZM501.639 394.24H494.999V410.24H501.639V394.24ZM502.999 402.24V329.92H486.999V402.24H502.999ZM473.799 345.68H480.359V329.68H473.799V345.68ZM472.359 337.68C472.359 346.933 470.287 355.237 465.82 362.445C461.355 369.648 454.195 376.247 443.239 381.616L450.28 395.984C463.484 389.513 473.124 381.032 479.419 370.875C485.711 360.723 488.359 349.387 488.359 337.68H472.359ZM453.446 384.409L449.926 379.049L436.552 387.831L440.072 393.191L453.446 384.409ZM446.717 390.644C458.154 385.123 467.012 377.914 472.993 368.996C479.003 360.035 481.799 349.806 481.799 338.8H465.799C465.799 346.994 463.756 354.045 459.705 360.084C455.627 366.166 449.205 371.677 439.761 376.236L446.717 390.644ZM481.799 338.8V337.68H465.799V338.8H481.799ZM446.519 345.68H476.679V329.68H446.519V345.68ZM468.679 337.68V343.12H484.679V337.68H468.679ZM476.679 335.12H446.519V351.12H476.679V335.12ZM454.519 343.12V337.68H438.519V343.12H454.519Z" fill="white" mask="url(#path-1-outside-1_1225_19)"/>
</svg>
