<svg width="651" height="650" viewBox="0 0 651 650" fill="none" xmlns="http://www.w3.org/2000/svg">
<mask id="path-1-outside-1_1225_44" maskUnits="userSpaceOnUse" x="109.781" y="209" width="426" height="227" fill="black">
<rect fill="white" x="109.781" y="209" width="426" height="227"/>
<path d="M141.526 325V293.2C141.526 283.2 144.326 275.45 149.926 269.95C155.526 264.45 163.676 261.7 174.376 261.7H223.726C233.226 261.7 237.976 257.65 237.976 249.55C237.976 241.45 233.226 237.4 223.726 237.4H143.926V217.9H228.376C238.776 217.9 246.826 220.7 252.526 226.3C258.326 231.9 261.226 239.65 261.226 249.55C261.226 259.45 258.326 267.2 252.526 272.8C246.826 278.4 238.776 281.2 228.376 281.2H177.676C173.376 281.2 170.126 282.3 167.926 284.5C165.826 286.6 164.776 289.6 164.776 293.5V305.65H258.376V325H141.526ZM324.666 258.92H331.066V331.24H324.666V258.92ZM312.986 287.96H326.826V293.4H312.986V287.96ZM294.266 268.2H300.666C300.666 286.84 294.266 304.12 273.626 315.72L269.706 311C287.866 300.84 294.266 286.2 294.266 269.48V268.2ZM272.506 268.2H296.506V273.72H272.506V268.2ZM308.586 260.84H314.906V327.72H308.586V260.84ZM400.629 295.08H407.269V307.72H400.629V295.08ZM371.269 292.76H436.629V298.12H371.269V292.76ZM403.909 305.72C419.429 305.72 428.709 310.28 428.709 318.44C428.709 326.52 419.429 331.08 403.909 331.08C388.389 331.08 379.109 326.52 379.109 318.44C379.109 310.28 388.389 305.72 403.909 305.72ZM403.909 310.84C392.629 310.84 385.829 313.56 385.829 318.44C385.829 323.24 392.629 325.96 403.909 325.96C415.269 325.96 421.989 323.24 421.989 318.44C421.989 313.56 415.269 310.84 403.909 310.84ZM399.669 264.84H405.589V267C405.589 278.68 392.309 286.52 377.349 288.36L374.949 283.08C387.909 281.72 399.669 275.24 399.669 267V264.84ZM402.469 264.84H408.309V267C408.309 275.24 420.069 281.72 433.029 283.08L430.629 288.36C415.669 286.52 402.469 278.68 402.469 267V264.84ZM377.269 262.2H430.789V267.56H377.269V262.2ZM474.222 287H487.902V292.52H474.222V287ZM499.982 258.92H506.382V331.24H499.982V258.92ZM485.662 260.44H491.982V327.64H485.662V260.44ZM461.182 264.92C470.542 264.92 476.622 274.6 476.622 290.12C476.622 305.64 470.542 315.32 461.182 315.32C451.822 315.32 445.822 305.64 445.822 290.12C445.822 274.6 451.822 264.92 461.182 264.92ZM461.182 271.08C455.502 271.08 451.902 278.44 451.902 290.12C451.902 301.8 455.502 309.16 461.182 309.16C466.942 309.16 470.542 301.8 470.542 290.12C470.542 278.44 466.942 271.08 461.182 271.08ZM167.268 355H173.908V409.24H167.268V355ZM171.828 378.68H184.628V384.28H171.828V378.68ZM117.988 363.72H160.708V369.08H117.988V363.72ZM139.348 373.08C149.588 373.08 156.628 378.44 156.628 386.6C156.628 394.68 149.588 400.04 139.348 400.04C129.028 400.04 121.988 394.68 121.988 386.6C121.988 378.44 129.028 373.08 139.348 373.08ZM139.348 378.28C132.788 378.28 128.308 381.56 128.308 386.6C128.308 391.56 132.788 394.84 139.348 394.84C145.828 394.84 150.308 391.56 150.308 386.6C150.308 381.56 145.828 378.28 139.348 378.28ZM135.988 354.92H142.628V366.52H135.988V354.92ZM128.868 420.2H177.188V425.64H128.868V420.2ZM128.868 404.92H135.508V422.52H128.868V404.92ZM274.271 354.92H280.671V427.24H274.271V354.92ZM262.591 383.96H276.431V389.4H262.591V383.96ZM243.871 364.2H250.271C250.271 382.84 243.871 400.12 223.231 411.72L219.311 407C237.471 396.84 243.871 382.2 243.871 365.48V364.2ZM222.111 364.2H246.111V369.72H222.111V364.2ZM258.191 356.84H264.511V423.72H258.191V356.84ZM327.833 362.12H374.393V367.64H327.833V362.12ZM320.953 411.64H386.313V417.16H320.953V411.64ZM346.313 385.8H352.953V414.36H346.313V385.8ZM371.913 362.12H378.473V369.32C378.473 378.28 378.473 388.2 375.833 402.84L369.193 401.96C371.913 388.12 371.913 377.96 371.913 369.32V362.12ZM394.547 412.6H460.067V418.2H394.547V412.6ZM402.467 360.44H451.987V382.36H409.267V396.84H402.707V377.08H445.427V365.88H402.467V360.44ZM402.707 394.04H453.667V399.48H402.707V394.04ZM520.781 354.92H527.421V427.24H520.781V354.92ZM499.581 362.68H506.141C506.141 383.64 496.701 401.96 472.541 413.8L469.021 408.44C489.901 398.36 499.581 383 499.581 363.8V362.68ZM472.301 362.68H502.461V368.12H472.301V362.68Z"/>
</mask>
<path d="M141.526 325V293.2C141.526 283.2 144.326 275.45 149.926 269.95C155.526 264.45 163.676 261.7 174.376 261.7H223.726C233.226 261.7 237.976 257.65 237.976 249.55C237.976 241.45 233.226 237.4 223.726 237.4H143.926V217.9H228.376C238.776 217.9 246.826 220.7 252.526 226.3C258.326 231.9 261.226 239.65 261.226 249.55C261.226 259.45 258.326 267.2 252.526 272.8C246.826 278.4 238.776 281.2 228.376 281.2H177.676C173.376 281.2 170.126 282.3 167.926 284.5C165.826 286.6 164.776 289.6 164.776 293.5V305.65H258.376V325H141.526ZM324.666 258.92H331.066V331.24H324.666V258.92ZM312.986 287.96H326.826V293.4H312.986V287.96ZM294.266 268.2H300.666C300.666 286.84 294.266 304.12 273.626 315.72L269.706 311C287.866 300.84 294.266 286.2 294.266 269.48V268.2ZM272.506 268.2H296.506V273.72H272.506V268.2ZM308.586 260.84H314.906V327.72H308.586V260.84ZM400.629 295.08H407.269V307.72H400.629V295.08ZM371.269 292.76H436.629V298.12H371.269V292.76ZM403.909 305.72C419.429 305.72 428.709 310.28 428.709 318.44C428.709 326.52 419.429 331.08 403.909 331.08C388.389 331.08 379.109 326.52 379.109 318.44C379.109 310.28 388.389 305.72 403.909 305.72ZM403.909 310.84C392.629 310.84 385.829 313.56 385.829 318.44C385.829 323.24 392.629 325.96 403.909 325.96C415.269 325.96 421.989 323.24 421.989 318.44C421.989 313.56 415.269 310.84 403.909 310.84ZM399.669 264.84H405.589V267C405.589 278.68 392.309 286.52 377.349 288.36L374.949 283.08C387.909 281.72 399.669 275.24 399.669 267V264.84ZM402.469 264.84H408.309V267C408.309 275.24 420.069 281.72 433.029 283.08L430.629 288.36C415.669 286.52 402.469 278.68 402.469 267V264.84ZM377.269 262.2H430.789V267.56H377.269V262.2ZM474.222 287H487.902V292.52H474.222V287ZM499.982 258.92H506.382V331.24H499.982V258.92ZM485.662 260.44H491.982V327.64H485.662V260.44ZM461.182 264.92C470.542 264.92 476.622 274.6 476.622 290.12C476.622 305.64 470.542 315.32 461.182 315.32C451.822 315.32 445.822 305.64 445.822 290.12C445.822 274.6 451.822 264.92 461.182 264.92ZM461.182 271.08C455.502 271.08 451.902 278.44 451.902 290.12C451.902 301.8 455.502 309.16 461.182 309.16C466.942 309.16 470.542 301.8 470.542 290.12C470.542 278.44 466.942 271.08 461.182 271.08ZM167.268 355H173.908V409.24H167.268V355ZM171.828 378.68H184.628V384.28H171.828V378.68ZM117.988 363.72H160.708V369.08H117.988V363.72ZM139.348 373.08C149.588 373.08 156.628 378.44 156.628 386.6C156.628 394.68 149.588 400.04 139.348 400.04C129.028 400.04 121.988 394.68 121.988 386.6C121.988 378.44 129.028 373.08 139.348 373.08ZM139.348 378.28C132.788 378.28 128.308 381.56 128.308 386.6C128.308 391.56 132.788 394.84 139.348 394.84C145.828 394.84 150.308 391.56 150.308 386.6C150.308 381.56 145.828 378.28 139.348 378.28ZM135.988 354.92H142.628V366.52H135.988V354.92ZM128.868 420.2H177.188V425.64H128.868V420.2ZM128.868 404.92H135.508V422.52H128.868V404.92ZM274.271 354.92H280.671V427.24H274.271V354.92ZM262.591 383.96H276.431V389.4H262.591V383.96ZM243.871 364.2H250.271C250.271 382.84 243.871 400.12 223.231 411.72L219.311 407C237.471 396.84 243.871 382.2 243.871 365.48V364.2ZM222.111 364.2H246.111V369.72H222.111V364.2ZM258.191 356.84H264.511V423.72H258.191V356.84ZM327.833 362.12H374.393V367.64H327.833V362.12ZM320.953 411.64H386.313V417.16H320.953V411.64ZM346.313 385.8H352.953V414.36H346.313V385.8ZM371.913 362.12H378.473V369.32C378.473 378.28 378.473 388.2 375.833 402.84L369.193 401.96C371.913 388.12 371.913 377.96 371.913 369.32V362.12ZM394.547 412.6H460.067V418.2H394.547V412.6ZM402.467 360.44H451.987V382.36H409.267V396.84H402.707V377.08H445.427V365.88H402.467V360.44ZM402.707 394.04H453.667V399.48H402.707V394.04ZM520.781 354.92H527.421V427.24H520.781V354.92ZM499.581 362.68H506.141C506.141 383.64 496.701 401.96 472.541 413.8L469.021 408.44C489.901 398.36 499.581 383 499.581 363.8V362.68ZM472.301 362.68H502.461V368.12H472.301V362.68Z" fill="black"/>
<path d="M141.526 325H133.526V333H141.526V325ZM143.926 237.4H135.926V245.4H143.926V237.4ZM143.926 217.9V209.9H135.926V217.9H143.926ZM252.526 226.3L246.92 232.007L246.945 232.031L246.97 232.055L252.526 226.3ZM252.526 272.8L246.97 267.045L246.945 267.069L246.92 267.093L252.526 272.8ZM167.926 284.5L173.583 290.157L173.583 290.157L167.926 284.5ZM164.776 305.65H156.776V313.65H164.776V305.65ZM258.376 305.65H266.376V297.65H258.376V305.65ZM258.376 325V333H266.376V325H258.376ZM149.526 325V293.2H133.526V325H149.526ZM149.526 293.2C149.526 284.728 151.855 279.269 155.532 275.658L144.321 264.242C136.798 271.631 133.526 281.672 133.526 293.2H149.526ZM155.532 275.658C159.16 272.094 164.995 269.7 174.376 269.7V253.7C162.358 253.7 151.893 256.806 144.321 264.242L155.532 275.658ZM174.376 269.7H223.726V253.7H174.376V269.7ZM223.726 269.7C229.425 269.7 235.192 268.512 239.604 264.75C244.261 260.78 245.976 255.196 245.976 249.55H229.976C229.976 252.004 229.317 252.495 229.223 252.575C228.886 252.863 227.527 253.7 223.726 253.7V269.7ZM245.976 249.55C245.976 243.904 244.261 238.32 239.604 234.35C235.192 230.588 229.425 229.4 223.726 229.4V245.4C227.527 245.4 228.886 246.237 229.223 246.525C229.317 246.605 229.976 247.096 229.976 249.55H245.976ZM223.726 229.4H143.926V245.4H223.726V229.4ZM151.926 237.4V217.9H135.926V237.4H151.926ZM143.926 225.9H228.376V209.9H143.926V225.9ZM228.376 225.9C237.336 225.9 243.127 228.28 246.92 232.007L258.133 220.593C250.526 213.12 240.217 209.9 228.376 209.9V225.9ZM246.97 232.055C250.865 235.816 253.226 241.292 253.226 249.55H269.226C269.226 238.008 265.788 227.984 258.083 220.545L246.97 232.055ZM253.226 249.55C253.226 257.808 250.865 263.284 246.97 267.045L258.083 278.555C265.788 271.116 269.226 261.092 269.226 249.55H253.226ZM246.92 267.093C243.127 270.82 237.336 273.2 228.376 273.2V289.2C240.217 289.2 250.526 285.98 258.133 278.507L246.92 267.093ZM228.376 273.2H177.676V289.2H228.376V273.2ZM177.676 273.2C172.081 273.2 166.468 274.645 162.27 278.843L173.583 290.157C173.785 289.955 174.671 289.2 177.676 289.2V273.2ZM162.27 278.843C158.243 282.87 156.776 288.168 156.776 293.5H172.776C172.776 291.032 173.41 290.33 173.583 290.157L162.27 278.843ZM156.776 293.5V305.65H172.776V293.5H156.776ZM164.776 313.65H258.376V297.65H164.776V313.65ZM250.376 305.65V325H266.376V305.65H250.376ZM258.376 317H141.526V333H258.376V317ZM324.666 258.92V250.92H316.666V258.92H324.666ZM331.066 258.92H339.066V250.92H331.066V258.92ZM331.066 331.24V339.24H339.066V331.24H331.066ZM324.666 331.24H316.666V339.24H324.666V331.24ZM312.986 287.96V279.96H304.986V287.96H312.986ZM326.826 287.96H334.826V279.96H326.826V287.96ZM326.826 293.4V301.4H334.826V293.4H326.826ZM312.986 293.4H304.986V301.4H312.986V293.4ZM294.266 268.2V260.2H286.266V268.2H294.266ZM300.666 268.2H308.666V260.2H300.666V268.2ZM273.626 315.72L267.472 320.831L271.732 325.961L277.546 322.694L273.626 315.72ZM269.706 311L265.8 304.018L257.408 308.714L263.552 316.111L269.706 311ZM272.506 268.2V260.2H264.506V268.2H272.506ZM296.506 268.2H304.506V260.2H296.506V268.2ZM296.506 273.72V281.72H304.506V273.72H296.506ZM272.506 273.72H264.506V281.72H272.506V273.72ZM308.586 260.84V252.84H300.586V260.84H308.586ZM314.906 260.84H322.906V252.84H314.906V260.84ZM314.906 327.72V335.72H322.906V327.72H314.906ZM308.586 327.72H300.586V335.72H308.586V327.72ZM324.666 266.92H331.066V250.92H324.666V266.92ZM323.066 258.92V331.24H339.066V258.92H323.066ZM331.066 323.24H324.666V339.24H331.066V323.24ZM332.666 331.24V258.92H316.666V331.24H332.666ZM312.986 295.96H326.826V279.96H312.986V295.96ZM318.826 287.96V293.4H334.826V287.96H318.826ZM326.826 285.4H312.986V301.4H326.826V285.4ZM320.986 293.4V287.96H304.986V293.4H320.986ZM294.266 276.2H300.666V260.2H294.266V276.2ZM292.666 268.2C292.666 276.625 291.219 284.262 287.777 290.931C284.375 297.524 278.783 303.645 269.707 308.746L277.546 322.694C289.109 316.195 297.037 307.876 301.995 298.269C306.914 288.738 308.666 278.415 308.666 268.2H292.666ZM279.78 310.609L275.86 305.889L263.552 316.111L267.472 320.831L279.78 310.609ZM273.612 317.982C283.819 312.271 291.118 305.059 295.802 296.562C300.465 288.103 302.266 278.864 302.266 269.48H286.266C286.266 276.816 284.867 283.257 281.79 288.838C278.734 294.381 273.753 299.569 265.8 304.018L273.612 317.982ZM302.266 269.48V268.2H286.266V269.48H302.266ZM272.506 276.2H296.506V260.2H272.506V276.2ZM288.506 268.2V273.72H304.506V268.2H288.506ZM296.506 265.72H272.506V281.72H296.506V265.72ZM280.506 273.72V268.2H264.506V273.72H280.506ZM308.586 268.84H314.906V252.84H308.586V268.84ZM306.906 260.84V327.72H322.906V260.84H306.906ZM314.906 319.72H308.586V335.72H314.906V319.72ZM316.586 327.72V260.84H300.586V327.72H316.586ZM400.629 295.08V287.08H392.629V295.08H400.629ZM407.269 295.08H415.269V287.08H407.269V295.08ZM407.269 307.72V315.72H415.269V307.72H407.269ZM400.629 307.72H392.629V315.72H400.629V307.72ZM371.269 292.76V284.76H363.269V292.76H371.269ZM436.629 292.76H444.629V284.76H436.629V292.76ZM436.629 298.12V306.12H444.629V298.12H436.629ZM371.269 298.12H363.269V306.12H371.269V298.12ZM399.669 264.84V256.84H391.669V264.84H399.669ZM405.589 264.84H413.589V256.84H405.589V264.84ZM377.349 288.36L370.066 291.67L372.496 297.017L378.325 296.3L377.349 288.36ZM374.949 283.08L374.114 275.124L363.071 276.282L367.666 286.39L374.949 283.08ZM402.469 264.84V256.84H394.469V264.84H402.469ZM408.309 264.84H416.309V256.84H408.309V264.84ZM433.029 283.08L440.312 286.39L444.906 276.282L433.864 275.124L433.029 283.08ZM430.629 288.36L429.652 296.3L435.481 297.017L437.912 291.67L430.629 288.36ZM377.269 262.2V254.2H369.269V262.2H377.269ZM430.789 262.2H438.789V254.2H430.789V262.2ZM430.789 267.56V275.56H438.789V267.56H430.789ZM377.269 267.56H369.269V275.56H377.269V267.56ZM400.629 303.08H407.269V287.08H400.629V303.08ZM399.269 295.08V307.72H415.269V295.08H399.269ZM407.269 299.72H400.629V315.72H407.269V299.72ZM408.629 307.72V295.08H392.629V307.72H408.629ZM371.269 300.76H436.629V284.76H371.269V300.76ZM428.629 292.76V298.12H444.629V292.76H428.629ZM436.629 290.12H371.269V306.12H436.629V290.12ZM379.269 298.12V292.76H363.269V298.12H379.269ZM403.909 313.72C411.081 313.72 415.846 314.804 418.511 316.155C420.836 317.334 420.709 318.135 420.709 318.44H436.709C436.709 310.585 431.941 305.026 425.746 301.885C419.891 298.916 412.256 297.72 403.909 297.72V313.72ZM420.709 318.44C420.709 318.672 420.874 319.462 418.524 320.648C415.852 321.997 411.079 323.08 403.909 323.08V339.08C412.259 339.08 419.885 337.883 425.733 334.932C431.904 331.818 436.709 326.288 436.709 318.44H420.709ZM403.909 323.08C396.739 323.08 391.965 321.997 389.293 320.648C386.944 319.462 387.109 318.672 387.109 318.44H371.109C371.109 326.288 375.914 331.818 382.084 334.932C387.932 337.883 395.559 339.08 403.909 339.08V323.08ZM387.109 318.44C387.109 318.135 386.981 317.334 389.306 316.155C391.971 314.804 396.736 313.72 403.909 313.72V297.72C395.561 297.72 387.926 298.916 382.071 301.885C375.876 305.026 371.109 310.585 371.109 318.44H387.109ZM403.909 302.84C397.811 302.84 392.085 303.549 387.574 305.42C383.079 307.285 377.829 311.326 377.829 318.44H393.829C393.829 319.257 393.484 320.004 393.119 320.426C392.87 320.714 392.886 320.539 393.704 320.2C395.413 319.491 398.726 318.84 403.909 318.84V302.84ZM377.829 318.44C377.829 325.571 383.155 329.571 387.594 331.398C392.093 333.25 397.808 333.96 403.909 333.96V317.96C398.729 317.96 395.404 317.31 393.683 316.602C392.856 316.262 392.836 316.084 393.088 316.372C393.458 316.795 393.829 317.566 393.829 318.44H377.829ZM403.909 333.96C410.042 333.96 415.764 333.252 420.262 331.394C424.733 329.548 429.989 325.533 429.989 318.44H413.989C413.989 317.592 414.346 316.827 414.72 316.395C414.978 316.098 414.97 316.269 414.155 316.606C412.453 317.308 409.136 317.96 403.909 317.96V333.96ZM429.989 318.44C429.989 311.364 424.809 307.308 420.282 305.424C415.773 303.547 410.038 302.84 403.909 302.84V318.84C409.139 318.84 412.445 319.493 414.135 320.196C414.94 320.531 414.945 320.7 414.689 320.403C414.32 319.972 413.989 319.231 413.989 318.44H429.989ZM399.669 272.84H405.589V256.84H399.669V272.84ZM397.589 264.84V267H413.589V264.84H397.589ZM397.589 267C397.589 269.43 396.294 272.142 392.477 274.826C388.614 277.542 382.892 279.618 376.372 280.42L378.325 296.3C386.765 295.262 395.163 292.498 401.681 287.914C408.243 283.298 413.589 276.25 413.589 267H397.589ZM384.632 285.05L382.232 279.77L367.666 286.39L370.066 291.67L384.632 285.05ZM375.784 291.036C383.208 290.257 390.597 287.998 396.376 284.424C401.889 281.015 407.669 275.217 407.669 267H391.669C391.669 267.023 391.568 268.585 387.961 270.816C384.62 272.882 379.65 274.543 374.114 275.124L375.784 291.036ZM407.669 267V264.84H391.669V267H407.669ZM402.469 272.84H408.309V256.84H402.469V272.84ZM400.309 264.84V267H416.309V264.84H400.309ZM400.309 267C400.309 275.217 406.088 281.015 411.601 284.424C417.38 287.998 424.77 290.257 432.194 291.036L433.864 275.124C428.328 274.543 423.357 272.882 420.016 270.816C416.409 268.585 416.309 267.023 416.309 267H400.309ZM425.746 279.77L423.346 285.05L437.912 291.67L440.312 286.39L425.746 279.77ZM431.605 280.42C425.087 279.618 419.391 277.544 415.553 274.835C411.765 272.16 410.469 269.45 410.469 267H394.469C394.469 276.23 399.773 283.28 406.325 287.905C412.827 292.496 421.21 295.262 429.652 296.3L431.605 280.42ZM410.469 267V264.84H394.469V267H410.469ZM377.269 270.2H430.789V254.2H377.269V270.2ZM422.789 262.2V267.56H438.789V262.2H422.789ZM430.789 259.56H377.269V275.56H430.789V259.56ZM385.269 267.56V262.2H369.269V267.56H385.269ZM474.222 287V279H466.222V287H474.222ZM487.902 287H495.902V279H487.902V287ZM487.902 292.52V300.52H495.902V292.52H487.902ZM474.222 292.52H466.222V300.52H474.222V292.52ZM499.982 258.92V250.92H491.982V258.92H499.982ZM506.382 258.92H514.382V250.92H506.382V258.92ZM506.382 331.24V339.24H514.382V331.24H506.382ZM499.982 331.24H491.982V339.24H499.982V331.24ZM485.662 260.44V252.44H477.662V260.44H485.662ZM491.982 260.44H499.982V252.44H491.982V260.44ZM491.982 327.64V335.64H499.982V327.64H491.982ZM485.662 327.64H477.662V335.64H485.662V327.64ZM474.222 295H487.902V279H474.222V295ZM479.902 287V292.52H495.902V287H479.902ZM487.902 284.52H474.222V300.52H487.902V284.52ZM482.222 292.52V287H466.222V292.52H482.222ZM499.982 266.92H506.382V250.92H499.982V266.92ZM498.382 258.92V331.24H514.382V258.92H498.382ZM506.382 323.24H499.982V339.24H506.382V323.24ZM507.982 331.24V258.92H491.982V331.24H507.982ZM485.662 268.44H491.982V252.44H485.662V268.44ZM483.982 260.44V327.64H499.982V260.44H483.982ZM491.982 319.64H485.662V335.64H491.982V319.64ZM493.662 327.64V260.44H477.662V327.64H493.662ZM461.182 272.92C462.634 272.92 464.115 273.488 465.604 275.901C467.256 278.579 468.622 283.258 468.622 290.12H484.622C484.622 281.462 482.949 273.541 479.221 267.499C475.329 261.192 469.091 256.92 461.182 256.92V272.92ZM468.622 290.12C468.622 296.982 467.256 301.661 465.604 304.339C464.115 306.752 462.634 307.32 461.182 307.32V323.32C469.091 323.32 475.329 319.048 479.221 312.741C482.949 306.699 484.622 298.778 484.622 290.12H468.622ZM461.182 307.32C459.742 307.32 458.286 306.764 456.815 304.362C455.175 301.684 453.822 296.999 453.822 290.12H437.822C437.822 298.761 439.47 306.676 443.17 312.718C447.039 319.036 453.262 323.32 461.182 323.32V307.32ZM453.822 290.12C453.822 283.241 455.175 278.556 456.815 275.878C458.286 273.476 459.742 272.92 461.182 272.92V256.92C453.262 256.92 447.039 261.204 443.17 267.522C439.47 273.564 437.822 281.479 437.822 290.12H453.822ZM461.182 263.08C454.167 263.08 449.602 267.836 447.222 272.712C444.88 277.514 443.902 283.621 443.902 290.12H459.902C459.902 284.939 460.725 281.526 461.602 279.728C462.443 278.004 462.518 279.08 461.182 279.08V263.08ZM443.902 290.12C443.902 296.619 444.88 302.726 447.222 307.528C449.602 312.404 454.167 317.16 461.182 317.16V301.16C462.518 301.16 462.443 302.236 461.602 300.512C460.725 298.714 459.902 295.301 459.902 290.12H443.902ZM461.182 317.16C468.192 317.16 472.791 312.46 475.204 307.545C477.566 302.734 478.542 296.617 478.542 290.12H462.542C462.542 295.303 461.719 298.706 460.841 300.495C460.014 302.18 459.933 301.16 461.182 301.16V317.16ZM478.542 290.12C478.542 283.623 477.566 277.506 475.204 272.695C472.791 267.78 468.192 263.08 461.182 263.08V279.08C459.933 279.08 460.014 278.06 460.841 279.745C461.719 281.534 462.542 284.937 462.542 290.12H478.542ZM167.268 355V347H159.268V355H167.268ZM173.908 355H181.908V347H173.908V355ZM173.908 409.24V417.24H181.908V409.24H173.908ZM167.268 409.24H159.268V417.24H167.268V409.24ZM171.828 378.68V370.68H163.828V378.68H171.828ZM184.628 378.68H192.628V370.68H184.628V378.68ZM184.628 384.28V392.28H192.628V384.28H184.628ZM171.828 384.28H163.828V392.28H171.828V384.28ZM117.988 363.72V355.72H109.988V363.72H117.988ZM160.708 363.72H168.708V355.72H160.708V363.72ZM160.708 369.08V377.08H168.708V369.08H160.708ZM117.988 369.08H109.988V377.08H117.988V369.08ZM135.988 354.92V346.92H127.988V354.92H135.988ZM142.628 354.92H150.628V346.92H142.628V354.92ZM142.628 366.52V374.52H150.628V366.52H142.628ZM135.988 366.52H127.988V374.52H135.988V366.52ZM128.868 420.2V412.2H120.868V420.2H128.868ZM177.188 420.2H185.188V412.2H177.188V420.2ZM177.188 425.64V433.64H185.188V425.64H177.188ZM128.868 425.64H120.868V433.64H128.868V425.64ZM128.868 404.92V396.92H120.868V404.92H128.868ZM135.508 404.92H143.508V396.92H135.508V404.92ZM135.508 422.52V430.52H143.508V422.52H135.508ZM128.868 422.52H120.868V430.52H128.868V422.52ZM167.268 363H173.908V347H167.268V363ZM165.908 355V409.24H181.908V355H165.908ZM173.908 401.24H167.268V417.24H173.908V401.24ZM175.268 409.24V355H159.268V409.24H175.268ZM171.828 386.68H184.628V370.68H171.828V386.68ZM176.628 378.68V384.28H192.628V378.68H176.628ZM184.628 376.28H171.828V392.28H184.628V376.28ZM179.828 384.28V378.68H163.828V384.28H179.828ZM117.988 371.72H160.708V355.72H117.988V371.72ZM152.708 363.72V369.08H168.708V363.72H152.708ZM160.708 361.08H117.988V377.08H160.708V361.08ZM125.988 369.08V363.72H109.988V369.08H125.988ZM139.348 381.08C143.151 381.08 145.61 382.081 146.922 383.099C148.066 383.987 148.628 385.061 148.628 386.6H164.628C164.628 379.979 161.67 374.293 156.734 370.461C151.966 366.759 145.785 365.08 139.348 365.08V381.08ZM148.628 386.6C148.628 388.073 148.088 389.13 146.935 390.021C145.617 391.039 143.151 392.04 139.348 392.04V408.04C145.785 408.04 151.959 406.361 156.721 402.679C161.649 398.87 164.628 393.207 164.628 386.6H148.628ZM139.348 392.04C135.493 392.04 133.005 391.033 131.681 390.013C130.526 389.123 129.988 388.071 129.988 386.6H113.988C113.988 393.209 116.97 398.877 121.915 402.687C126.691 406.367 132.884 408.04 139.348 408.04V392.04ZM129.988 386.6C129.988 385.063 130.548 383.994 131.694 383.107C133.012 382.087 135.492 381.08 139.348 381.08V365.08C132.884 365.08 126.684 366.753 121.902 370.453C116.948 374.286 113.988 379.977 113.988 386.6H129.988ZM139.348 370.28C134.828 370.28 130.246 371.401 126.579 374.142C122.719 377.027 120.308 381.434 120.308 386.6H136.308C136.308 386.555 136.31 386.666 136.225 386.832C136.145 386.988 136.076 387.019 136.158 386.958C136.37 386.799 137.308 386.28 139.348 386.28V370.28ZM120.308 386.6C120.308 391.769 122.756 396.151 126.6 399.004C130.258 401.719 134.827 402.84 139.348 402.84V386.84C137.309 386.84 136.358 386.321 136.136 386.156C136.05 386.092 136.122 386.124 136.209 386.29C136.301 386.467 136.308 386.604 136.308 386.6H120.308ZM139.348 402.84C143.849 402.84 148.4 401.71 152.042 398.992C155.864 396.14 158.308 391.765 158.308 386.6H142.308C142.308 386.604 142.315 386.47 142.405 386.297C142.489 386.135 142.559 386.105 142.474 386.168C142.256 386.33 141.328 386.84 139.348 386.84V402.84ZM158.308 386.6C158.308 381.438 155.902 377.038 152.063 374.154C148.411 371.41 143.848 370.28 139.348 370.28V386.28C141.329 386.28 142.245 386.79 142.453 386.946C142.533 387.006 142.466 386.977 142.389 386.825C142.306 386.663 142.308 386.555 142.308 386.6H158.308ZM135.988 362.92H142.628V346.92H135.988V362.92ZM134.628 354.92V366.52H150.628V354.92H134.628ZM142.628 358.52H135.988V374.52H142.628V358.52ZM143.988 366.52V354.92H127.988V366.52H143.988ZM128.868 428.2H177.188V412.2H128.868V428.2ZM169.188 420.2V425.64H185.188V420.2H169.188ZM177.188 417.64H128.868V433.64H177.188V417.64ZM136.868 425.64V420.2H120.868V425.64H136.868ZM128.868 412.92H135.508V396.92H128.868V412.92ZM127.508 404.92V422.52H143.508V404.92H127.508ZM135.508 414.52H128.868V430.52H135.508V414.52ZM136.868 422.52V404.92H120.868V422.52H136.868ZM274.271 354.92V346.92H266.271V354.92H274.271ZM280.671 354.92H288.671V346.92H280.671V354.92ZM280.671 427.24V435.24H288.671V427.24H280.671ZM274.271 427.24H266.271V435.24H274.271V427.24ZM262.591 383.96V375.96H254.591V383.96H262.591ZM276.431 383.96H284.431V375.96H276.431V383.96ZM276.431 389.4V397.4H284.431V389.4H276.431ZM262.591 389.4H254.591V397.4H262.591V389.4ZM243.871 364.2V356.2H235.871V364.2H243.871ZM250.271 364.2H258.271V356.2H250.271V364.2ZM223.231 411.72L217.076 416.831L221.337 421.961L227.15 418.694L223.231 411.72ZM219.311 407L215.405 400.018L207.012 404.714L213.156 412.111L219.311 407ZM222.111 364.2V356.2H214.111V364.2H222.111ZM246.111 364.2H254.111V356.2H246.111V364.2ZM246.111 369.72V377.72H254.111V369.72H246.111ZM222.111 369.72H214.111V377.72H222.111V369.72ZM258.191 356.84V348.84H250.191V356.84H258.191ZM264.511 356.84H272.511V348.84H264.511V356.84ZM264.511 423.72V431.72H272.511V423.72H264.511ZM258.191 423.72H250.191V431.72H258.191V423.72ZM274.271 362.92H280.671V346.92H274.271V362.92ZM272.671 354.92V427.24H288.671V354.92H272.671ZM280.671 419.24H274.271V435.24H280.671V419.24ZM282.271 427.24V354.92H266.271V427.24H282.271ZM262.591 391.96H276.431V375.96H262.591V391.96ZM268.431 383.96V389.4H284.431V383.96H268.431ZM276.431 381.4H262.591V397.4H276.431V381.4ZM270.591 389.4V383.96H254.591V389.4H270.591ZM243.871 372.2H250.271V356.2H243.871V372.2ZM242.271 364.2C242.271 372.625 240.823 380.262 237.381 386.931C233.979 393.524 228.388 399.645 219.311 404.746L227.15 418.694C238.713 412.195 246.642 403.876 251.6 394.269C256.518 384.738 258.271 374.415 258.271 364.2H242.271ZM229.385 406.609L225.465 401.889L213.156 412.111L217.076 416.831L229.385 406.609ZM223.217 413.982C233.423 408.271 240.723 401.059 245.407 392.562C250.07 384.103 251.871 374.864 251.871 365.48H235.871C235.871 372.816 234.471 379.257 231.395 384.838C228.339 390.381 223.358 395.569 215.405 400.018L223.217 413.982ZM251.871 365.48V364.2H235.871V365.48H251.871ZM222.111 372.2H246.111V356.2H222.111V372.2ZM238.111 364.2V369.72H254.111V364.2H238.111ZM246.111 361.72H222.111V377.72H246.111V361.72ZM230.111 369.72V364.2H214.111V369.72H230.111ZM258.191 364.84H264.511V348.84H258.191V364.84ZM256.511 356.84V423.72H272.511V356.84H256.511ZM264.511 415.72H258.191V431.72H264.511V415.72ZM266.191 423.72V356.84H250.191V423.72H266.191ZM327.833 362.12V354.12H319.833V362.12H327.833ZM374.393 362.12H382.393V354.12H374.393V362.12ZM374.393 367.64V375.64H382.393V367.64H374.393ZM327.833 367.64H319.833V375.64H327.833V367.64ZM320.953 411.64V403.64H312.953V411.64H320.953ZM386.313 411.64H394.313V403.64H386.313V411.64ZM386.313 417.16V425.16H394.313V417.16H386.313ZM320.953 417.16H312.953V425.16H320.953V417.16ZM346.313 385.8V377.8H338.313V385.8H346.313ZM352.953 385.8H360.953V377.8H352.953V385.8ZM352.953 414.36V422.36H360.953V414.36H352.953ZM346.313 414.36H338.313V422.36H346.313V414.36ZM371.913 362.12V354.12H363.913V362.12H371.913ZM378.473 362.12H386.473V354.12H378.473V362.12ZM375.833 402.84L374.782 410.771L382.351 411.774L383.706 404.26L375.833 402.84ZM369.193 401.96L361.343 400.417L359.701 408.772L368.142 409.891L369.193 401.96ZM327.833 370.12H374.393V354.12H327.833V370.12ZM366.393 362.12V367.64H382.393V362.12H366.393ZM374.393 359.64H327.833V375.64H374.393V359.64ZM335.833 367.64V362.12H319.833V367.64H335.833ZM320.953 419.64H386.313V403.64H320.953V419.64ZM378.313 411.64V417.16H394.313V411.64H378.313ZM386.313 409.16H320.953V425.16H386.313V409.16ZM328.953 417.16V411.64H312.953V417.16H328.953ZM346.313 393.8H352.953V377.8H346.313V393.8ZM344.953 385.8V414.36H360.953V385.8H344.953ZM352.953 406.36H346.313V422.36H352.953V406.36ZM354.313 414.36V385.8H338.313V414.36H354.313ZM371.913 370.12H378.473V354.12H371.913V370.12ZM370.473 362.12V369.32H386.473V362.12H370.473ZM370.473 369.32C370.473 378.158 370.47 387.501 367.96 401.42L383.706 404.26C386.476 388.899 386.473 378.402 386.473 369.32H370.473ZM376.884 394.909L370.244 394.029L368.142 409.891L374.782 410.771L376.884 394.909ZM377.043 403.503C379.92 388.863 379.913 378.056 379.913 369.32H363.913C363.913 377.864 363.906 387.377 361.343 400.417L377.043 403.503ZM379.913 369.32V362.12H363.913V369.32H379.913ZM394.547 412.6V404.6H386.547V412.6H394.547ZM460.067 412.6H468.067V404.6H460.067V412.6ZM460.067 418.2V426.2H468.067V418.2H460.067ZM394.547 418.2H386.547V426.2H394.547V418.2ZM402.467 360.44V352.44H394.467V360.44H402.467ZM451.987 360.44H459.987V352.44H451.987V360.44ZM451.987 382.36V390.36H459.987V382.36H451.987ZM409.267 382.36V374.36H401.267V382.36H409.267ZM409.267 396.84V404.84H417.267V396.84H409.267ZM402.707 396.84H394.707V404.84H402.707V396.84ZM402.707 377.08V369.08H394.707V377.08H402.707ZM445.427 377.08V385.08H453.427V377.08H445.427ZM445.427 365.88H453.427V357.88H445.427V365.88ZM402.467 365.88H394.467V373.88H402.467V365.88ZM402.707 394.04V386.04H394.707V394.04H402.707ZM453.667 394.04H461.667V386.04H453.667V394.04ZM453.667 399.48V407.48H461.667V399.48H453.667ZM402.707 399.48H394.707V407.48H402.707V399.48ZM394.547 420.6H460.067V404.6H394.547V420.6ZM452.067 412.6V418.2H468.067V412.6H452.067ZM460.067 410.2H394.547V426.2H460.067V410.2ZM402.547 418.2V412.6H386.547V418.2H402.547ZM402.467 368.44H451.987V352.44H402.467V368.44ZM443.987 360.44V382.36H459.987V360.44H443.987ZM451.987 374.36H409.267V390.36H451.987V374.36ZM401.267 382.36V396.84H417.267V382.36H401.267ZM409.267 388.84H402.707V404.84H409.267V388.84ZM410.707 396.84V377.08H394.707V396.84H410.707ZM402.707 385.08H445.427V369.08H402.707V385.08ZM453.427 377.08V365.88H437.427V377.08H453.427ZM445.427 357.88H402.467V373.88H445.427V357.88ZM410.467 365.88V360.44H394.467V365.88H410.467ZM402.707 402.04H453.667V386.04H402.707V402.04ZM445.667 394.04V399.48H461.667V394.04H445.667ZM453.667 391.48H402.707V407.48H453.667V391.48ZM410.707 399.48V394.04H394.707V399.48H410.707ZM520.781 354.92V346.92H512.781V354.92H520.781ZM527.421 354.92H535.421V346.92H527.421V354.92ZM527.421 427.24V435.24H535.421V427.24H527.421ZM520.781 427.24H512.781V435.24H520.781V427.24ZM499.581 362.68V354.68H491.581V362.68H499.581ZM506.141 362.68H514.141V354.68H506.141V362.68ZM472.541 413.8L465.854 418.191L469.726 424.088L476.061 420.984L472.541 413.8ZM469.021 408.44L465.543 401.236L457.324 405.203L462.334 412.831L469.021 408.44ZM472.301 362.68V354.68H464.301V362.68H472.301ZM502.461 362.68H510.461V354.68H502.461V362.68ZM502.461 368.12V376.12H510.461V368.12H502.461ZM472.301 368.12H464.301V376.12H472.301V368.12ZM520.781 362.92H527.421V346.92H520.781V362.92ZM519.421 354.92V427.24H535.421V354.92H519.421ZM527.421 419.24H520.781V435.24H527.421V419.24ZM528.781 427.24V354.92H512.781V427.24H528.781ZM499.581 370.68H506.141V354.68H499.581V370.68ZM498.141 362.68C498.141 371.933 496.069 380.237 491.601 387.445C487.136 394.648 479.976 401.247 469.02 406.616L476.061 420.984C489.265 414.513 498.905 406.032 505.2 395.875C511.493 385.723 514.141 374.387 514.141 362.68H498.141ZM479.228 409.409L475.708 404.049L462.334 412.831L465.854 418.191L479.228 409.409ZM472.499 415.644C483.935 410.123 492.793 402.914 498.775 393.996C504.784 385.035 507.581 374.806 507.581 363.8H491.581C491.581 371.994 489.537 379.045 485.487 385.084C481.408 391.166 474.986 396.677 465.543 401.236L472.499 415.644ZM507.581 363.8V362.68H491.581V363.8H507.581ZM472.301 370.68H502.461V354.68H472.301V370.68ZM494.461 362.68V368.12H510.461V362.68H494.461ZM502.461 360.12H472.301V376.12H502.461V360.12ZM480.301 368.12V362.68H464.301V368.12H480.301Z" fill="white" mask="url(#path-1-outside-1_1225_44)"/>
</svg>
