<svg width="82" height="171" viewBox="0 0 82 171" fill="none" xmlns="http://www.w3.org/2000/svg">
<g clip-path="url(#clip0_1905_8)">
<g filter="url(#filter0_d_1905_8)">
<path d="M0 0H52C68.5685 0 82 13.4315 82 30V141C82 157.569 68.5685 171 52 171H0V0Z" fill="#7EC7B1"/>
</g>
<path d="M22.0226 63.6313H25.9826V68.6112H22.0226V63.6313ZM11.4926 66.9612H36.6026V70.1112H11.4926V66.9612ZM24.0026 71.6412C30.0326 71.6412 33.6326 73.4112 33.6326 76.5612C33.6326 79.7113 30.0326 81.4513 24.0026 81.4513C17.9726 81.4513 14.3426 79.7113 14.3426 76.5612C14.3426 73.4112 17.9726 71.6412 24.0026 71.6412ZM24.0026 74.6412C20.2526 74.6412 18.3926 75.2412 18.3926 76.5612C18.3926 77.9112 20.2526 78.4812 24.0026 78.4812C27.7526 78.4812 29.6126 77.9112 29.6126 76.5612C29.6126 75.2412 27.7526 74.6412 24.0026 74.6412ZM21.3026 56.2812H24.8426V56.9712C24.8426 61.1413 21.0926 64.5312 13.9226 65.2212L12.5426 62.0712C18.6326 61.5612 21.3026 59.1312 21.3026 56.9712V56.2812ZM23.2526 56.2812H26.7926V56.9712C26.7926 59.1312 29.4326 61.5612 35.5526 62.0712L34.1726 65.2212C27.0326 64.5312 23.2526 61.1712 23.2526 56.9712V56.2812ZM13.7726 54.8112H34.3526V57.9612H13.7726V54.8112ZM45.4803 69.8712H49.3803V76.4112H45.4803V69.8712ZM54.2703 69.8412H58.1703V76.4112H54.2703V69.8412ZM39.1203 75.1512H64.2603V78.3912H39.1203V75.1512ZM41.9403 55.4712H61.4403V64.6812H45.9603V69.3912H42.0003V61.5612H57.4803V58.6212H41.9403V55.4712ZM42.0003 67.7112H62.0703V70.9212H42.0003V67.7112ZM29.3126 89.6712H33.2726V117.451H29.3126V89.6712ZM32.3726 100.501H37.2926V103.831H32.3726V100.501ZM11.3726 93.7812H27.5426V96.9612H11.3726V93.7812ZM19.5026 98.5212C23.5526 98.5212 26.5526 101.281 26.5526 105.151C26.5526 109.021 23.5526 111.781 19.5026 111.781C15.4526 111.781 12.4526 109.021 12.4526 105.151C12.4526 101.281 15.4526 98.5212 19.5026 98.5212ZM19.5026 101.761C17.6126 101.761 16.2626 103.021 16.2626 105.151C16.2626 107.281 17.6126 108.541 19.5026 108.541C21.3926 108.541 22.7426 107.281 22.7426 105.151C22.7426 103.021 21.3926 101.761 19.5026 101.761ZM17.4926 90.1212H21.4826V94.9812H17.4926V90.1212ZM58.2303 89.6712H62.2503V117.451H58.2303V89.6712ZM50.0403 92.5512H54.0003C54.0003 101.041 51.1203 108.001 41.2503 112.771L39.1803 109.591C47.1603 105.751 50.0403 100.711 50.0403 93.2712V92.5512ZM40.6503 92.5512H51.9303V95.7012H40.6503V92.5512Z" fill="white"/>
</g>
<defs>
<filter id="filter0_d_1905_8" x="-4" y="0" width="90" height="179" filterUnits="userSpaceOnUse" color-interpolation-filters="sRGB">
<feFlood flood-opacity="0" result="BackgroundImageFix"/>
<feColorMatrix in="SourceAlpha" type="matrix" values="0 0 0 0 0 0 0 0 0 0 0 0 0 0 0 0 0 0 127 0" result="hardAlpha"/>
<feOffset dy="4"/>
<feGaussianBlur stdDeviation="2"/>
<feComposite in2="hardAlpha" operator="out"/>
<feColorMatrix type="matrix" values="0 0 0 0 0 0 0 0 0 0 0 0 0 0 0 0 0 0 0.25 0"/>
<feBlend mode="normal" in2="BackgroundImageFix" result="effect1_dropShadow_1905_8"/>
<feBlend mode="normal" in="SourceGraphic" in2="effect1_dropShadow_1905_8" result="shape"/>
</filter>
<clipPath id="clip0_1905_8">
<rect width="82" height="171" fill="white"/>
</clipPath>
</defs>
</svg>
