<svg width="550" height="116" viewBox="0 0 550 116" fill="none" xmlns="http://www.w3.org/2000/svg">
<path d="M119.349 5.824H125.733V50.416H119.349V5.824ZM107.397 19.552H121.173V24.688H107.397V19.552ZM90.6928 10.576H97.0288V38.176H90.6928V10.576ZM90.6928 34.672H94.4368C100.773 34.672 107.349 34.24 114.261 32.848L114.933 38.128C107.781 39.568 100.965 39.952 94.4368 39.952H90.6928V34.672ZM160.961 5.776H167.393V50.224H160.961V5.776ZM165.713 22.768H173.537V28H165.713V22.768ZM149.297 10.384H155.537C155.537 23.728 150.449 35.152 135.665 42.592L132.113 37.744C143.777 31.696 149.297 23.536 149.297 11.488V10.384ZM134.561 10.384H152.561V15.52H134.561V10.384ZM196.048 33.04H226.096V38.128H202.384V47.584H196.048V33.04ZM196.048 44.752H226.72V49.792H196.048V44.752ZM219.424 5.824H225.808V31.024H219.424V5.824ZM210.256 16.144H220.768V21.328H210.256V16.144ZM200.896 8.032C207.52 8.032 212.608 12.592 212.608 18.928C212.608 25.216 207.52 29.824 200.896 29.824C194.224 29.824 189.136 25.216 189.136 18.928C189.136 12.592 194.224 8.032 200.896 8.032ZM200.896 13.408C197.632 13.408 195.232 15.424 195.232 18.928C195.232 22.384 197.632 24.448 200.896 24.448C204.112 24.448 206.512 22.384 206.512 18.928C206.512 15.424 204.112 13.408 200.896 13.408ZM232.764 28.48H272.94V33.568H232.764V28.48ZM237.612 44.416H268.428V49.504H237.612V44.416ZM237.612 36.544H243.996V46.048H237.612V36.544ZM252.876 7.12C262.524 7.12 268.956 10.624 268.956 16.288C268.956 21.952 262.524 25.456 252.876 25.456C243.18 25.456 236.796 21.952 236.796 16.288C236.796 10.624 243.18 7.12 252.876 7.12ZM252.876 12.208C246.876 12.208 243.372 13.6 243.372 16.288C243.372 19.024 246.876 20.368 252.876 20.368C258.876 20.368 262.38 19.024 262.38 16.288C262.38 13.6 258.876 12.208 252.876 12.208ZM299.242 7.84H304.522V12.112C304.522 20.512 300.442 28.144 291.754 30.928L288.634 25.888C296.122 23.488 299.242 17.728 299.242 12.112V7.84ZM300.538 7.84H305.77V12.112C305.77 17.584 308.842 22.96 316.09 25.168L312.97 30.16C304.474 27.472 300.538 20.368 300.538 12.112V7.84ZM295.45 34.288H325.786V50.272H319.354V39.376H295.45V34.288ZM319.354 5.824H325.786V32.32H319.354V5.824ZM349.831 27.184H356.215V33.376H349.831V27.184ZM332.983 23.44H373.159V28.432H332.983V23.44ZM337.927 7.12H368.071V21.088H337.927V7.12ZM361.783 12.064H344.215V16.192H361.783V12.064ZM337.591 31.216H368.311V42.64H343.927V46.576H337.639V38.224H362.023V35.968H337.591V31.216ZM337.639 45.184H369.463V49.984H337.639V45.184ZM377.187 23.056H417.411V28.096H377.187V23.056ZM382.131 15.664H412.659V20.656H382.131V15.664ZM382.131 6.64H412.275V11.728H388.467V19.984H382.131V6.64ZM381.747 30.592H412.467V42.352H388.083V46.192H381.795V37.84H406.179V35.392H381.747V30.592ZM381.795 45.04H413.619V49.936H381.795V45.04ZM441.407 6.448C451.535 6.448 457.487 9.136 457.487 14.032C457.487 18.928 451.535 21.616 441.407 21.616C431.231 21.616 425.327 18.928 425.327 14.032C425.327 9.136 431.231 6.448 441.407 6.448ZM441.407 11.104C434.975 11.104 431.951 12.064 431.951 14.032C431.951 16.096 434.975 16.96 441.407 16.96C447.839 16.96 450.863 16.096 450.863 14.032C450.863 12.064 447.839 11.104 441.407 11.104ZM421.295 23.68H461.471V28.72H421.295V23.68ZM425.903 31.216H456.623V42.64H432.239V46.576H425.951V38.224H450.335V35.968H425.903V31.216ZM425.951 45.184H457.775V49.984H425.951V45.184ZM107.973 66.416H135.861V71.456H107.973V66.416ZM103.413 85.328H143.589V90.464H103.413V85.328ZM120.069 88.928H126.501V108.32H120.069V88.928ZM132.597 66.416H138.885V70.352C138.885 75.152 138.885 80.528 137.157 88.4L130.869 87.68C132.597 80.24 132.597 74.96 132.597 70.352V66.416ZM168.93 70.832H179.346V75.92H168.93V70.832ZM168.594 80.048H179.01V85.136H168.594V80.048ZM178.338 63.824H184.722V89.408H178.338V63.824ZM163.842 66.848H170.658C170.658 78.944 163.842 86.72 150.354 90.416L147.858 85.376C159.138 82.448 163.842 76.88 163.842 69.92V66.848ZM150.306 66.848H168.306V71.936H150.306V66.848ZM169.986 89.984C179.01 89.984 185.01 93.44 185.01 99.008C185.01 104.576 179.01 108.08 169.986 108.08C160.962 108.08 154.962 104.576 154.962 99.008C154.962 93.44 160.962 89.984 169.986 89.984ZM169.986 94.88C164.562 94.88 161.298 96.272 161.298 99.008C161.298 101.744 164.562 103.088 169.986 103.088C175.458 103.088 178.722 101.744 178.722 99.008C178.722 96.272 175.458 94.88 169.986 94.88ZM220.19 63.824H226.526V108.272H220.19V63.824ZM225.086 81.152H232.958V86.48H225.086V81.152ZM191.486 70.4H217.358V75.488H191.486V70.4ZM204.494 77.984C210.974 77.984 215.774 82.4 215.774 88.592C215.774 94.784 210.974 99.2 204.494 99.2C198.014 99.2 193.214 94.784 193.214 88.592C193.214 82.4 198.014 77.984 204.494 77.984ZM204.494 83.168C201.47 83.168 199.31 85.184 199.31 88.592C199.31 92 201.47 94.016 204.494 94.016C207.518 94.016 209.678 92 209.678 88.592C209.678 85.184 207.518 83.168 204.494 83.168ZM201.278 64.544H207.662V72.32H201.278V64.544ZM266.65 63.776H273.034V108.368H266.65V63.776ZM259.69 79.808H267.946V84.944H259.69V79.808ZM237.37 92.816H241.018C248.218 92.816 253.93 92.672 260.362 91.568L260.938 96.752C254.362 97.856 248.41 98.096 241.018 98.096H237.37V92.816ZM237.274 67.568H257.29V84.272H243.706V94.4H237.37V79.232H251.002V72.656H237.274V67.568ZM320.313 63.776H326.745V108.224H320.313V63.776ZM325.065 80.768H332.889V86H325.065V80.768ZM308.649 68.384H314.889C314.889 81.728 309.801 93.152 295.017 100.592L291.465 95.744C303.129 89.696 308.649 81.536 308.649 69.488V68.384ZM293.913 68.384H311.913V73.52H293.913V68.384ZM341.189 64.496H347.477V67.424H364.805V64.496H371.141V79.376H341.189V64.496ZM347.477 72.08V74.672H364.805V72.08H347.477ZM336.053 82.208H376.229V87.2H336.053V82.208ZM352.901 77.312H359.237V83.504H352.901V77.312ZM340.661 89.504H371.381V100.784H346.997V104.816H340.709V96.416H365.093V94.16H340.661V89.504ZM340.709 103.232H372.533V107.984H340.709V103.232ZM381.409 93.2H384.529C389.809 93.2 394.465 93.104 399.937 92.24L400.417 97.376C394.753 98.336 389.953 98.48 384.529 98.48H381.409V93.2ZM381.361 68.144H398.209V85.328H387.601V95.12H381.409V80.288H392.017V73.232H381.361V68.144ZM412.321 63.824H418.369V108.272H412.321V63.824ZM406.369 80.624H413.761V85.712H406.369V80.624ZM402.385 64.592H408.289V106.16H402.385V64.592ZM431.513 93.7386V93.2955C431.525 91.2386 431.718 89.6023 432.093 88.3864C432.479 87.1705 433.025 86.1932 433.729 85.4545C434.434 84.7045 435.292 84.017 436.303 83.392C436.996 82.9602 437.616 82.4886 438.161 81.9773C438.718 81.4545 439.156 80.875 439.474 80.2386C439.792 79.5909 439.951 78.8693 439.951 78.0739C439.951 77.1761 439.741 76.3977 439.32 75.7386C438.9 75.0795 438.332 74.5682 437.616 74.2045C436.911 73.8409 436.121 73.6591 435.246 73.6591C434.44 73.6591 433.673 73.8352 432.945 74.1875C432.229 74.5284 431.633 75.0511 431.156 75.7557C430.69 76.4489 430.428 77.3295 430.371 78.3977H424.303C424.36 76.2386 424.883 74.4318 425.871 72.9773C426.871 71.5227 428.19 70.4318 429.826 69.7045C431.474 68.9773 433.292 68.6136 435.281 68.6136C437.451 68.6136 439.36 68.9943 441.008 69.7557C442.667 70.517 443.957 71.6023 444.877 73.0114C445.809 74.4091 446.275 76.0682 446.275 77.9886C446.275 79.2841 446.065 80.4432 445.644 81.4659C445.235 82.4886 444.65 83.3977 443.888 84.1932C443.127 84.9886 442.224 85.6989 441.178 86.3239C440.258 86.892 439.502 87.483 438.911 88.0966C438.332 88.7102 437.9 89.4318 437.616 90.2614C437.343 91.0795 437.201 92.0909 437.19 93.2955V93.7386H431.513ZM434.479 104.375C433.457 104.375 432.576 104.011 431.837 103.284C431.099 102.557 430.729 101.67 430.729 100.625C430.729 99.6023 431.099 98.7273 431.837 98C432.576 97.2727 433.457 96.9091 434.479 96.9091C435.491 96.9091 436.366 97.2727 437.104 98C437.854 98.7273 438.229 99.6023 438.229 100.625C438.229 101.318 438.053 101.949 437.701 102.517C437.36 103.085 436.906 103.54 436.337 103.881C435.781 104.21 435.161 104.375 434.479 104.375Z" fill="#42655B"/>
</svg>
