<svg width="192" height="192" viewBox="0 0 192 192" fill="none" xmlns="http://www.w3.org/2000/svg">
<g clip-path="url(#clip0_1452_80)">
<path d="M52.1814 153.478H68.4834V156.844H52.1814V153.478ZM51.8184 166.744L51.3894 163.279C56.7024 163.279 63.7314 163.213 69.5394 162.553L69.7374 165.688C63.7974 166.645 57.0324 166.711 51.8184 166.744ZM54.5904 155.161H58.8144V165.292H54.5904V155.161ZM61.8834 155.161H66.0744V165.292H61.8834V155.161ZM71.2224 151.63H75.6114V167.272H71.2224V151.63ZM73.8294 157.603H79.6374V161.167H73.8294V157.603ZM55.4154 168.493H75.6114V176.743H59.8374V180.406H55.4814V173.608H71.2884V171.859H55.4154V168.493ZM55.4814 178.591H76.5024V181.99H55.4814V178.591ZM81.9448 175.258H109.599V178.822H81.9448V175.258ZM93.5278 169.483H97.9168V176.71H93.5278V169.483ZM85.0468 153.61H106.497V163.774H89.4688V168.922H85.1128V160.342H102.141V157.075H85.0468V153.61ZM85.1128 167.173H107.19V170.704H85.1128V167.173ZM119.661 168.856H124.05V181.264H119.661V168.856ZM133.752 151.63H138.174V182.188H133.752V151.63ZM112.698 170.704L112.17 167.14C117.846 167.14 125.337 167.107 131.838 166.216L132.069 169.417C125.403 170.605 118.275 170.704 112.698 170.704ZM127.647 172.189H134.643V175.489H127.647V172.189ZM122.07 152.884C126.558 152.884 129.825 155.458 129.825 159.154C129.825 162.883 126.558 165.424 122.07 165.424C117.516 165.424 114.282 162.883 114.282 159.154C114.282 155.458 117.516 152.884 122.07 152.884ZM122.07 156.184C119.892 156.184 118.374 157.306 118.374 159.154C118.374 161.035 119.892 162.091 122.07 162.091C124.182 162.091 125.7 161.035 125.7 159.154C125.7 157.306 124.182 156.184 122.07 156.184Z" fill="#8A8A8A"/>
<g filter="url(#filter0_d_1452_80)">
<path d="M81.0325 57.8366C85.1712 42.1962 107.37 42.1962 111.509 57.8366V57.8366C113.422 65.0669 120.153 69.9573 127.62 69.5426V69.5426C143.774 68.6456 150.634 89.7577 137.038 98.527V98.527C130.753 102.581 128.182 110.494 130.884 117.468V117.468C136.729 132.554 118.77 145.602 106.228 135.381V135.381C100.43 130.656 92.1105 130.656 86.3128 135.381V135.381C73.7714 145.602 55.8123 132.554 61.6572 117.468V117.468C64.3592 110.494 61.7882 102.581 55.503 98.527V98.527C41.907 89.7577 48.7668 68.6456 64.9206 69.5426V69.5426C72.3883 69.9573 79.1193 65.0669 81.0325 57.8366V57.8366Z" fill="white"/>
</g>
<mask id="path-3-outside-1_1452_80" maskUnits="userSpaceOnUse" x="85.7705" y="84.251" width="20" height="26" fill="black">
<rect fill="white" x="85.7705" y="84.251" width="20" height="26"/>
<path d="M87.5396 104.095V102.313L98.2388 85.251H99.5513V88.2393H98.5786L89.9888 101.974V102.126H104.016V104.095H87.5396ZM98.7427 109.251V103.532V102.712V85.251H100.829V109.251H98.7427Z"/>
</mask>
<g filter="url(#filter1_i_1452_80)">
<path d="M87.5396 104.095V102.313L98.2388 85.251H99.5513V88.2393H98.5786L89.9888 101.974V102.126H104.016V104.095H87.5396ZM98.7427 109.251V103.532V102.712V85.251H100.829V109.251H98.7427Z" fill="black" fill-opacity="0.8"/>
</g>
<path d="M87.5396 104.095H86.5396V105.095H87.5396V104.095ZM87.5396 102.313L86.6923 101.782L86.5396 102.026V102.313H87.5396ZM98.2388 85.251V84.251H97.6855L97.3916 84.7197L98.2388 85.251ZM99.5513 85.251H100.551V84.251H99.5513V85.251ZM99.5513 88.2393V89.2393H100.551V88.2393H99.5513ZM98.5786 88.2393V87.2393H98.0246L97.7308 87.709L98.5786 88.2393ZM89.9888 101.974L89.1409 101.443L88.9888 101.687V101.974H89.9888ZM89.9888 102.126H88.9888V103.126H89.9888V102.126ZM104.016 102.126H105.016V101.126H104.016V102.126ZM104.016 104.095V105.095H105.016V104.095H104.016ZM98.7427 109.251H97.7427V110.251H98.7427V109.251ZM98.7427 85.251V84.251H97.7427V85.251H98.7427ZM100.829 85.251H101.829V84.251H100.829V85.251ZM100.829 109.251V110.251H101.829V109.251H100.829ZM88.5396 104.095V102.313H86.5396V104.095H88.5396ZM88.3868 102.845L99.086 85.7822L97.3916 84.7197L86.6923 101.782L88.3868 102.845ZM98.2388 86.251H99.5513V84.251H98.2388V86.251ZM98.5513 85.251V88.2393H100.551V85.251H98.5513ZM99.5513 87.2393H98.5786V89.2393H99.5513V87.2393ZM97.7308 87.709L89.1409 101.443L90.8366 102.504L99.4264 88.7695L97.7308 87.709ZM88.9888 101.974V102.126H90.9888V101.974H88.9888ZM89.9888 103.126H104.016V101.126H89.9888V103.126ZM103.016 102.126V104.095H105.016V102.126H103.016ZM104.016 103.095H87.5396V105.095H104.016V103.095ZM99.7427 109.251V103.532H97.7427V109.251H99.7427ZM99.7427 103.532V102.712H97.7427V103.532H99.7427ZM99.7427 102.712V85.251H97.7427V102.712H99.7427ZM98.7427 86.251H100.829V84.251H98.7427V86.251ZM99.8286 85.251V109.251H101.829V85.251H99.8286ZM100.829 108.251H98.7427V110.251H100.829V108.251Z" fill="black" mask="url(#path-3-outside-1_1452_80)"/>
</g>
<defs>
<filter id="filter0_d_1452_80" x="44.2471" y="46.1064" width="104.047" height="100.909" filterUnits="userSpaceOnUse" color-interpolation-filters="sRGB">
<feFlood flood-opacity="0" result="BackgroundImageFix"/>
<feColorMatrix in="SourceAlpha" type="matrix" values="0 0 0 0 0 0 0 0 0 0 0 0 0 0 0 0 0 0 127 0" result="hardAlpha"/>
<feOffset dy="4"/>
<feGaussianBlur stdDeviation="2"/>
<feComposite in2="hardAlpha" operator="out"/>
<feColorMatrix type="matrix" values="0 0 0 0 0 0 0 0 0 0 0 0 0 0 0 0 0 0 0.25 0"/>
<feBlend mode="normal" in2="BackgroundImageFix" result="effect1_dropShadow_1452_80"/>
<feBlend mode="normal" in="SourceGraphic" in2="effect1_dropShadow_1452_80" result="shape"/>
</filter>
<filter id="filter1_i_1452_80" x="87.5391" y="85.251" width="16.4766" height="28" filterUnits="userSpaceOnUse" color-interpolation-filters="sRGB">
<feFlood flood-opacity="0" result="BackgroundImageFix"/>
<feBlend mode="normal" in="SourceGraphic" in2="BackgroundImageFix" result="shape"/>
<feColorMatrix in="SourceAlpha" type="matrix" values="0 0 0 0 0 0 0 0 0 0 0 0 0 0 0 0 0 0 127 0" result="hardAlpha"/>
<feOffset dy="4"/>
<feGaussianBlur stdDeviation="2"/>
<feComposite in2="hardAlpha" operator="arithmetic" k2="-1" k3="1"/>
<feColorMatrix type="matrix" values="0 0 0 0 0 0 0 0 0 0 0 0 0 0 0 0 0 0 0.25 0"/>
<feBlend mode="normal" in2="shape" result="effect1_innerShadow_1452_80"/>
</filter>
<clipPath id="clip0_1452_80">
<rect width="191" height="191" fill="white" transform="translate(0.770508 0.250977)"/>
</clipPath>
</defs>
</svg>
