<svg width="191" height="192" viewBox="0 0 191 192" fill="none" xmlns="http://www.w3.org/2000/svg">
<g clip-path="url(#clip0_1452_80)">
<path d="M51.4109 154.159H67.7129V157.525H51.4109V154.159ZM51.0479 167.425L50.6189 163.96C55.9319 163.96 62.9609 163.894 68.7689 163.234L68.9669 166.369C63.0269 167.326 56.2619 167.392 51.0479 167.425ZM53.8199 155.842H58.0439V165.973H53.8199V155.842ZM61.1129 155.842H65.3039V165.973H61.1129V155.842ZM70.4519 152.311H74.8409V167.953H70.4519V152.311ZM73.0589 158.284H78.8669V161.848H73.0589V158.284ZM54.6449 169.174H74.8409V177.424H59.0669V181.087H54.7109V174.289H70.5179V172.54H54.6449V169.174ZM54.7109 179.272H75.7319V182.671H54.7109V179.272ZM81.1743 175.939H108.828V179.503H81.1743V175.939ZM92.7573 170.164H97.1463V177.391H92.7573V170.164ZM84.2763 154.291H105.726V164.455H88.6983V169.603H84.3423V161.023H101.37V157.756H84.2763V154.291ZM84.3423 167.854H106.419V171.385H84.3423V167.854ZM132.487 152.344H136.909V170.23H132.487V152.344ZM126.547 170.824C132.982 170.824 137.041 173.068 137.041 176.863C137.041 180.658 132.982 182.869 126.547 182.869C120.112 182.869 116.119 180.658 116.119 176.863C116.119 173.068 120.112 170.824 126.547 170.824ZM126.547 174.256C122.587 174.256 120.508 175.081 120.508 176.863C120.508 178.612 122.587 179.503 126.547 179.503C130.54 179.503 132.652 178.612 132.652 176.863C132.652 175.081 130.54 174.256 126.547 174.256ZM120.277 154.06C125.029 154.06 128.56 157.096 128.56 161.353C128.56 165.643 125.029 168.679 120.277 168.679C115.525 168.679 111.961 165.643 111.961 161.353C111.961 157.096 115.525 154.06 120.277 154.06ZM120.277 157.69C117.967 157.69 116.251 159.043 116.251 161.353C116.251 163.696 117.967 165.049 120.277 165.049C122.587 165.049 124.27 163.696 124.27 161.353C124.27 159.043 122.587 157.69 120.277 157.69Z" fill="#8A8A8A"/>
<g filter="url(#filter0_d_1452_80)">
<path d="M80.262 58.5172C84.4007 42.8769 106.599 42.8769 110.738 58.5172V58.5172C112.651 65.7476 119.382 70.6379 126.85 70.2232V70.2232C143.004 69.3262 149.863 90.4384 136.268 99.2076V99.2076C129.982 103.262 127.411 111.174 130.113 118.148V118.148C135.958 133.234 117.999 146.282 105.458 136.062V136.062C99.66 131.337 91.34 131.337 85.5423 136.062V136.062C73.0008 146.282 55.0418 133.234 60.8867 118.148V118.148C63.5887 111.174 61.0177 103.262 54.7325 99.2076V99.2076C41.1365 90.4384 47.9963 69.3262 64.1501 70.2232V70.2232C71.6178 70.6379 78.3487 65.7476 80.262 58.5172V58.5172Z" fill="white"/>
</g>
<mask id="path-3-outside-1_1452_80" maskUnits="userSpaceOnUse" x="85" y="84.9316" width="20" height="26" fill="black">
<rect fill="white" x="85" y="84.9316" width="20" height="26"/>
<path d="M86.769 104.775V102.994L97.4683 85.9316H98.7808V88.9199H97.8081L89.2183 102.654V102.807H103.246V104.775H86.769ZM97.9722 109.932V104.213V103.393V85.9316H100.058V109.932H97.9722Z"/>
</mask>
<g filter="url(#filter1_i_1452_80)">
<path d="M86.769 104.775V102.994L97.4683 85.9316H98.7808V88.9199H97.8081L89.2183 102.654V102.807H103.246V104.775H86.769ZM97.9722 109.932V104.213V103.393V85.9316H100.058V109.932H97.9722Z" fill="black" fill-opacity="0.8"/>
</g>
<path d="M86.769 104.775H85.769V105.775H86.769V104.775ZM86.769 102.994L85.9218 102.463L85.769 102.707V102.994H86.769ZM97.4683 85.9316V84.9316H96.915L96.621 85.4004L97.4683 85.9316ZM98.7808 85.9316H99.7808V84.9316H98.7808V85.9316ZM98.7808 88.9199V89.9199H99.7808V88.9199H98.7808ZM97.8081 88.9199V87.9199H97.2541L96.9603 88.3897L97.8081 88.9199ZM89.2183 102.654L88.3704 102.124L88.2183 102.367V102.654H89.2183ZM89.2183 102.807H88.2183V103.807H89.2183V102.807ZM103.246 102.807H104.246V101.807H103.246V102.807ZM103.246 104.775V105.775H104.246V104.775H103.246ZM97.9722 109.932H96.9722V110.932H97.9722V109.932ZM97.9722 85.9316V84.9316H96.9722V85.9316H97.9722ZM100.058 85.9316H101.058V84.9316H100.058V85.9316ZM100.058 109.932V110.932H101.058V109.932H100.058ZM87.769 104.775V102.994H85.769V104.775H87.769ZM87.6163 103.525L98.3155 86.4629L96.621 85.4004L85.9218 102.463L87.6163 103.525ZM97.4683 86.9316H98.7808V84.9316H97.4683V86.9316ZM97.7808 85.9316V88.9199H99.7808V85.9316H97.7808ZM98.7808 87.9199H97.8081V89.9199H98.7808V87.9199ZM96.9603 88.3897L88.3704 102.124L90.0661 103.185L98.6559 89.4502L96.9603 88.3897ZM88.2183 102.654V102.807H90.2183V102.654H88.2183ZM89.2183 103.807H103.246V101.807H89.2183V103.807ZM102.246 102.807V104.775H104.246V102.807H102.246ZM103.246 103.775H86.769V105.775H103.246V103.775ZM98.9722 109.932V104.213H96.9722V109.932H98.9722ZM98.9722 104.213V103.393H96.9722V104.213H98.9722ZM98.9722 103.393V85.9316H96.9722V103.393H98.9722ZM97.9722 86.9316H100.058V84.9316H97.9722V86.9316ZM99.0581 85.9316V109.932H101.058V85.9316H99.0581ZM100.058 108.932H97.9722V110.932H100.058V108.932Z" fill="black" mask="url(#path-3-outside-1_1452_80)"/>
</g>
<defs>
<filter id="filter0_d_1452_80" x="43.4766" y="46.7871" width="104.047" height="100.909" filterUnits="userSpaceOnUse" color-interpolation-filters="sRGB">
<feFlood flood-opacity="0" result="BackgroundImageFix"/>
<feColorMatrix in="SourceAlpha" type="matrix" values="0 0 0 0 0 0 0 0 0 0 0 0 0 0 0 0 0 0 127 0" result="hardAlpha"/>
<feOffset dy="4"/>
<feGaussianBlur stdDeviation="2"/>
<feComposite in2="hardAlpha" operator="out"/>
<feColorMatrix type="matrix" values="0 0 0 0 0 0 0 0 0 0 0 0 0 0 0 0 0 0 0.25 0"/>
<feBlend mode="normal" in2="BackgroundImageFix" result="effect1_dropShadow_1452_80"/>
<feBlend mode="normal" in="SourceGraphic" in2="effect1_dropShadow_1452_80" result="shape"/>
</filter>
<filter id="filter1_i_1452_80" x="86.7695" y="85.9316" width="16.4766" height="28" filterUnits="userSpaceOnUse" color-interpolation-filters="sRGB">
<feFlood flood-opacity="0" result="BackgroundImageFix"/>
<feBlend mode="normal" in="SourceGraphic" in2="BackgroundImageFix" result="shape"/>
<feColorMatrix in="SourceAlpha" type="matrix" values="0 0 0 0 0 0 0 0 0 0 0 0 0 0 0 0 0 0 127 0" result="hardAlpha"/>
<feOffset dy="4"/>
<feGaussianBlur stdDeviation="2"/>
<feComposite in2="hardAlpha" operator="arithmetic" k2="-1" k3="1"/>
<feColorMatrix type="matrix" values="0 0 0 0 0 0 0 0 0 0 0 0 0 0 0 0 0 0 0.25 0"/>
<feBlend mode="normal" in2="shape" result="effect1_innerShadow_1452_80"/>
</filter>
<clipPath id="clip0_1452_80">
<rect width="191" height="191" fill="white" transform="translate(0 0.931641)"/>
</clipPath>
</defs>
</svg>
