<svg width="761" height="58" viewBox="0 0 761 58" fill="none" xmlns="http://www.w3.org/2000/svg">
<path d="M67.4191 5.824H73.8031V50.416H67.4191V5.824ZM55.4671 19.552H69.2431V24.688H55.4671V19.552ZM38.7631 10.576H45.0991V38.176H38.7631V10.576ZM38.7631 34.672H42.5071C48.8431 34.672 55.4191 34.24 62.3311 32.848L63.0031 38.128C55.8511 39.568 49.0351 39.952 42.5071 39.952H38.7631V34.672ZM94.9193 8.752C101.927 8.752 107.159 13.312 107.159 19.696C107.159 26.128 101.927 30.688 94.9193 30.688C87.9593 30.688 82.6313 26.128 82.6313 19.696C82.6313 13.312 87.9593 8.752 94.9193 8.752ZM94.9193 14.224C91.5113 14.224 88.9193 16.24 88.9193 19.696C88.9193 23.2 91.5113 25.216 94.9193 25.216C98.3273 25.216 100.919 23.2 100.919 19.696C100.919 16.24 98.3273 14.224 94.9193 14.224ZM111.335 5.776H117.719V50.368H111.335V5.776ZM81.5753 41.344L80.8073 36.208C88.6313 36.208 99.5273 36.112 108.887 34.72L109.367 39.328C99.7193 41.248 89.2553 41.344 81.5753 41.344ZM147.094 7.84H152.374V12.112C152.374 20.512 148.294 28.144 139.606 30.928L136.486 25.888C143.974 23.488 147.094 17.728 147.094 12.112V7.84ZM148.39 7.84H153.622V12.112C153.622 17.584 156.694 22.96 163.942 25.168L160.822 30.16C152.326 27.472 148.39 20.368 148.39 12.112V7.84ZM143.302 34.288H173.638V50.272H167.206V39.376H143.302V34.288ZM167.206 5.824H173.638V32.32H167.206V5.824ZM197.682 27.184H204.066V33.376H197.682V27.184ZM180.834 23.44H221.01V28.432H180.834V23.44ZM185.778 7.12H215.922V21.088H185.778V7.12ZM209.634 12.064H192.066V16.192H209.634V12.064ZM185.442 31.216H216.162V42.64H191.778V46.576H185.49V38.224H209.874V35.968H185.442V31.216ZM185.49 45.184H217.314V49.984H185.49V45.184ZM225.038 23.056H265.262V28.096H225.038V23.056ZM229.982 15.664H260.51V20.656H229.982V15.664ZM229.982 6.64H260.126V11.728H236.318V19.984H229.982V6.64ZM229.598 30.592H260.318V42.352H235.934V46.192H229.646V37.84H254.03V35.392H229.598V30.592ZM229.646 45.04H261.47V49.936H229.646V45.04ZM269.195 40.192H309.419V45.376H269.195V40.192ZM286.043 31.792H292.427V42.304H286.043V31.792ZM273.707 8.704H304.907V23.488H280.139V30.976H273.803V18.496H298.571V13.744H273.707V8.704ZM273.803 28.432H305.915V33.568H273.803V28.432ZM329.529 34.192H361.161V39.232H329.529V34.192ZM329.097 44.56H361.641V49.6H329.097V44.56ZM335.433 36.016H341.721V49.12H335.433V36.016ZM348.969 36.016H355.257V49.12H348.969V36.016ZM342.057 28.24H348.489V35.248H342.057V28.24ZM325.209 25.504H365.385V30.592H325.209V25.504ZM342.057 6.304H347.529V7.648C347.529 15.472 340.905 21.904 329.433 23.392L327.177 18.448C337.161 17.248 342.057 12.256 342.057 7.648V6.304ZM343.113 6.304H348.585V7.648C348.585 12.208 353.481 17.248 363.417 18.448L361.161 23.392C349.689 21.904 343.113 15.424 343.113 7.648V6.304ZM389.477 6.448C399.605 6.448 405.557 9.136 405.557 14.032C405.557 18.928 399.605 21.616 389.477 21.616C379.301 21.616 373.397 18.928 373.397 14.032C373.397 9.136 379.301 6.448 389.477 6.448ZM389.477 11.104C383.045 11.104 380.021 12.064 380.021 14.032C380.021 16.096 383.045 16.96 389.477 16.96C395.909 16.96 398.933 16.096 398.933 14.032C398.933 12.064 395.909 11.104 389.477 11.104ZM369.365 23.68H409.541V28.72H369.365V23.68ZM373.973 31.216H404.693V42.64H380.309V46.576H374.021V38.224H398.405V35.968H373.973V31.216ZM374.021 45.184H405.845V49.984H374.021V45.184ZM425.428 26.464H465.604V31.648H425.428V26.464ZM442.132 30.88H448.516V50.224H442.132V30.88ZM428.596 8.512H438.964V13.552H428.596V8.512ZM436.9 8.512H443.188V11.344C443.188 15.28 443.188 20.8 440.98 28.624L434.74 27.616C436.9 20.224 436.9 15.184 436.9 11.344V8.512ZM446.212 8.512H457.828V13.552H446.212V8.512ZM454.948 8.512H461.236V11.632C461.236 15.664 461.236 21.088 459.508 28.576L453.268 27.664C454.948 20.56 454.948 15.568 454.948 11.632V8.512ZM471.792 9.808H493.152V39.712H471.792V9.808ZM486.912 14.8H478.08V34.672H486.912V14.8ZM500.064 5.776H506.496V50.368H500.064V5.776ZM544.556 5.776H550.94V50.368H544.556V5.776ZM537.596 21.808H545.852V26.944H537.596V21.808ZM515.276 34.816H518.924C526.124 34.816 531.836 34.672 538.268 33.568L538.844 38.752C532.268 39.856 526.316 40.096 518.924 40.096H515.276V34.816ZM515.18 9.568H535.196V26.272H521.612V36.4H515.276V21.232H528.908V14.656H515.18V9.568ZM598.219 5.776H604.651V50.224H598.219V5.776ZM602.971 22.768H610.795V28H602.971V22.768ZM586.555 10.384H592.795C592.795 23.728 587.707 35.152 572.923 42.592L569.371 37.744C581.035 31.696 586.555 23.536 586.555 11.488V10.384ZM571.819 10.384H589.819V15.52H571.819V10.384ZM619.095 6.496H625.383V9.424H642.711V6.496H649.047V21.376H619.095V6.496ZM625.383 14.08V16.672H642.711V14.08H625.383ZM613.959 24.208H654.135V29.2H613.959V24.208ZM630.807 19.312H637.143V25.504H630.807V19.312ZM618.567 31.504H649.287V42.784H624.903V46.816H618.615V38.416H642.999V36.16H618.567V31.504ZM618.615 45.232H650.439V49.984H618.615V45.232ZM659.315 35.2H662.435C667.715 35.2 672.371 35.104 677.843 34.24L678.323 39.376C672.659 40.336 667.859 40.48 662.435 40.48H659.315V35.2ZM659.267 10.144H676.115V27.328H665.507V37.12H659.315V22.288H669.923V15.232H659.267V10.144ZM690.227 5.824H696.275V50.272H690.227V5.824ZM684.275 22.624H691.667V27.712H684.275V22.624ZM680.291 6.592H686.195V48.16H680.291V6.592ZM709.42 35.7386V35.2955C709.431 33.2386 709.624 31.6023 709.999 30.3864C710.386 29.1705 710.931 28.1932 711.636 27.4545C712.34 26.7045 713.198 26.017 714.21 25.392C714.903 24.9602 715.522 24.4886 716.067 23.9773C716.624 23.4545 717.062 22.875 717.38 22.2386C717.698 21.5909 717.857 20.8693 717.857 20.0739C717.857 19.1761 717.647 18.3977 717.227 17.7386C716.806 17.0795 716.238 16.5682 715.522 16.2045C714.817 15.8409 714.028 15.6591 713.153 15.6591C712.346 15.6591 711.579 15.8352 710.852 16.1875C710.136 16.5284 709.539 17.0511 709.062 17.7557C708.596 18.4489 708.335 19.3295 708.278 20.3977H702.21C702.266 18.2386 702.789 16.4318 703.778 14.9773C704.778 13.5227 706.096 12.4318 707.732 11.7045C709.38 10.9773 711.198 10.6136 713.187 10.6136C715.357 10.6136 717.266 10.9943 718.914 11.7557C720.573 12.517 721.863 13.6023 722.783 15.0114C723.715 16.4091 724.181 18.0682 724.181 19.9886C724.181 21.2841 723.971 22.4432 723.55 23.4659C723.141 24.4886 722.556 25.3977 721.795 26.1932C721.033 26.9886 720.13 27.6989 719.085 28.3239C718.164 28.892 717.408 29.483 716.817 30.0966C716.238 30.7102 715.806 31.4318 715.522 32.2614C715.249 33.0795 715.107 34.0909 715.096 35.2955V35.7386H709.42ZM712.386 46.375C711.363 46.375 710.482 46.0114 709.744 45.2841C709.005 44.5568 708.636 43.6705 708.636 42.625C708.636 41.6023 709.005 40.7273 709.744 40C710.482 39.2727 711.363 38.9091 712.386 38.9091C713.397 38.9091 714.272 39.2727 715.011 40C715.761 40.7273 716.136 41.6023 716.136 42.625C716.136 43.3182 715.96 43.9489 715.607 44.517C715.266 45.0852 714.812 45.5398 714.244 45.8807C713.687 46.2102 713.067 46.375 712.386 46.375Z" fill="#42655B"/>
</svg>
