<svg width="176" height="53" viewBox="0 0 176 53" fill="none" xmlns="http://www.w3.org/2000/svg">
<g clip-path="url(#clip0_1521_6)">
<path d="M51.0629 20.4609H58.8869V25.6929H51.0629V20.4609ZM46.3109 3.61291H52.7429V48.0609H46.3109V3.61291ZM19.2389 7.88491H25.6229V35.4849H19.2389V7.88491ZM19.2389 31.9329H23.0789C29.4149 31.9329 36.2789 31.5009 43.4309 30.0609L44.1029 35.2929C36.7589 36.8289 29.6069 37.2129 23.0789 37.2129H19.2389V31.9329ZM76.3551 6.58891C83.3631 6.58891 88.5951 11.1489 88.5951 17.5329C88.5951 23.9649 83.3631 28.5249 76.3551 28.5249C69.3951 28.5249 64.0671 23.9649 64.0671 17.5329C64.0671 11.1489 69.3951 6.58891 76.3551 6.58891ZM76.3551 12.0609C72.9471 12.0609 70.3551 14.0769 70.3551 17.5329C70.3551 21.0369 72.9471 23.0529 76.3551 23.0529C79.7631 23.0529 82.3551 21.0369 82.3551 17.5329C82.3551 14.0769 79.7631 12.0609 76.3551 12.0609ZM92.7711 3.61291H99.1551V48.2049H92.7711V3.61291ZM63.0111 39.1809L62.2431 34.0449C70.0671 34.0449 80.9631 33.9489 90.3231 32.5569L90.8031 37.1649C81.1551 39.0849 70.6911 39.1809 63.0111 39.1809ZM122.434 32.0289H154.066V37.0689H122.434V32.0289ZM122.002 42.3969H154.546V47.4369H122.002V42.3969ZM128.338 33.8529H134.626V46.9569H128.338V33.8529ZM141.874 33.8529H148.162V46.9569H141.874V33.8529ZM134.962 26.0769H141.394V33.0849H134.962V26.0769ZM118.114 23.3409H158.29V28.4289H118.114V23.3409ZM134.962 4.14091H140.434V5.48491C140.434 13.3089 133.81 19.7409 122.338 21.2289L120.082 16.2849C130.066 15.0849 134.962 10.0929 134.962 5.48491V4.14091ZM136.018 4.14091H141.49V5.48491C141.49 10.0449 146.386 15.0849 156.322 16.2849L154.066 21.2289C142.594 19.7409 136.018 13.2609 136.018 5.48491V4.14091Z" fill="#42655B"/>
</g>
<defs>
<clipPath id="clip0_1521_6">
<rect width="175" height="53" fill="white" transform="translate(0.257812)"/>
</clipPath>
</defs>
</svg>
