<svg width="422" height="440" viewBox="0 0 422 440" fill="none" xmlns="http://www.w3.org/2000/svg">
<mask id="path-1-outside-1_1215_15" maskUnits="userSpaceOnUse" x="70.7085" y="84.1133" width="280" height="255" fill="black">
<rect fill="white" x="70.7085" y="84.1133" width="280" height="255"/>
<path d="M90.9487 319.113V255.513C90.9487 235.513 96.5487 220.013 107.749 209.013C118.949 198.013 135.249 192.513 156.649 192.513H255.349C274.349 192.513 283.849 184.413 283.849 168.213C283.849 152.013 274.349 143.913 255.349 143.913H95.7487V104.913H264.649C285.449 104.913 301.549 110.513 312.949 121.713C324.549 132.913 330.349 148.413 330.349 168.213C330.349 188.013 324.549 203.513 312.949 214.713C301.549 225.913 285.449 231.513 264.649 231.513H163.249C154.649 231.513 148.149 233.713 143.749 238.113C139.549 242.313 137.449 248.313 137.449 256.113V280.413H324.649V319.113H90.9487Z"/>
</mask>
<path d="M90.9487 319.113V255.513C90.9487 235.513 96.5487 220.013 107.749 209.013C118.949 198.013 135.249 192.513 156.649 192.513H255.349C274.349 192.513 283.849 184.413 283.849 168.213C283.849 152.013 274.349 143.913 255.349 143.913H95.7487V104.913H264.649C285.449 104.913 301.549 110.513 312.949 121.713C324.549 132.913 330.349 148.413 330.349 168.213C330.349 188.013 324.549 203.513 312.949 214.713C301.549 225.913 285.449 231.513 264.649 231.513H163.249C154.649 231.513 148.149 233.713 143.749 238.113C139.549 242.313 137.449 248.313 137.449 256.113V280.413H324.649V319.113H90.9487Z" fill="black"/>
<path d="M90.9487 319.113H70.9487V339.113H90.9487V319.113ZM95.7487 143.913H75.7487V163.913H95.7487V143.913ZM95.7487 104.913V84.9133H75.7487V104.913H95.7487ZM312.949 121.713L298.932 135.98L298.994 136.041L299.057 136.101L312.949 121.713ZM312.949 214.713L299.057 200.325L298.994 200.386L298.932 200.447L312.949 214.713ZM143.749 238.113L157.891 252.255L157.891 252.255L143.749 238.113ZM137.449 280.413H117.449V300.413H137.449V280.413ZM324.649 280.413H344.649V260.413H324.649V280.413ZM324.649 319.113V339.113H344.649V319.113H324.649ZM110.949 319.113V255.513H70.9487V319.113H110.949ZM110.949 255.513C110.949 239.332 115.371 229.56 121.763 223.282L93.7346 194.744C77.7268 210.466 70.9487 231.694 70.9487 255.513H110.949ZM121.763 223.282C128.033 217.124 138.545 212.513 156.649 212.513V172.513C131.953 172.513 109.865 178.902 93.7346 194.744L121.763 223.282ZM156.649 212.513H255.349V172.513H156.649V212.513ZM255.349 212.513C267.221 212.513 279.856 210.05 289.7 201.657C300.154 192.744 303.849 180.304 303.849 168.213H263.849C263.849 170.353 263.531 171.332 263.44 171.562C263.398 171.672 263.499 171.431 263.748 171.219C264.091 170.926 262.476 172.513 255.349 172.513V212.513ZM303.849 168.213C303.849 156.123 300.154 143.683 289.7 134.769C279.856 126.376 267.221 123.913 255.349 123.913V163.913C262.476 163.913 264.091 165.5 263.748 165.207C263.499 164.996 263.398 164.755 263.44 164.864C263.531 165.095 263.849 166.074 263.849 168.213H303.849ZM255.349 123.913H95.7487V163.913H255.349V123.913ZM115.749 143.913V104.913H75.7487V143.913H115.749ZM95.7487 124.913H264.649V84.9133H95.7487V124.913ZM264.649 124.913C281.848 124.913 292.3 129.464 298.932 135.98L326.965 107.447C310.797 91.5623 289.049 84.9133 264.649 84.9133V124.913ZM299.057 136.101C305.895 142.704 310.349 152.518 310.349 168.213H350.349C350.349 144.309 343.202 123.123 326.841 107.325L299.057 136.101ZM310.349 168.213C310.349 183.909 305.895 193.723 299.057 200.325L326.841 229.101C343.202 213.304 350.349 192.118 350.349 168.213H310.349ZM298.932 200.447C292.3 206.962 281.848 211.513 264.649 211.513V251.513C289.049 251.513 310.797 244.864 326.965 228.98L298.932 200.447ZM264.649 211.513H163.249V251.513H264.649V211.513ZM163.249 211.513C151.411 211.513 139.002 214.576 129.607 223.971L157.891 252.255C157.702 252.445 157.694 252.325 158.336 252.108C159.073 251.858 160.601 251.513 163.249 251.513V211.513ZM129.607 223.971C120.59 232.987 117.449 244.735 117.449 256.113H157.449C157.449 253.971 157.741 252.827 157.901 252.37C158.03 252.002 158.062 252.084 157.891 252.255L129.607 223.971ZM117.449 256.113V280.413H157.449V256.113H117.449ZM137.449 300.413H324.649V260.413H137.449V300.413ZM304.649 280.413V319.113H344.649V280.413H304.649ZM324.649 299.113H90.9487V339.113H324.649V299.113Z" fill="white" mask="url(#path-1-outside-1_1215_15)"/>
</svg>
