<svg width="250" height="200" viewBox="0 0 250 200" fill="none" xmlns="http://www.w3.org/2000/svg">
<path d="M67.6616 84.684H71.9496V114.412H67.6616V84.684ZM70.9896 95.66H76.2376V99.148H70.9896V95.66ZM49.8696 103.756H52.3656C57.3576 103.756 61.2936 103.596 65.6456 102.828L66.0616 106.348C61.5816 107.148 57.5176 107.276 52.3656 107.276H49.8696V103.756ZM49.8696 87.436H63.6936V90.86H54.0936V105.452H49.8696V87.436ZM85.3871 86.988H88.8431V91.308C88.8431 98.924 86.2191 105.804 80.3311 108.524L77.8031 105.004C82.9551 102.764 85.3871 97.068 85.3871 91.308V86.988ZM86.2191 86.988H89.6751V91.308C89.6751 96.78 92.0111 102.22 97.0671 104.396L94.5711 107.82C88.8431 105.196 86.2191 98.604 86.2191 91.308V86.988ZM98.4751 84.684H102.763V114.412H98.4751V84.684ZM118.282 87.212H137.066V90.636H118.282V87.212ZM115.562 107.34H142.346V110.796H115.562V107.34ZM125.034 97.164H129.29V109.036H125.034V97.164ZM135.53 87.212H139.786V90.06C139.786 93.772 139.786 97.932 138.602 104.268L134.346 103.788C135.53 97.9 135.53 93.612 135.53 90.06V87.212ZM144.968 97.996H171.816V101.1H144.968V97.996ZM147.976 102.572H168.616V109.612H152.264V112.14H148.04V106.924H164.424V105.452H147.976V102.572ZM148.04 111.244H169.448V114.124H148.04V111.244ZM148.264 85.228H168.552V92.204H152.52V94.636H148.296V89.548H164.36V88.076H148.264V85.228ZM148.296 93.74H169.096V96.62H148.296V93.74ZM175.205 104.3H177.285C180.805 104.3 183.909 104.236 187.557 103.66L187.877 107.084C184.101 107.724 180.901 107.82 177.285 107.82H175.205V104.3ZM175.173 87.596H186.405V99.052H179.333V105.58H175.205V95.692H182.277V90.988H175.173V87.596ZM195.813 84.716H199.845V114.348H195.813V84.716ZM191.845 95.916H196.773V99.308H191.845V95.916ZM189.189 85.228H193.125V112.94H189.189V85.228Z" fill="black"/>
</svg>
