<svg width="250" height="200" viewBox="0 0 250 200" fill="none" xmlns="http://www.w3.org/2000/svg">
<path d="M58.4988 98.54H85.2828V101.9H58.4988V98.54ZM71.8428 103.5C78.2428 103.5 82.1148 105.452 82.1148 108.94C82.1148 112.428 78.2428 114.38 71.8428 114.38C65.4108 114.38 61.5388 112.428 61.5388 108.94C61.5388 105.452 65.4108 103.5 71.8428 103.5ZM71.8428 106.732C67.8748 106.732 65.8588 107.436 65.8588 108.94C65.8588 110.476 67.8748 111.148 71.8428 111.148C75.8108 111.148 77.8268 110.476 77.8268 108.94C77.8268 107.436 75.8108 106.732 71.8428 106.732ZM71.9068 85.324C78.4028 85.324 82.6268 87.564 82.6268 91.148C82.6268 94.764 78.4028 96.972 71.9068 96.972C65.3788 96.972 61.1868 94.764 61.1868 91.148C61.1868 87.564 65.3788 85.324 71.9068 85.324ZM71.9068 88.62C67.8428 88.62 65.5708 89.452 65.5708 91.148C65.5708 92.876 67.8428 93.676 71.9068 93.676C75.9388 93.676 78.2428 92.876 78.2428 91.148C78.2428 89.452 75.9388 88.62 71.9068 88.62ZM93.8041 88.2273L93.4291 104.659H89.77L89.4063 88.2273H93.8041ZM91.5995 111.75C90.9101 111.75 90.3192 111.508 89.8268 111.023C89.3419 110.538 89.0995 109.947 89.0995 109.25C89.0995 108.568 89.3419 107.985 89.8268 107.5C90.3192 107.015 90.9101 106.773 91.5995 106.773C92.2738 106.773 92.8571 107.015 93.3495 107.5C93.8495 107.985 94.0995 108.568 94.0995 109.25C94.0995 109.712 93.9821 110.133 93.7473 110.511C93.52 110.89 93.2169 111.193 92.8382 111.42C92.4669 111.64 92.0541 111.75 91.5995 111.75ZM108.501 87.436H127.285V90.796H108.501V87.436ZM105.781 107.02H132.565V110.476H105.781V107.02ZM125.045 87.436H129.269V90.956C129.269 95.116 129.269 99.148 128.213 105.228L123.957 104.876C125.045 99.18 125.045 94.956 125.045 90.956V87.436ZM136.306 96.236H138.706C144.306 96.236 147.698 96.204 151.666 95.532L151.986 98.796C147.922 99.436 144.402 99.5 138.706 99.5H136.306V96.236ZM136.274 86.06H149.65V94.188H140.53V97.772H136.306V91.212H145.458V89.26H136.274V86.06ZM140.178 101.292H159.986V109.164H144.434V112.332H140.21V106.188H155.762V104.46H140.178V101.292ZM140.21 110.924H160.85V114.156H140.21V110.924ZM155.73 84.716H159.986V100.14H155.73V84.716ZM151.09 90.06H156.626V93.452H151.09V90.06ZM165.424 104.3H167.504C171.024 104.3 174.128 104.236 177.776 103.66L178.096 107.084C174.32 107.724 171.12 107.82 167.504 107.82H165.424V104.3ZM165.392 87.596H176.624V99.052H169.552V105.58H165.424V95.692H172.496V90.988H165.392V87.596ZM186.032 84.716H190.064V114.348H186.032V84.716ZM182.064 95.916H186.992V99.308H182.064V95.916ZM179.408 85.228H183.344V112.94H179.408V85.228Z" fill="black"/>
</svg>
