<svg width="422" height="439" viewBox="0 0 422 439" fill="none" xmlns="http://www.w3.org/2000/svg">
<mask id="path-1-outside-1_1215_8" maskUnits="userSpaceOnUse" x="71.1079" y="103.663" width="280" height="255" fill="black">
<rect fill="white" x="71.1079" y="103.663" width="280" height="255"/>
<path d="M91.1519 338.663V299.663H256.152C263.752 299.663 269.452 297.563 273.252 293.363C277.052 288.963 278.952 282.963 278.952 275.363C278.952 267.563 277.052 261.463 273.252 257.063C269.452 252.663 263.752 250.463 256.152 250.463H119.352V211.763H255.852C271.252 211.763 278.952 203.663 278.952 187.463C278.952 171.463 271.252 163.463 255.852 163.463H91.1519V124.463H264.852C285.652 124.463 301.752 129.663 313.152 140.063C324.752 150.263 330.552 164.563 330.552 182.963C330.552 192.963 328.652 202.463 324.852 211.463C321.052 220.263 314.752 226.763 305.952 230.963C314.752 235.363 321.052 241.863 324.852 250.463C328.652 258.863 330.552 268.163 330.552 278.363C330.552 296.563 324.752 311.163 313.152 322.163C301.752 333.163 285.652 338.663 264.852 338.663H91.1519Z"/>
</mask>
<path d="M91.1519 338.663V299.663H256.152C263.752 299.663 269.452 297.563 273.252 293.363C277.052 288.963 278.952 282.963 278.952 275.363C278.952 267.563 277.052 261.463 273.252 257.063C269.452 252.663 263.752 250.463 256.152 250.463H119.352V211.763H255.852C271.252 211.763 278.952 203.663 278.952 187.463C278.952 171.463 271.252 163.463 255.852 163.463H91.1519V124.463H264.852C285.652 124.463 301.752 129.663 313.152 140.063C324.752 150.263 330.552 164.563 330.552 182.963C330.552 192.963 328.652 202.463 324.852 211.463C321.052 220.263 314.752 226.763 305.952 230.963C314.752 235.363 321.052 241.863 324.852 250.463C328.652 258.863 330.552 268.163 330.552 278.363C330.552 296.563 324.752 311.163 313.152 322.163C301.752 333.163 285.652 338.663 264.852 338.663H91.1519Z" fill="black"/>
<path d="M91.1519 338.663H71.1519V358.663H91.1519V338.663ZM91.1519 299.663V279.663H71.1519V299.663H91.1519ZM273.252 293.363L288.083 306.781L288.238 306.61L288.388 306.435L273.252 293.363ZM273.252 257.063L288.388 243.991L288.388 243.991L273.252 257.063ZM119.352 250.463H99.3519V270.463H119.352V250.463ZM119.352 211.763V191.763H99.3519V211.763H119.352ZM91.1519 163.463H71.1519V183.463H91.1519V163.463ZM91.1519 124.463V104.463H71.1519V124.463H91.1519ZM313.152 140.063L299.673 154.838L299.808 154.962L299.945 155.082L313.152 140.063ZM324.852 211.463L343.213 219.392L343.245 219.317L343.277 219.243L324.852 211.463ZM305.952 230.963L297.337 212.913L260.395 230.545L297.008 248.852L305.952 230.963ZM324.852 250.463L306.558 258.546L306.594 258.627L306.63 258.706L324.852 250.463ZM313.152 322.163L299.39 307.651L299.327 307.71L299.265 307.771L313.152 322.163ZM111.152 338.663V299.663H71.1519V338.663H111.152ZM91.1519 319.663H256.152V279.663H91.1519V319.663ZM256.152 319.663C267.38 319.663 279.318 316.469 288.083 306.781L258.421 279.945C258.597 279.751 258.799 279.58 258.992 279.451C259.18 279.327 259.276 279.298 259.213 279.321C259.054 279.38 258.161 279.663 256.152 279.663V319.663ZM288.388 306.435C296.185 297.408 298.952 286.261 298.952 275.363H258.952C258.952 277.525 258.679 278.834 258.46 279.525C258.353 279.862 258.258 280.057 258.207 280.151C258.158 280.241 258.127 280.277 258.115 280.291L288.388 306.435ZM298.952 275.363C298.952 264.418 296.26 253.105 288.388 243.991L258.115 270.135C257.844 269.821 258.952 270.708 258.952 275.363H298.952ZM288.388 243.991C279.701 233.931 267.662 230.463 256.152 230.463V270.463C258.068 270.463 258.857 270.745 258.925 270.772C258.947 270.78 258.828 270.735 258.635 270.601C258.437 270.464 258.256 270.298 258.115 270.135L288.388 243.991ZM256.152 230.463H119.352V270.463H256.152V230.463ZM139.352 250.463V211.763H99.3519V250.463H139.352ZM119.352 231.763H255.852V191.763H119.352V231.763ZM255.852 231.763C266.901 231.763 278.794 228.807 287.672 219.468C296.37 210.318 298.952 198.4 298.952 187.463H258.952C258.952 192.726 257.684 192.958 258.681 191.908C259.144 191.422 259.525 191.306 259.34 191.371C259.048 191.473 258.005 191.763 255.852 191.763V231.763ZM298.952 187.463C298.952 176.567 296.341 164.689 287.587 155.594C278.696 146.356 266.833 143.463 255.852 143.463V183.463C258.027 183.463 259.097 183.752 259.413 183.862C259.625 183.935 259.244 183.828 258.767 183.332C257.713 182.237 258.952 182.359 258.952 187.463H298.952ZM255.852 143.463H91.1519V183.463H255.852V143.463ZM111.152 163.463V124.463H71.1519V163.463H111.152ZM91.1519 144.463H264.852V104.463H91.1519V144.463ZM264.852 144.463C282.426 144.463 293.079 148.823 299.673 154.838L326.631 125.288C310.425 110.503 288.878 104.463 264.852 104.463V144.463ZM299.945 155.082C306.398 160.756 310.552 169.109 310.552 182.963H350.552C350.552 160.017 343.106 139.77 326.359 125.044L299.945 155.082ZM310.552 182.963C310.552 190.355 309.163 197.204 306.427 203.684L343.277 219.243C348.141 207.722 350.552 195.571 350.552 182.963H310.552ZM306.491 203.534C304.645 207.809 301.854 210.758 297.337 212.913L314.567 249.013C327.65 242.768 337.459 232.717 343.213 219.392L306.491 203.534ZM297.008 248.852C301.855 251.275 304.732 254.412 306.558 258.546L343.146 242.38C337.372 229.314 327.649 219.451 314.896 213.075L297.008 248.852ZM306.63 258.706C309.139 264.252 310.552 270.701 310.552 278.363H350.552C350.552 265.625 348.165 253.474 343.074 242.22L306.63 258.706ZM310.552 278.363C310.552 291.908 306.44 300.965 299.39 307.651L326.914 336.676C343.063 321.361 350.552 301.218 350.552 278.363H310.552ZM299.265 307.771C292.645 314.158 282.146 318.663 264.852 318.663V358.663C289.158 358.663 310.858 352.169 327.039 336.555L299.265 307.771ZM264.852 318.663H91.1519V358.663H264.852V318.663Z" fill="white" mask="url(#path-1-outside-1_1215_8)"/>
</svg>
