<svg width="422" height="439" viewBox="0 0 422 439" fill="none" xmlns="http://www.w3.org/2000/svg">
<mask id="path-1-outside-1_1215_17" maskUnits="userSpaceOnUse" x="57.7085" y="83.6523" width="311" height="255" fill="black">
<rect fill="white" x="57.7085" y="83.6523" width="311" height="255"/>
<path d="M77.9819 279.352V240.052L190.782 104.452H249.882L135.282 240.352H251.082V191.152H297.582V240.352H347.982V279.352H297.582V318.652H251.082V279.352H77.9819Z"/>
</mask>
<path d="M77.9819 279.352V240.052L190.782 104.452H249.882L135.282 240.352H251.082V191.152H297.582V240.352H347.982V279.352H297.582V318.652H251.082V279.352H77.9819Z" fill="black"/>
<path d="M77.9819 279.352H57.9819V299.352H77.9819V279.352ZM77.9819 240.052L62.6064 227.262L57.9819 232.821V240.052H77.9819ZM190.782 104.452V84.4523H181.404L175.406 91.662L190.782 104.452ZM249.882 104.452L265.171 117.345L292.909 84.4523H249.882V104.452ZM135.282 240.352L119.992 227.459L92.2548 260.352H135.282V240.352ZM251.082 240.352V260.352H271.082V240.352H251.082ZM251.082 191.152V171.152H231.082V191.152H251.082ZM297.582 191.152H317.582V171.152H297.582V191.152ZM297.582 240.352H277.582V260.352H297.582V240.352ZM347.982 240.352H367.982V220.352H347.982V240.352ZM347.982 279.352V299.352H367.982V279.352H347.982ZM297.582 279.352V259.352H277.582V279.352H297.582ZM297.582 318.652V338.652H317.582V318.652H297.582ZM251.082 318.652H231.082V338.652H251.082V318.652ZM251.082 279.352H271.082V259.352H251.082V279.352ZM97.9819 279.352V240.052H57.9819V279.352H97.9819ZM93.3575 252.843L206.158 117.243L175.406 91.662L62.6064 227.262L93.3575 252.843ZM190.782 124.452H249.882V84.4523H190.782V124.452ZM234.592 91.5592L119.992 227.459L150.571 253.245L265.171 117.345L234.592 91.5592ZM135.282 260.352H251.082V220.352H135.282V260.352ZM271.082 240.352V191.152H231.082V240.352H271.082ZM251.082 211.152H297.582V171.152H251.082V211.152ZM277.582 191.152V240.352H317.582V191.152H277.582ZM297.582 260.352H347.982V220.352H297.582V260.352ZM327.982 240.352V279.352H367.982V240.352H327.982ZM347.982 259.352H297.582V299.352H347.982V259.352ZM277.582 279.352V318.652H317.582V279.352H277.582ZM297.582 298.652H251.082V338.652H297.582V298.652ZM271.082 318.652V279.352H231.082V318.652H271.082ZM251.082 259.352H77.9819V299.352H251.082V259.352Z" fill="white" mask="url(#path-1-outside-1_1215_17)"/>
</svg>
