<svg width="175" height="67" viewBox="0 0 175 67" fill="none" xmlns="http://www.w3.org/2000/svg">
<g clip-path="url(#clip0_1875_25)">
<g filter="url(#filter0_d_1875_25)">
<g filter="url(#filter1_d_1875_25)">
<rect x="0.681885" y="0.509766" width="174" height="66" rx="10" fill="#E3D3D3"/>
</g>
<path d="M38.1703 15.9633H41.6983V54.0153H38.1703V15.9633ZM40.8583 30.9573H47.9143V33.8973H40.8583V30.9573ZM14.1043 41.6253H17.0863C24.1003 41.6253 29.0143 41.3733 34.6843 40.3233L35.0623 43.2633C29.2243 44.3553 24.2263 44.5653 17.0863 44.5653H14.1043V41.6253ZM14.1043 19.6593H31.7443V22.5153H17.5483V42.9273H14.1043V19.6593ZM68.281 16.8453C76.471 16.8453 81.637 19.5333 81.637 24.0273C81.637 28.5213 76.471 31.1673 68.281 31.1673C60.049 31.1673 54.925 28.5213 54.925 24.0273C54.925 19.5333 60.049 16.8453 68.281 16.8453ZM68.281 19.6173C62.233 19.6173 58.495 21.2133 58.495 24.0273C58.495 26.7993 62.233 28.4373 68.281 28.4373C74.287 28.4373 78.067 26.7993 78.067 24.0273C78.067 21.2133 74.287 19.6173 68.281 19.6173ZM55.303 40.9533H81.217V53.4693H55.303V40.9533ZM77.815 43.7673H58.747V50.6553H77.815V43.7673ZM51.103 34.4433H85.417V37.2573H51.103V34.4433ZM106.918 18.3993C114.814 18.3993 120.694 22.5993 120.694 28.8993C120.694 35.2413 114.814 39.3993 106.918 39.3993C99.0218 39.3993 93.0998 35.2413 93.0998 28.8993C93.0998 22.5993 99.0218 18.3993 106.918 18.3993ZM106.918 21.2553C100.912 21.2553 96.4598 24.3213 96.4598 28.8993C96.4598 33.4353 100.912 36.5433 106.918 36.5433C112.924 36.5433 117.376 33.4353 117.376 28.8993C117.376 24.3213 112.924 21.2553 106.918 21.2553ZM89.7818 46.0353H124.18V48.9753H89.7818V46.0353ZM128.418 46.4133H162.816V49.3113H128.418V46.4133ZM143.79 38.2653H147.276V47.6313H143.79V38.2653ZM132.576 18.8193H158.574V30.3273H136.146V37.9293H132.702V27.5133H155.13V21.6333H132.576V18.8193ZM132.702 36.4593H159.456V39.3153H132.702V36.4593Z" fill="#696969"/>
</g>
</g>
<defs>
<filter id="filter0_d_1875_25" x="-3.31812" y="0.509766" width="182" height="74" filterUnits="userSpaceOnUse" color-interpolation-filters="sRGB">
<feFlood flood-opacity="0" result="BackgroundImageFix"/>
<feColorMatrix in="SourceAlpha" type="matrix" values="0 0 0 0 0 0 0 0 0 0 0 0 0 0 0 0 0 0 127 0" result="hardAlpha"/>
<feOffset dy="4"/>
<feGaussianBlur stdDeviation="2"/>
<feComposite in2="hardAlpha" operator="out"/>
<feColorMatrix type="matrix" values="0 0 0 0 0 0 0 0 0 0 0 0 0 0 0 0 0 0 0.25 0"/>
<feBlend mode="normal" in2="BackgroundImageFix" result="effect1_dropShadow_1875_25"/>
<feBlend mode="normal" in="SourceGraphic" in2="effect1_dropShadow_1875_25" result="shape"/>
</filter>
<filter id="filter1_d_1875_25" x="-3.31812" y="0.509766" width="182" height="74" filterUnits="userSpaceOnUse" color-interpolation-filters="sRGB">
<feFlood flood-opacity="0" result="BackgroundImageFix"/>
<feColorMatrix in="SourceAlpha" type="matrix" values="0 0 0 0 0 0 0 0 0 0 0 0 0 0 0 0 0 0 127 0" result="hardAlpha"/>
<feOffset dy="4"/>
<feGaussianBlur stdDeviation="2"/>
<feComposite in2="hardAlpha" operator="out"/>
<feColorMatrix type="matrix" values="0 0 0 0 0 0 0 0 0 0 0 0 0 0 0 0 0 0 0.25 0"/>
<feBlend mode="normal" in2="BackgroundImageFix" result="effect1_dropShadow_1875_25"/>
<feBlend mode="normal" in="SourceGraphic" in2="effect1_dropShadow_1875_25" result="shape"/>
</filter>
<clipPath id="clip0_1875_25">
<rect width="174" height="66" fill="white" transform="translate(0.681885 0.509766)"/>
</clipPath>
</defs>
</svg>
