<svg width="215" height="55" viewBox="0 0 215 55" fill="none" xmlns="http://www.w3.org/2000/svg">
<g clip-path="url(#clip0_1893_48)">
<rect width="215" height="55" rx="20" fill="white"/>
<rect x="0.5" y="0.5" width="214" height="54" rx="19.5" stroke="black" stroke-opacity="0.5"/>
<path d="M61.4847 28.52H64.0047V39.5H61.4847V28.52ZM73.5447 13.22H76.0047V40.37H73.5447V13.22ZM53.9847 30.08L53.6547 27.98C59.0247 27.98 65.7147 27.95 71.6547 27.26L71.8047 29.12C65.7147 30.02 59.2347 30.11 53.9847 30.08ZM56.2047 22.52H69.6147V24.56H56.2047V22.52ZM56.2047 14.72H69.2847V16.76H58.6947V23.66H56.2047V14.72ZM81.4023 34.94H105.972V37.01H81.4023V34.94ZM92.3823 29.12H94.8723V35.81H92.3823V29.12ZM84.3723 15.23H102.942V23.45H86.9223V28.88H84.4623V21.44H100.482V17.24H84.3723V15.23ZM84.4623 27.83H103.572V29.87H84.4623V27.83ZM127.33 13.19H129.85V40.34H127.33V13.19ZM129.16 24.2H134.17V26.27H129.16V24.2ZM120.4 16.13H122.83C122.83 23.84 119.29 30.8 110.53 35.21L109.15 33.29C116.65 29.48 120.4 23.69 120.4 16.52V16.13ZM110.41 16.13H121.69V18.17H110.41V16.13ZM156.338 13.22H158.828V40.34H156.338V13.22ZM148.388 16.13H150.848C150.848 23.99 147.308 30.86 138.248 35.3L136.928 33.29C144.758 29.51 148.388 23.75 148.388 16.55V16.13ZM138.158 16.13H149.468V18.17H138.158V16.13Z" fill="black"/>
</g>
<defs>
<clipPath id="clip0_1893_48">
<rect width="215" height="55" fill="white"/>
</clipPath>
</defs>
</svg>
