<svg width="215" height="55" viewBox="0 0 215 55" fill="none" xmlns="http://www.w3.org/2000/svg">
<g clip-path="url(#clip0_1893_52)">
<rect width="215" height="55" rx="20" fill="#ABE1D1"/>
<rect x="0.5" y="0.5" width="214" height="54" rx="19.5" stroke="black" stroke-opacity="0.5"/>
<path d="M59.4748 13.9H61.4548V17.53C61.4548 21.58 59.1148 25.84 55.1248 27.61L53.7748 25.66C57.3448 24.1 59.4748 20.59 59.4748 17.53V13.9ZM59.8648 13.9H61.8448V17.53C61.8448 20.53 63.8848 23.59 67.3648 24.94L66.0148 26.83C62.1148 25.27 59.8648 21.52 59.8648 17.53V13.9ZM74.2648 12.25H76.6348V28.96H74.2648V12.25ZM69.9448 19.48H75.0748V21.52H69.9448V19.48ZM68.4448 12.76H70.8148V28.09H68.4448V12.76ZM67.7248 29.56C73.3048 29.56 76.7848 31.36 76.7848 34.45C76.7848 37.51 73.3048 39.28 67.7248 39.28C62.1148 39.28 58.6948 37.51 58.6948 34.45C58.6948 31.36 62.1148 29.56 67.7248 29.56ZM67.7248 31.51C63.6448 31.51 61.1248 32.59 61.1248 34.45C61.1248 36.28 63.6448 37.36 67.7248 37.36C71.8048 37.36 74.2948 36.28 74.2948 34.45C74.2948 32.59 71.8048 31.51 67.7248 31.51ZM88.2125 13.75H90.2825V16.54C90.2825 21.79 87.3125 26.08 82.6625 27.82L81.3725 25.78C85.5125 24.31 88.2125 20.68 88.2125 16.54V13.75ZM88.6625 13.75H90.7025V16.45C90.7025 20.29 93.3425 23.68 97.3025 25.06L95.9525 27.01C91.5725 25.36 88.6625 21.37 88.6625 16.45V13.75ZM101.202 12.22H103.692V28.27H101.202V12.22ZM94.7825 29.05C100.362 29.05 103.812 30.94 103.812 34.18C103.812 37.42 100.362 39.28 94.7825 39.28C89.1725 39.28 85.7225 37.42 85.7225 34.18C85.7225 30.94 89.1725 29.05 94.7825 29.05ZM94.7825 31.03C90.7025 31.03 88.2125 32.2 88.2125 34.18C88.2125 36.16 90.7025 37.33 94.7825 37.33C98.8625 37.33 101.352 36.16 101.352 34.18C101.352 32.2 98.8625 31.03 94.7825 31.03ZM95.3225 17.95H101.742V20.02H95.3225V17.95ZM127.36 12.22H129.85V39.34H127.36V12.22ZM129.25 23.35H134.29V25.45H129.25V23.35ZM108.85 16.54H124.84V18.58H108.85V16.54ZM116.95 20.83C120.79 20.83 123.55 23.41 123.55 27.07C123.55 30.73 120.79 33.31 116.95 33.31C113.14 33.31 110.35 30.73 110.35 27.07C110.35 23.41 113.14 20.83 116.95 20.83ZM116.95 22.9C114.49 22.9 112.72 24.61 112.72 27.07C112.72 29.5 114.49 31.24 116.95 31.24C119.41 31.24 121.18 29.5 121.18 27.07C121.18 24.61 119.41 22.9 116.95 22.9ZM115.66 12.55H118.15V17.47H115.66V12.55ZM156.338 12.22H158.828V39.34H156.338V12.22ZM148.388 15.13H150.848C150.848 22.99 147.308 29.86 138.248 34.3L136.928 32.29C144.758 28.51 148.388 22.75 148.388 15.55V15.13ZM138.158 15.13H149.468V17.17H138.158V15.13Z" fill="black" fill-opacity="0.8"/>
</g>
<defs>
<clipPath id="clip0_1893_52">
<rect width="215" height="55" fill="white"/>
</clipPath>
</defs>
</svg>
