<svg width="309" height="52" viewBox="0 0 309 52" fill="none" xmlns="http://www.w3.org/2000/svg">
<g clip-path="url(#clip0_1662_4)">
<path d="M95.3224 22.624H103.146V27.856H95.3224V22.624ZM90.5704 5.776H97.0024V50.224H90.5704V5.776ZM63.4984 10.048H69.8824V37.648H63.4984V10.048ZM63.4984 34.096H67.3384C73.6744 34.096 80.5384 33.664 87.6904 32.224L88.3624 37.456C81.0184 38.992 73.8664 39.376 67.3384 39.376H63.4984V34.096ZM120.615 8.752C127.623 8.752 132.855 13.312 132.855 19.696C132.855 26.128 127.623 30.688 120.615 30.688C113.655 30.688 108.327 26.128 108.327 19.696C108.327 13.312 113.655 8.752 120.615 8.752ZM120.615 14.224C117.207 14.224 114.615 16.24 114.615 19.696C114.615 23.2 117.207 25.216 120.615 25.216C124.023 25.216 126.615 23.2 126.615 19.696C126.615 16.24 124.023 14.224 120.615 14.224ZM137.031 5.776H143.415V50.368H137.031V5.776ZM107.271 41.344L106.503 36.208C114.327 36.208 125.223 36.112 134.583 34.72L135.063 39.328C125.415 41.248 114.951 41.344 107.271 41.344ZM170.341 14.56H175.093V15.952C175.093 23.056 172.213 29.44 165.253 32.032L162.325 27.328C167.941 25.264 170.341 20.704 170.341 15.952V14.56ZM171.637 14.56H176.341V15.952C176.341 20.416 178.789 24.688 184.357 26.608L181.525 31.312C174.517 28.912 171.637 22.768 171.637 15.952V14.56ZM163.573 10.816H183.061V15.808H163.573V10.816ZM170.341 6.256H176.341V13.12H170.341V6.256ZM194.197 5.872H200.245V33.088H194.197V5.872ZM188.869 16.96H195.925V22.048H188.869V16.96ZM184.933 6.544H190.885V32.896H184.933V6.544ZM169.717 34.96H200.245V50.272H193.909V40.048H169.717V34.96ZM216.417 10.768H221.649V13.552C221.649 22.048 217.665 29.68 209.073 32.512L205.905 27.472C213.297 25.024 216.417 19.216 216.417 13.552V10.768ZM217.713 10.768H222.897V13.552C222.897 18.736 225.873 23.824 233.025 25.984L230.001 30.976C221.553 28.432 217.713 21.472 217.713 13.552V10.768ZM207.585 8.8H231.585V13.888H207.585V8.8ZM235.137 5.824H241.521V32.176H235.137V5.824ZM239.745 16.048H247.425V21.28H239.745V16.048ZM227.025 32.992C236.241 32.992 242.049 36.208 242.049 41.632C242.049 47.056 236.241 50.272 227.025 50.272C217.761 50.272 211.953 47.056 211.953 41.632C211.953 36.208 217.761 32.992 227.025 32.992ZM227.025 37.984C221.361 37.984 218.289 39.136 218.289 41.632C218.289 44.128 221.361 45.376 227.025 45.376C232.689 45.376 235.713 44.128 235.713 41.632C235.713 39.136 232.689 37.984 227.025 37.984Z" fill="#42655B"/>
</g>
<defs>
<clipPath id="clip0_1662_4">
<rect width="309" height="52" fill="white"/>
</clipPath>
</defs>
</svg>
