<svg width="66" height="58" viewBox="0 0 66 58" fill="none" xmlns="http://www.w3.org/2000/svg">
<g clip-path="url(#clip0_1951_25)">
<path d="M16.9389 46.767C14.0071 46.7557 11.4844 46.0341 9.37074 44.6023C7.26847 43.1705 5.64915 41.0966 4.51278 38.3807C3.38778 35.6648 2.83097 32.3977 2.84233 28.5795C2.84233 24.7727 3.40483 21.5284 4.52983 18.8466C5.66619 16.1648 7.28551 14.125 9.38778 12.7273C11.5014 11.3182 14.0185 10.6136 16.9389 10.6136C19.8594 10.6136 22.3707 11.3182 24.473 12.7273C26.5866 14.1364 28.2116 16.1818 29.348 18.8636C30.4844 21.5341 31.0469 24.7727 31.0355 28.5795C31.0355 32.4091 30.4673 35.6818 29.331 38.3977C28.206 41.1136 26.5923 43.1875 24.4901 44.6193C22.3878 46.0511 19.8707 46.767 16.9389 46.767ZM16.9389 40.6477C18.9389 40.6477 20.5355 39.642 21.7287 37.6307C22.9219 35.6193 23.5128 32.6023 23.5014 28.5795C23.5014 25.9318 23.2287 23.7273 22.6832 21.9659C22.1491 20.2045 21.3878 18.8807 20.3991 17.9943C19.4219 17.108 18.2685 16.6648 16.9389 16.6648C14.9503 16.6648 13.3594 17.6591 12.1662 19.6477C10.973 21.6364 10.3707 24.6136 10.3594 28.5795C10.3594 31.2614 10.6264 33.5 11.1605 35.2955C11.706 37.0795 12.473 38.4205 13.4616 39.3182C14.4503 40.2045 15.6094 40.6477 16.9389 40.6477ZM35.7699 39.8636V34.0511L50.3438 11.0909H55.3551V19.1364H52.3892L43.2017 33.6761V33.9489H63.9119V39.8636H35.7699ZM52.5256 46V38.0909L52.6619 35.517V11.0909H59.5824V46H52.5256Z" fill="black"/>
</g>
<defs>
<clipPath id="clip0_1951_25">
<rect width="66" height="58" fill="white"/>
</clipPath>
</defs>
</svg>
