<svg width="65" height="59" viewBox="0 0 65 59" fill="none" xmlns="http://www.w3.org/2000/svg">
<g clip-path="url(#clip0_1954_32)">
<path d="M16.517 47.561C13.5852 47.5496 11.0625 46.828 8.94886 45.3962C6.84659 43.9644 5.22727 41.8905 4.09091 39.1746C2.96591 36.4587 2.40909 33.1917 2.42045 29.3735C2.42045 25.5667 2.98295 22.3224 4.10795 19.6405C5.24432 16.9587 6.86364 14.9189 8.96591 13.5212C11.0795 12.1121 13.5966 11.4076 16.517 11.4076C19.4375 11.4076 21.9489 12.1121 24.0511 13.5212C26.1648 14.9303 27.7898 16.9758 28.9261 19.6576C30.0625 22.328 30.625 25.5667 30.6136 29.3735C30.6136 33.203 30.0455 36.4758 28.9091 39.1917C27.7841 41.9076 26.1705 43.9814 24.0682 45.4133C21.9659 46.8451 19.4489 47.561 16.517 47.561ZM16.517 41.4417C18.517 41.4417 20.1136 40.436 21.3068 38.4246C22.5 36.4133 23.0909 33.3962 23.0795 29.3735C23.0795 26.7258 22.8068 24.5212 22.2614 22.7599C21.7273 20.9985 20.9659 19.6746 19.9773 18.7883C19 17.9019 17.8466 17.4587 16.517 17.4587C14.5284 17.4587 12.9375 18.453 11.7443 20.4417C10.5511 22.4303 9.94886 25.4076 9.9375 29.3735C9.9375 32.0553 10.2045 34.2939 10.7386 36.0894C11.2841 37.8735 12.0511 39.2144 13.0398 40.1121C14.0284 40.9985 15.1875 41.4417 16.517 41.4417ZM49.2741 47.2712C47.4787 47.2599 45.7457 46.9587 44.0753 46.3678C42.4162 45.7769 40.9276 44.8167 39.6094 43.4871C38.2912 42.1576 37.2457 40.3962 36.473 38.203C35.7116 36.0099 35.331 33.3167 35.331 30.1235C35.3423 27.1917 35.6776 24.5724 36.3366 22.2655C37.0071 19.9474 37.9616 17.9814 39.2003 16.3678C40.4503 14.7542 41.9446 13.5269 43.6832 12.686C45.4219 11.8337 47.3707 11.4076 49.5298 11.4076C51.8594 11.4076 53.9162 11.8621 55.7003 12.7712C57.4844 13.6689 58.9162 14.8905 59.9957 16.436C61.0866 17.9814 61.7457 19.7144 61.973 21.6349H54.6946C54.4105 20.4189 53.8139 19.4644 52.9048 18.7712C51.9957 18.078 50.8707 17.7314 49.5298 17.7314C47.2571 17.7314 45.5298 18.7201 44.348 20.6974C43.1776 22.6746 42.581 25.3621 42.5582 28.7599H42.7969C43.3196 27.7258 44.0241 26.8451 44.9105 26.1178C45.8082 25.3792 46.8253 24.8167 47.9616 24.4303C49.1094 24.0326 50.3196 23.8337 51.5923 23.8337C53.6605 23.8337 55.5014 24.3224 57.1151 25.2996C58.7287 26.2655 60.0014 27.5951 60.9332 29.2883C61.8651 30.9814 62.331 32.9189 62.331 35.1008C62.331 37.4644 61.7798 39.5667 60.6776 41.4076C59.5866 43.2485 58.0582 44.6917 56.0923 45.7371C54.1378 46.7712 51.8651 47.2826 49.2741 47.2712ZM49.2401 41.4758C50.3764 41.4758 51.3935 41.203 52.2912 40.6576C53.1889 40.1121 53.8935 39.3735 54.4048 38.4417C54.9162 37.5099 55.1719 36.4644 55.1719 35.3053C55.1719 34.1462 54.9162 33.1064 54.4048 32.186C53.9048 31.2655 53.2116 30.5326 52.3253 29.9871C51.4389 29.4417 50.4276 29.1689 49.2912 29.1689C48.4389 29.1689 47.6491 29.328 46.9219 29.6462C46.206 29.9644 45.5753 30.4076 45.0298 30.9758C44.4957 31.5439 44.0753 32.203 43.7685 32.953C43.4616 33.6917 43.3082 34.4814 43.3082 35.3224C43.3082 36.4474 43.5639 37.4758 44.0753 38.4076C44.598 39.3394 45.3026 40.0837 46.1889 40.6405C47.0866 41.1974 48.1037 41.4758 49.2401 41.4758Z" fill="black"/>
</g>
<defs>
<clipPath id="clip0_1954_32">
<rect width="65" height="58" fill="white" transform="translate(0 0.793945)"/>
</clipPath>
</defs>
</svg>
