<svg width="64" height="58" viewBox="0 0 64 58" fill="none" xmlns="http://www.w3.org/2000/svg">
<g clip-path="url(#clip0_1951_26)">
<path d="M16.5327 46.767C13.6009 46.7557 11.0781 46.0341 8.96449 44.6023C6.86222 43.1705 5.2429 41.0966 4.10653 38.3807C2.98153 35.6648 2.42472 32.3977 2.43608 28.5795C2.43608 24.7727 2.99858 21.5284 4.12358 18.8466C5.25994 16.1648 6.87926 14.125 8.98153 12.7273C11.0952 11.3182 13.6122 10.6136 16.5327 10.6136C19.4531 10.6136 21.9645 11.3182 24.0668 12.7273C26.1804 14.1364 27.8054 16.1818 28.9418 18.8636C30.0781 21.5341 30.6406 24.7727 30.6293 28.5795C30.6293 32.4091 30.0611 35.6818 28.9247 38.3977C27.7997 41.1136 26.1861 43.1875 24.0838 44.6193C21.9815 46.0511 19.4645 46.767 16.5327 46.767ZM16.5327 40.6477C18.5327 40.6477 20.1293 39.642 21.3224 37.6307C22.5156 35.6193 23.1065 32.6023 23.0952 28.5795C23.0952 25.9318 22.8224 23.7273 22.277 21.9659C21.7429 20.2045 20.9815 18.8807 19.9929 17.9943C19.0156 17.108 17.8622 16.6648 16.5327 16.6648C14.544 16.6648 12.9531 17.6591 11.7599 19.6477C10.5668 21.6364 9.96449 24.6136 9.95312 28.5795C9.95312 31.2614 10.2202 33.5 10.7543 35.2955C11.2997 37.0795 12.0668 38.4205 13.0554 39.3182C14.044 40.2045 15.2031 40.6477 16.5327 40.6477ZM48.642 46.4773C46.233 46.4773 44.0852 46.0341 42.1989 45.1477C40.3239 44.2614 38.8352 43.0398 37.733 41.483C36.6307 39.9261 36.0568 38.142 36.0114 36.1307H43.1705C43.25 37.483 43.8182 38.5795 44.875 39.4205C45.9318 40.2614 47.1875 40.6818 48.642 40.6818C49.8011 40.6818 50.8239 40.4261 51.7102 39.9148C52.608 39.392 53.3068 38.6705 53.8068 37.75C54.3182 36.8182 54.5739 35.75 54.5739 34.5455C54.5739 33.3182 54.3125 32.2386 53.7898 31.3068C53.2784 30.375 52.5682 29.6477 51.6591 29.125C50.75 28.6023 49.7102 28.3352 48.5398 28.3239C47.517 28.3239 46.5227 28.5341 45.5568 28.9545C44.6023 29.375 43.858 29.9489 43.3239 30.6761L36.7614 29.5L38.4148 11.0909H59.7557V17.125H44.5L43.5966 25.8693H43.8011C44.4148 25.0057 45.3409 24.2898 46.5795 23.7216C47.8182 23.1534 49.2045 22.8693 50.7386 22.8693C52.8409 22.8693 54.7159 23.3636 56.3636 24.3523C58.0114 25.3409 59.3125 26.6989 60.267 28.4261C61.2216 30.142 61.6932 32.1193 61.6818 34.358C61.6932 36.7102 61.1477 38.8011 60.0455 40.6307C58.9545 42.4489 57.4261 43.8807 55.4602 44.9261C53.5057 45.9602 51.233 46.4773 48.642 46.4773Z" fill="black"/>
</g>
<defs>
<clipPath id="clip0_1951_26">
<rect width="64" height="58" fill="white"/>
</clipPath>
</defs>
</svg>
