<svg width="62" height="59" viewBox="0 0 62 59" fill="none" xmlns="http://www.w3.org/2000/svg">
<g clip-path="url(#clip0_1954_31)">
<path d="M16.5739 47.561C13.6421 47.5496 11.1194 46.828 9.00575 45.3962C6.90348 43.9644 5.28416 41.8905 4.14779 39.1746C3.02279 36.4587 2.46598 33.1917 2.47734 29.3735C2.47734 25.5667 3.03984 22.3224 4.16484 19.6405C5.3012 16.9587 6.92052 14.9189 9.02279 13.5212C11.1364 12.1121 13.6535 11.4076 16.5739 11.4076C19.4944 11.4076 22.0057 12.1121 24.108 13.5212C26.2217 14.9303 27.8467 16.9758 28.983 19.6576C30.1194 22.328 30.6819 25.5667 30.6705 29.3735C30.6705 33.203 30.1023 36.4758 28.966 39.1917C27.841 41.9076 26.2273 43.9814 24.1251 45.4133C22.0228 46.8451 19.5057 47.561 16.5739 47.561ZM16.5739 41.4417C18.5739 41.4417 20.1705 40.436 21.3637 38.4246C22.5569 36.4133 23.1478 33.3962 23.1364 29.3735C23.1364 26.7258 22.8637 24.5212 22.3182 22.7599C21.7842 20.9985 21.0228 19.6746 20.0342 18.7883C19.0569 17.9019 17.9035 17.4587 16.5739 17.4587C14.5853 17.4587 12.9944 18.453 11.8012 20.4417C10.608 22.4303 10.0057 25.4076 9.99438 29.3735C9.99438 32.0553 10.2614 34.2939 10.7955 36.0894C11.341 37.8735 12.108 39.2144 13.0967 40.1121C14.0853 40.9985 15.2444 41.4417 16.5739 41.4417ZM36.3765 46.7939L50.8481 18.1576V17.9189H33.9901V11.8849H58.4844V18.0042L43.9958 46.7939H36.3765Z" fill="black"/>
</g>
<defs>
<clipPath id="clip0_1954_31">
<rect width="61" height="58" fill="white" transform="translate(0.0568848 0.793945)"/>
</clipPath>
</defs>
</svg>
