<svg width="57" height="58" viewBox="0 0 57 58" fill="none" xmlns="http://www.w3.org/2000/svg">
<g clip-path="url(#clip0_1950_9)">
<path d="M16.9858 46.767C14.054 46.7557 11.5313 46.0341 9.41761 44.6023C7.31534 43.1705 5.69602 41.0966 4.55966 38.3807C3.43466 35.6648 2.87784 32.3977 2.8892 28.5795C2.8892 24.7727 3.4517 21.5284 4.5767 18.8466C5.71307 16.1648 7.33239 14.125 9.43466 12.7273C11.5483 11.3182 14.0653 10.6136 16.9858 10.6136C19.9063 10.6136 22.4176 11.3182 24.5199 12.7273C26.6335 14.1364 28.2585 16.1818 29.3949 18.8636C30.5313 21.5341 31.0938 24.7727 31.0824 28.5795C31.0824 32.4091 30.5142 35.6818 29.3778 38.3977C28.2528 41.1136 26.6392 43.1875 24.5369 44.6193C22.4347 46.0511 19.9176 46.767 16.9858 46.767ZM16.9858 40.6477C18.9858 40.6477 20.5824 39.642 21.7756 37.6307C22.9688 35.6193 23.5597 32.6023 23.5483 28.5795C23.5483 25.9318 23.2756 23.7273 22.7301 21.9659C22.196 20.2045 21.4347 18.8807 20.446 17.9943C19.4688 17.108 18.3153 16.6648 16.9858 16.6648C14.9972 16.6648 13.4063 17.6591 12.2131 19.6477C11.0199 21.6364 10.4176 24.6136 10.4062 28.5795C10.4062 31.2614 10.6733 33.5 11.2074 35.2955C11.7528 37.0795 12.5199 38.4205 13.5085 39.3182C14.4972 40.2045 15.6562 40.6477 16.9858 40.6477ZM51.5327 11.0909V46H44.152V18.0966H43.9474L35.9531 23.108V16.5625L44.5952 11.0909H51.5327Z" fill="black"/>
</g>
<defs>
<clipPath id="clip0_1950_9">
<rect width="57" height="58" fill="white"/>
</clipPath>
</defs>
</svg>
