<svg width="64" height="58" viewBox="0 0 64 58" fill="none" xmlns="http://www.w3.org/2000/svg">
<g clip-path="url(#clip0_1951_20)">
<path d="M16.517 46.767C13.5852 46.7557 11.0625 46.0341 8.94886 44.6023C6.84659 43.1705 5.22727 41.0966 4.09091 38.3807C2.96591 35.6648 2.40909 32.3977 2.42045 28.5795C2.42045 24.7727 2.98295 21.5284 4.10795 18.8466C5.24432 16.1648 6.86364 14.125 8.96591 12.7273C11.0795 11.3182 13.5966 10.6136 16.517 10.6136C19.4375 10.6136 21.9489 11.3182 24.0511 12.7273C26.1648 14.1364 27.7898 16.1818 28.9261 18.8636C30.0625 21.5341 30.625 24.7727 30.6136 28.5795C30.6136 32.4091 30.0455 35.6818 28.9091 38.3977C27.7841 41.1136 26.1705 43.1875 24.0682 44.6193C21.9659 46.0511 19.4489 46.767 16.517 46.767ZM16.517 40.6477C18.517 40.6477 20.1136 39.642 21.3068 37.6307C22.5 35.6193 23.0909 32.6023 23.0795 28.5795C23.0795 25.9318 22.8068 23.7273 22.2614 21.9659C21.7273 20.2045 20.9659 18.8807 19.9773 17.9943C19 17.108 17.8466 16.6648 16.517 16.6648C14.5284 16.6648 12.9375 17.6591 11.7443 19.6477C10.5511 21.6364 9.94886 24.6136 9.9375 28.5795C9.9375 31.2614 10.2045 33.5 10.7386 35.2955C11.2841 37.0795 12.0511 38.4205 13.0398 39.3182C14.0284 40.2045 15.1875 40.6477 16.517 40.6477ZM35.8764 46V40.6818L48.3026 29.1761C49.3594 28.1534 50.2457 27.233 50.9616 26.4148C51.6889 25.5966 52.2401 24.7955 52.6151 24.0114C52.9901 23.2159 53.1776 22.358 53.1776 21.4375C53.1776 20.4148 52.9446 19.5341 52.4787 18.7955C52.0128 18.0455 51.3764 17.4716 50.5696 17.0739C49.7628 16.6648 48.848 16.4602 47.8253 16.4602C46.7571 16.4602 45.8253 16.6761 45.0298 17.108C44.2344 17.5398 43.6207 18.1591 43.1889 18.9659C42.7571 19.7727 42.5412 20.733 42.5412 21.8466H35.5355C35.5355 19.5625 36.0526 17.5795 37.0866 15.8977C38.1207 14.2159 39.5696 12.9148 41.4332 11.9943C43.2969 11.0739 45.4446 10.6136 47.8764 10.6136C50.3764 10.6136 52.5526 11.0568 54.4048 11.9432C56.2685 12.8182 57.7173 14.0341 58.7514 15.5909C59.7855 17.1477 60.3026 18.9318 60.3026 20.9432C60.3026 22.2614 60.0412 23.5625 59.5185 24.8466C59.0071 26.1307 58.0923 27.5568 56.7741 29.125C55.456 30.6818 53.598 32.5511 51.2003 34.733L46.1037 39.7273V39.9659H60.7628V46H35.8764Z" fill="black"/>
</g>
<defs>
<clipPath id="clip0_1951_20">
<rect width="64" height="58" fill="white"/>
</clipPath>
</defs>
</svg>
