<svg width="66" height="58" viewBox="0 0 66 58" fill="none" xmlns="http://www.w3.org/2000/svg">
<g clip-path="url(#clip0_1951_24)">
<path d="M17.2202 46.767C14.2884 46.7557 11.7656 46.0341 9.65199 44.6023C7.54972 43.1705 5.9304 41.0966 4.79403 38.3807C3.66903 35.6648 3.11222 32.3977 3.12358 28.5795C3.12358 24.7727 3.68608 21.5284 4.81108 18.8466C5.94744 16.1648 7.56676 14.125 9.66903 12.7273C11.7827 11.3182 14.2997 10.6136 17.2202 10.6136C20.1406 10.6136 22.652 11.3182 24.7543 12.7273C26.8679 14.1364 28.4929 16.1818 29.6293 18.8636C30.7656 21.5341 31.3281 24.7727 31.3168 28.5795C31.3168 32.4091 30.7486 35.6818 29.6122 38.3977C28.4872 41.1136 26.8736 43.1875 24.7713 44.6193C22.669 46.0511 20.152 46.767 17.2202 46.767ZM17.2202 40.6477C19.2202 40.6477 20.8168 39.642 22.0099 37.6307C23.2031 35.6193 23.794 32.6023 23.7827 28.5795C23.7827 25.9318 23.5099 23.7273 22.9645 21.9659C22.4304 20.2045 21.669 18.8807 20.6804 17.9943C19.7031 17.108 18.5497 16.6648 17.2202 16.6648C15.2315 16.6648 13.6406 17.6591 12.4474 19.6477C11.2543 21.6364 10.652 24.6136 10.6406 28.5795C10.6406 31.2614 10.9077 33.5 11.4418 35.2955C11.9872 37.0795 12.7543 38.4205 13.7429 39.3182C14.7315 40.2045 15.8906 40.6477 17.2202 40.6477ZM49.483 46.4773C46.9375 46.4773 44.6705 46.0398 42.6818 45.1648C40.7045 44.2784 39.142 43.0625 37.9943 41.517C36.858 39.9602 36.2727 38.1648 36.2386 36.1307H43.6705C43.7159 36.983 43.9943 37.733 44.5057 38.3807C45.0284 39.017 45.7216 39.5114 46.5852 39.8636C47.4489 40.2159 48.4205 40.392 49.5 40.392C50.625 40.392 51.6193 40.1932 52.483 39.7955C53.3466 39.3977 54.0227 38.8466 54.5114 38.142C55 37.4375 55.2443 36.625 55.2443 35.7045C55.2443 34.7727 54.983 33.9489 54.4602 33.233C53.9489 32.5057 53.2102 31.9375 52.2443 31.5284C51.2898 31.1193 50.1534 30.9148 48.8352 30.9148H45.5795V25.4943H48.8352C49.9489 25.4943 50.9318 25.3011 51.7841 24.9148C52.6477 24.5284 53.3182 23.9943 53.7955 23.3125C54.2727 22.6193 54.5114 21.8125 54.5114 20.892C54.5114 20.017 54.3011 19.25 53.8807 18.5909C53.4716 17.9205 52.892 17.3977 52.142 17.0227C51.4034 16.6477 50.5398 16.4602 49.5511 16.4602C48.5511 16.4602 47.6364 16.642 46.8068 17.0057C45.9773 17.358 45.3125 17.8636 44.8125 18.5227C44.3125 19.1818 44.0455 19.9545 44.0114 20.8409H36.9375C36.9716 18.8295 37.5455 17.0568 38.6591 15.5227C39.7727 13.9886 41.2727 12.7898 43.1591 11.9261C45.0568 11.0511 47.1989 10.6136 49.5852 10.6136C51.9943 10.6136 54.1023 11.0511 55.9091 11.9261C57.7159 12.8011 59.1193 13.983 60.1193 15.4716C61.1307 16.9489 61.6307 18.608 61.6193 20.4489C61.6307 22.4034 61.0227 24.0341 59.7955 25.3409C58.5795 26.6477 56.9943 27.4773 55.0398 27.8295V28.1023C57.608 28.4318 59.5625 29.3239 60.9034 30.7784C62.2557 32.2216 62.9261 34.0284 62.9148 36.1989C62.9261 38.1875 62.3523 39.9545 61.1932 41.5C60.0455 43.0455 58.4602 44.2614 56.4375 45.1477C54.4148 46.0341 52.0966 46.4773 49.483 46.4773Z" fill="black"/>
</g>
<defs>
<clipPath id="clip0_1951_24">
<rect width="65" height="58" fill="white" transform="translate(0.703125)"/>
</clipPath>
</defs>
</svg>
