<svg width="487" height="92" viewBox="0 0 487 92" fill="none" xmlns="http://www.w3.org/2000/svg">
<g clip-path="url(#clip0_1291_14)">
<path d="M70.0046 5.64H93.2846V8.32H70.0046V5.64ZM91.1246 5.64H94.3646V8.44C94.3646 11.44 94.3646 15 93.3246 19.76L90.0446 19.4C91.1246 14.72 91.1246 11.4 91.1246 8.44V5.64ZM92.0446 11.76V14.12L69.5246 15.12L69.0846 12.48L92.0446 11.76ZM65.8446 18.76H98.4846V21.4H65.8446V18.76ZM69.6446 24.84H94.6446V33.28H73.0046V38.16H69.7246V30.8H91.3646V27.4H69.6446V24.84ZM69.7246 37.04H95.8846V39.64H69.7246V37.04ZM128.922 3.96H132.282V26.08H128.922V3.96ZM108.122 28.04H132.282V40.12H128.922V30.76H108.122V28.04ZM104.482 21.32H107.402C113.962 21.32 118.802 21.12 124.602 20.2L124.962 22.88C119.002 23.88 114.122 24.04 107.402 24.04H104.482V21.32ZM104.402 6.08H120.802V16.12H107.722V22.64H104.482V13.56H117.562V8.8H104.402V6.08ZM163.918 3.96H167.238V40.12H163.918V3.96ZM166.438 18.8H173.158V21.6H166.438V18.8ZM139.238 9.72H160.558V12.44H139.238V9.72ZM150.038 15.44C155.158 15.44 158.838 18.88 158.838 23.76C158.838 28.64 155.158 32.08 150.038 32.08C144.958 32.08 141.238 28.64 141.238 23.76C141.238 18.88 144.958 15.44 150.038 15.44ZM150.038 18.2C146.758 18.2 144.398 20.48 144.398 23.76C144.398 27 146.758 29.32 150.038 29.32C153.318 29.32 155.678 27 155.678 23.76C155.678 20.48 153.318 18.2 150.038 18.2ZM148.318 4.4H151.638V10.96H148.318V4.4ZM193.555 10.32H203.675V13.04H193.555V10.32ZM193.555 18.04H203.755V20.8H193.555V18.04ZM177.875 7.08H194.395V24.04H177.875V7.08ZM191.115 9.76H181.115V21.36H191.115V9.76ZM202.635 4H205.955V30.4H202.635V4ZM182.715 36.6H206.835V39.32H182.715V36.6ZM182.715 28H186.035V37.84H182.715V28ZM244.661 35.84V37H234.061V35.84L236.021 35.92C236.821 36 237.221 35.68 237.221 34.96C237.221 34.5067 237.088 33.9867 236.821 33.4L234.861 28.68H225.541L223.701 33.16C223.328 33.9867 223.141 34.6533 223.141 35.16C223.141 35.72 223.435 35.9867 224.021 35.96L225.941 35.84V37H219.021V35.84L220.061 35.92H220.221C220.755 35.92 221.195 35.6667 221.541 35.16C221.941 34.5733 222.341 33.8 222.741 32.84L231.101 12.72H232.141L240.581 32.92C240.955 33.88 241.341 34.64 241.741 35.2C242.115 35.68 242.581 35.92 243.141 35.92H243.341L244.661 35.84ZM226.021 27.56H234.381L230.181 17.48L226.021 27.56ZM245.845 35.84L247.405 35.92C247.911 35.92 248.165 35.6267 248.165 35.04V15.08C248.165 14.84 248.098 14.64 247.965 14.48C247.831 14.2933 247.645 14.2133 247.405 14.24L245.845 14.32V13.12H254.245V14.32L252.685 14.24H252.605C252.391 14.24 252.218 14.32 252.085 14.48C251.951 14.64 251.885 14.84 251.885 15.08V35.04C251.885 35.6267 252.151 35.92 252.685 35.92L254.245 35.84V37H245.845V35.84ZM258.187 20.76H290.987V23.28H258.187V20.76ZM262.067 26.2H286.867V33.92H265.467V38.16H262.187V31.64H283.627V28.56H262.067V26.2ZM262.187 37.28H288.027V39.68H262.187V37.28ZM262.347 5H286.747V12.52H265.707V16.44H262.427V10.28H283.507V7.36H262.347V5ZM262.427 15.64H287.427V18.04H262.427V15.64ZM330.053 3.92H333.373V40.16H330.053V3.92ZM314.293 6.72C319.653 6.72 323.493 11.64 323.493 19.32C323.493 27.04 319.653 31.96 314.293 31.96C308.973 31.96 305.133 27.04 305.133 19.32C305.133 11.64 308.973 6.72 314.293 6.72ZM314.293 9.72C310.773 9.72 308.293 13.48 308.293 19.32C308.293 25.2 310.773 29.04 314.293 29.04C317.853 29.04 320.293 25.2 320.293 19.32C320.293 13.48 317.853 9.72 314.293 9.72ZM348.65 16.2H351.93V23.04H348.65V16.2ZM361.93 16.2H365.21V23.04H361.93V16.2ZM340.57 21.84H373.25V24.52H340.57V21.84ZM356.89 27.24C364.65 27.24 369.29 29.52 369.29 33.64C369.29 37.76 364.65 40.08 356.89 40.08C349.13 40.08 344.49 37.76 344.49 33.64C344.49 29.52 349.13 27.24 356.89 27.24ZM356.89 29.8C351.25 29.8 347.85 31.2 347.85 33.64C347.85 36.12 351.25 37.48 356.89 37.48C362.57 37.48 365.93 36.12 365.93 33.64C365.93 31.2 362.57 29.8 356.89 29.8ZM356.93 4.6C364.77 4.6 369.65 7.12 369.65 11.36C369.65 15.56 364.77 18.04 356.93 18.04C349.05 18.04 344.21 15.56 344.21 11.36C344.21 7.12 349.05 4.6 356.93 4.6ZM356.93 7.2C351.17 7.2 347.61 8.72 347.61 11.36C347.61 13.96 351.17 15.48 356.93 15.48C362.69 15.48 366.25 13.96 366.25 11.36C366.25 8.72 362.69 7.2 356.93 7.2ZM377.327 10.12H395.247V12.84H377.327V10.12ZM386.287 15.24C390.807 15.24 394.087 18.64 394.087 23.52C394.087 28.36 390.807 31.76 386.287 31.76C381.807 31.76 378.527 28.36 378.527 23.52C378.527 18.64 381.807 15.24 386.287 15.24ZM386.287 18.08C383.527 18.08 381.527 20.32 381.527 23.52C381.527 26.72 383.527 28.96 386.287 28.96C389.087 28.96 391.127 26.72 391.127 23.52C391.127 20.32 389.087 18.08 386.287 18.08ZM404.807 3.96H408.007V40.12H404.807V3.96ZM399.047 19.16H405.887V21.92H399.047V19.16ZM397.087 4.76H400.207V38.36H397.087V4.76ZM384.687 5H387.967V11.8H384.687V5ZM19.1174 52.72C24.3574 52.72 28.1174 57.64 28.1174 65.32C28.1174 73.04 24.3574 77.96 19.1174 77.96C13.8374 77.96 10.1174 73.04 10.1174 65.32C10.1174 57.64 13.8374 52.72 19.1174 52.72ZM19.1174 55.72C15.6374 55.72 13.2774 59.48 13.2774 65.32C13.2774 71.2 15.6374 75.04 19.1174 75.04C22.5974 75.04 24.9574 71.2 24.9574 65.32C24.9574 59.48 22.5974 55.72 19.1174 55.72ZM35.9574 49.92H39.2374V86.16H35.9574V49.92ZM27.0374 63.72H37.3974V66.44H27.0374V63.72ZM60.9143 66.96H64.1943V72.52H60.9143V66.96ZM62.5943 50.4C70.5543 50.4 75.3143 52.6 75.3143 56.64C75.3143 60.68 70.5543 62.92 62.5943 62.92C54.5943 62.92 49.8743 60.68 49.8743 56.64C49.8743 52.6 54.5943 50.4 62.5943 50.4ZM62.5943 52.92C56.6743 52.92 53.2743 54.28 53.2743 56.64C53.2743 59.04 56.6743 60.4 62.5943 60.4C68.4743 60.4 71.8743 59.04 71.8743 56.64C71.8743 54.28 68.4743 52.92 62.5943 52.92ZM46.2343 65.24H78.9143V67.96H46.2343V65.24ZM50.1943 71.28H74.7543V79.44H53.5543V83.84H50.2743V77.04H71.4743V73.84H50.1943V71.28ZM50.2743 83.12H75.8343V85.72H50.2743V83.12ZM109.391 49.92H112.711V86.16H109.391V49.92ZM85.1512 74.68H88.1512C94.1912 74.68 99.5912 74.44 105.991 73.4L106.351 76.12C99.7912 77.2 94.3512 77.44 88.1512 77.44H85.1512V74.68ZM85.0712 53.32H101.791V66.24H88.4712V75.72H85.1512V63.52H98.4312V56.04H85.0712V53.32ZM124.268 60.8H148.828V63.52H124.268V60.8ZM119.828 68.36H152.628V71.08H119.828V68.36ZM124.268 51.28H127.548V62.16H124.268V51.28ZM124.028 82.52H149.028V85.24H124.028V82.52ZM124.028 74.68H127.308V83.24H124.028V74.68ZM191.694 49.92H195.014V86.16H191.694V49.92ZM175.934 52.72C181.294 52.72 185.134 57.64 185.134 65.32C185.134 73.04 181.294 77.96 175.934 77.96C170.614 77.96 166.774 73.04 166.774 65.32C166.774 57.64 170.614 52.72 175.934 52.72ZM175.934 55.72C172.414 55.72 169.934 59.48 169.934 65.32C169.934 71.2 172.414 75.04 175.934 75.04C179.494 75.04 181.934 71.2 181.934 65.32C181.934 59.48 179.494 55.72 175.934 55.72ZM204.291 53.48H220.931V77.04H204.291V53.48ZM217.691 56.16H207.531V74.36H217.691V56.16ZM228.491 49.92H231.811V86.16H228.491V49.92ZM248.608 55.12H251.288V61C251.288 68.64 246.688 76.32 240.928 79.16L239.008 76.52C244.248 74.04 248.608 67.24 248.608 61V55.12ZM249.248 55.12H251.928V61C251.928 67.12 256.288 73.36 261.608 75.64L259.728 78.28C253.888 75.56 249.248 68.52 249.248 61V55.12ZM240.208 53.64H260.408V56.44H240.208V53.64ZM265.288 49.96H268.608V86.12H265.288V49.96ZM300.285 49.92H303.645V86.12H300.285V49.92ZM302.725 64.6H309.405V67.36H302.725V64.6ZM291.045 53.84H294.285C294.285 64.12 289.565 73.4 277.885 79.28L276.045 76.72C286.045 71.64 291.045 63.92 291.045 54.36V53.84ZM277.725 53.84H292.765V56.56H277.725V53.84ZM328.991 52.2H331.631V57.04C331.631 62.44 328.511 68.12 323.191 70.48L321.391 67.88C326.151 65.8 328.991 61.12 328.991 57.04V52.2ZM329.511 52.2H332.151V57.04C332.151 61.04 334.871 65.12 339.511 66.92L337.711 69.44C332.511 67.36 329.511 62.36 329.511 57.04V52.2ZM348.711 50H351.871V72.28H348.711V50ZM342.951 59.64H349.791V62.36H342.951V59.64ZM340.951 50.68H344.111V71.12H340.951V50.68ZM339.991 73.08C347.431 73.08 352.071 75.48 352.071 79.6C352.071 83.68 347.431 86.04 339.991 86.04C332.511 86.04 327.951 83.68 327.951 79.6C327.951 75.48 332.511 73.08 339.991 73.08ZM339.991 75.68C334.551 75.68 331.191 77.12 331.191 79.6C331.191 82.04 334.551 83.48 339.991 83.48C345.431 83.48 348.751 82.04 348.751 79.6C348.751 77.12 345.431 75.68 339.991 75.68ZM367.307 52H370.067V55.72C370.067 62.72 366.107 68.44 359.907 70.76L358.187 68.04C363.707 66.08 367.307 61.24 367.307 55.72V52ZM367.907 52H370.627V55.6C370.627 60.72 374.147 65.24 379.427 67.08L377.627 69.68C371.787 67.48 367.907 62.16 367.907 55.6V52ZM384.627 49.96H387.947V71.36H384.627V49.96ZM376.067 72.4C383.507 72.4 388.107 74.92 388.107 79.24C388.107 83.56 383.507 86.04 376.067 86.04C368.587 86.04 363.987 83.56 363.987 79.24C363.987 74.92 368.587 72.4 376.067 72.4ZM376.067 75.04C370.627 75.04 367.307 76.6 367.307 79.24C367.307 81.88 370.627 83.44 376.067 83.44C381.507 83.44 384.827 81.88 384.827 79.24C384.827 76.6 381.507 75.04 376.067 75.04ZM376.787 57.6H385.347V60.36H376.787V57.6ZM402.704 67.6H405.864V76.08H402.704V67.6ZM395.024 78.32L394.584 75.56C399.624 75.56 407.584 75.4 413.304 74.68L413.504 77.16C407.584 78.16 399.944 78.32 395.024 78.32ZM422.344 49.96H425.544V86.12H422.344V49.96ZM416.864 65H423.384V67.72H416.864V65ZM414.904 50.72H418.024V84.2H414.904V50.72ZM396.424 65.52H412.064V68.24H396.424V65.52ZM396.424 53.64H411.704V56.36H399.704V66.4H396.424V53.64ZM439.821 68.56H443.101V79.4H439.821V68.56ZM453.181 68.56H456.501V79.4H453.181V68.56ZM431.821 78.76H464.581V81.52H431.821V78.76ZM448.141 52.24C455.781 52.24 461.261 55.88 461.261 61.56C461.261 67.2 455.781 70.84 448.141 70.84C440.461 70.84 434.981 67.2 434.981 61.56C434.981 55.88 440.461 52.24 448.141 52.24ZM448.141 54.88C442.341 54.88 438.181 57.52 438.181 61.56C438.181 65.56 442.341 68.2 448.141 68.2C453.941 68.2 458.061 65.56 458.061 61.56C458.061 57.52 453.941 54.88 448.141 54.88ZM472.778 57.52C473.498 57.52 474.045 57.72 474.418 58.12C474.791 58.52 474.978 59.04 474.978 59.68C474.978 60.2667 474.898 61.1067 474.738 62.2L474.218 65.88L473.938 67.8C473.698 69.2933 473.525 70.52 473.418 71.48C473.311 72.4133 473.258 73.36 473.258 74.32C473.258 74.48 473.218 74.6267 473.138 74.76C473.058 74.8933 472.951 74.96 472.818 74.96C472.658 74.96 472.538 74.8933 472.458 74.76C472.378 74.6267 472.338 74.48 472.338 74.32C472.338 73.36 472.285 72.4133 472.178 71.48C472.071 70.52 471.898 69.2933 471.658 67.8L471.378 65.88L470.858 62.2C470.698 61.1067 470.618 60.2667 470.618 59.68C470.618 59.04 470.805 58.52 471.178 58.12C471.551 57.72 472.085 57.52 472.778 57.52ZM472.818 78.8C473.538 78.8 474.138 79.0267 474.618 79.48C475.125 79.9333 475.378 80.48 475.378 81.12C475.378 81.7333 475.111 82.2667 474.578 82.72C474.071 83.1733 473.471 83.4 472.778 83.4C472.111 83.4 471.511 83.1733 470.978 82.72C470.471 82.2667 470.218 81.72 470.218 81.08C470.218 80.44 470.471 79.9067 470.978 79.48C471.485 79.0267 472.098 78.8 472.818 78.8Z" fill="#888383"/>
</g>
<defs>
<clipPath id="clip0_1291_14">
<rect width="487" height="92" fill="white"/>
</clipPath>
</defs>
</svg>
